%FSLAX34Y34*%
%MOMM*%
%LNCOPPER_BOTTOM*%
G71*
G01*
%ADD10C,1.700*%
%ADD11C,0.300*%
%LPD*%
X3182144Y665162D02*
G54D10*
D03*
X3284538Y665162D02*
G54D10*
D03*
G54D11*
X3182144Y665162D02*
X3284538Y665162D01*
X2574131Y669131D02*
G54D10*
D03*
X2676525Y669131D02*
G54D10*
D03*
G54D11*
X2574131Y669131D02*
X2676525Y669131D01*
X2524522Y644525D02*
G54D10*
D03*
X2626916Y644525D02*
G54D10*
D03*
G54D11*
X2524522Y644525D02*
X2626916Y644525D01*
X1164828Y867172D02*
G54D10*
D03*
X1164828Y940594D02*
G54D10*
D03*
G54D11*
X1164828Y940594D02*
X1164828Y867172D01*
X208756Y680244D02*
G54D10*
D03*
X311150Y680244D02*
G54D10*
D03*
G54D11*
X208756Y680244D02*
X311150Y680244D01*
X170260Y655241D02*
G54D10*
D03*
X272653Y655241D02*
G54D10*
D03*
G54D11*
X170260Y655241D02*
X272653Y655241D01*
X412354Y717550D02*
G54D10*
D03*
X412354Y869553D02*
G54D10*
D03*
G54D11*
X412354Y869553D02*
X412354Y717550D01*
X438944Y693738D02*
G54D10*
D03*
X438944Y780653D02*
G54D10*
D03*
G54D11*
X438944Y780653D02*
X438944Y693738D01*
X477044Y743347D02*
G54D10*
D03*
X477044Y640953D02*
G54D10*
D03*
G54D11*
X477044Y743347D02*
X477044Y640953D01*
X475854Y844947D02*
G54D10*
D03*
X475854Y931862D02*
G54D10*
D03*
G54D11*
X475854Y931862D02*
X475854Y844947D01*
X578247Y655241D02*
G54D10*
D03*
X578247Y742156D02*
G54D10*
D03*
G54D11*
X578247Y742156D02*
X578247Y655241D01*
X603250Y655241D02*
G54D10*
D03*
X603250Y742156D02*
G54D10*
D03*
G54D11*
X603250Y742156D02*
X603250Y655241D01*
X783432Y806053D02*
G54D10*
D03*
X783432Y892969D02*
G54D10*
D03*
G54D11*
X783432Y892969D02*
X783432Y806053D01*
X755650Y844550D02*
G54D10*
D03*
X755650Y931466D02*
G54D10*
D03*
G54D11*
X755650Y931466D02*
X755650Y844550D01*
X934640Y906463D02*
G54D10*
D03*
X810022Y906066D02*
G54D10*
D03*
G54D11*
X934640Y906463D02*
X810022Y906066D01*
X946944Y881063D02*
G54D10*
D03*
X822325Y880666D02*
G54D10*
D03*
G54D11*
X946944Y881063D02*
X822325Y880666D01*
X960438Y856456D02*
G54D10*
D03*
X835818Y856060D02*
G54D10*
D03*
G54D11*
X960438Y856456D02*
X835818Y856060D01*
X834232Y640556D02*
G54D10*
D03*
X834232Y727472D02*
G54D10*
D03*
G54D11*
X834232Y727472D02*
X834232Y640556D01*
X885032Y640556D02*
G54D10*
D03*
X885032Y727472D02*
G54D10*
D03*
G54D11*
X885032Y727472D02*
X885032Y640556D01*
X910432Y640556D02*
G54D10*
D03*
X910432Y727472D02*
G54D10*
D03*
G54D11*
X910432Y727472D02*
X910432Y640556D01*
X987028Y640556D02*
G54D10*
D03*
X987028Y727472D02*
G54D10*
D03*
G54D11*
X987028Y727472D02*
X987028Y640556D01*
X1012032Y640556D02*
G54D10*
D03*
X1012032Y727472D02*
G54D10*
D03*
G54D11*
X1012032Y727472D02*
X1012032Y640556D01*
X1137841Y640556D02*
G54D10*
D03*
X1137841Y727472D02*
G54D10*
D03*
G54D11*
X1137841Y727472D02*
X1137841Y640556D01*
X1165225Y641350D02*
G54D10*
D03*
X1165225Y714772D02*
G54D10*
D03*
G54D11*
X1165225Y714772D02*
X1165225Y641350D01*
X1190228Y640953D02*
G54D10*
D03*
X1190228Y714375D02*
G54D10*
D03*
G54D11*
X1190228Y714375D02*
X1190228Y640953D01*
X1087834Y640159D02*
G54D10*
D03*
X1088231Y740172D02*
G54D10*
D03*
G54D11*
X1088231Y740172D02*
X1087834Y640159D01*
X1113631Y640159D02*
G54D10*
D03*
X1114028Y740172D02*
G54D10*
D03*
G54D11*
X1114028Y740172D02*
X1113631Y640159D01*
X1292622Y696516D02*
G54D10*
D03*
X1293019Y796528D02*
G54D10*
D03*
G54D11*
X1293019Y796528D02*
X1292622Y696516D01*
X1318022Y702469D02*
G54D10*
D03*
X1318419Y802481D02*
G54D10*
D03*
G54D11*
X1318419Y802481D02*
X1318022Y702469D01*
X1368425Y703262D02*
G54D10*
D03*
X1368425Y817166D02*
G54D10*
D03*
G54D11*
X1368425Y817166D02*
X1368425Y703262D01*
X1394222Y703262D02*
G54D10*
D03*
X1394222Y817166D02*
G54D10*
D03*
G54D11*
X1394222Y817166D02*
X1394222Y703262D01*
X1419622Y703262D02*
G54D10*
D03*
X1419622Y817166D02*
G54D10*
D03*
G54D11*
X1419622Y817166D02*
X1419622Y703262D01*
X1400572Y848122D02*
G54D10*
D03*
X1400572Y921544D02*
G54D10*
D03*
G54D11*
X1400572Y921544D02*
X1400572Y848122D01*
X1190228Y425847D02*
G54D10*
D03*
X1190625Y525859D02*
G54D10*
D03*
G54D11*
X1190625Y525859D02*
X1190228Y425847D01*
X900311Y525264D02*
G54D10*
D03*
X987227Y525264D02*
G54D10*
D03*
G54D11*
X987227Y525264D02*
X900311Y525264D01*
X899120Y324445D02*
G54D10*
D03*
X1013024Y324445D02*
G54D10*
D03*
G54D11*
X1013024Y324445D02*
X899120Y324445D01*
X899120Y299045D02*
G54D10*
D03*
X1013024Y299045D02*
G54D10*
D03*
G54D11*
X1013024Y299045D02*
X899120Y299045D01*
X899120Y273645D02*
G54D10*
D03*
X1013024Y273645D02*
G54D10*
D03*
G54D11*
X1013024Y273645D02*
X899120Y273645D01*
X899120Y248245D02*
G54D10*
D03*
X1013024Y248245D02*
G54D10*
D03*
G54D11*
X1013024Y248245D02*
X899120Y248245D01*
X899120Y222845D02*
G54D10*
D03*
X1013024Y222845D02*
G54D10*
D03*
G54D11*
X1013024Y222845D02*
X899120Y222845D01*
X899120Y197445D02*
G54D10*
D03*
X1013024Y197445D02*
G54D10*
D03*
G54D11*
X1013024Y197445D02*
X899120Y197445D01*
X1052116Y83344D02*
G54D10*
D03*
X1052116Y197247D02*
G54D10*
D03*
G54D11*
X1052116Y197247D02*
X1052116Y83344D01*
X1114028Y-41672D02*
G54D10*
D03*
X1114425Y58341D02*
G54D10*
D03*
G54D11*
X1114425Y58341D02*
X1114028Y-41672D01*
X904875Y-143669D02*
G54D10*
D03*
X905272Y-43656D02*
G54D10*
D03*
G54D11*
X905272Y-43656D02*
X904875Y-143669D01*
X1369616Y58341D02*
G54D10*
D03*
X1370012Y158353D02*
G54D10*
D03*
G54D11*
X1370012Y158353D02*
X1369616Y58341D01*
X1395016Y58341D02*
G54D10*
D03*
X1395412Y158353D02*
G54D10*
D03*
G54D11*
X1395412Y158353D02*
X1395016Y58341D01*
X1420416Y58341D02*
G54D10*
D03*
X1420812Y158353D02*
G54D10*
D03*
G54D11*
X1420812Y158353D02*
X1420416Y58341D01*
X1445816Y58341D02*
G54D10*
D03*
X1446212Y158353D02*
G54D10*
D03*
G54D11*
X1446212Y158353D02*
X1445816Y58341D01*
X1471216Y58341D02*
G54D10*
D03*
X1471612Y158353D02*
G54D10*
D03*
G54D11*
X1471612Y158353D02*
X1471216Y58341D01*
X1496616Y58341D02*
G54D10*
D03*
X1497012Y158353D02*
G54D10*
D03*
G54D11*
X1497012Y158353D02*
X1496616Y58341D01*
X1433910Y-347662D02*
G54D10*
D03*
X1434306Y-247650D02*
G54D10*
D03*
G54D11*
X1434306Y-247650D02*
X1433910Y-347662D01*
X1801416Y-334962D02*
G54D10*
D03*
X1801812Y-234950D02*
G54D10*
D03*
G54D11*
X1801812Y-234950D02*
X1801416Y-334962D01*
X2170906Y-336153D02*
G54D10*
D03*
X2171303Y-236141D02*
G54D10*
D03*
G54D11*
X2171303Y-236141D02*
X2170906Y-336153D01*
X2222103Y-335756D02*
G54D10*
D03*
X2222500Y-235744D02*
G54D10*
D03*
G54D11*
X2222500Y-235744D02*
X2222103Y-335756D01*
X2259806Y-336153D02*
G54D10*
D03*
X2260203Y-236141D02*
G54D10*
D03*
G54D11*
X2260203Y-236141D02*
X2259806Y-336153D01*
X2016919Y44053D02*
G54D10*
D03*
X2017316Y144066D02*
G54D10*
D03*
G54D11*
X2017316Y144066D02*
X2016919Y44053D01*
X2209403Y43259D02*
G54D10*
D03*
X2209800Y143272D02*
G54D10*
D03*
G54D11*
X2209800Y143272D02*
X2209403Y43259D01*
X1852216Y233759D02*
G54D10*
D03*
X1852612Y333772D02*
G54D10*
D03*
G54D11*
X1852612Y333772D02*
X1852216Y233759D01*
X1877616Y233362D02*
G54D10*
D03*
X1878012Y333375D02*
G54D10*
D03*
G54D11*
X1878012Y333375D02*
X1877616Y233362D01*
X2069306Y232966D02*
G54D10*
D03*
X2069703Y332978D02*
G54D10*
D03*
G54D11*
X2069703Y332978D02*
X2069306Y232966D01*
X2259012Y221059D02*
G54D10*
D03*
X2259409Y321072D02*
G54D10*
D03*
G54D11*
X2259409Y321072D02*
X2259012Y221059D01*
X2448322Y232966D02*
G54D10*
D03*
X2448719Y332978D02*
G54D10*
D03*
G54D11*
X2448719Y332978D02*
X2448322Y232966D01*
X2640012Y234553D02*
G54D10*
D03*
X2640409Y334566D02*
G54D10*
D03*
G54D11*
X2640409Y334566D02*
X2640012Y234553D01*
X2830512Y233759D02*
G54D10*
D03*
X2830909Y333772D02*
G54D10*
D03*
G54D11*
X2830909Y333772D02*
X2830512Y233759D01*
X3020616Y233759D02*
G54D10*
D03*
X3021012Y333772D02*
G54D10*
D03*
G54D11*
X3021012Y333772D02*
X3020616Y233759D01*
X3208734Y234950D02*
G54D10*
D03*
X3209131Y334962D02*
G54D10*
D03*
G54D11*
X3209131Y334962D02*
X3208734Y234950D01*
X3398440Y235347D02*
G54D10*
D03*
X3398837Y335359D02*
G54D10*
D03*
G54D11*
X3398837Y335359D02*
X3398440Y235347D01*
X3589734Y236538D02*
G54D10*
D03*
X3590131Y336550D02*
G54D10*
D03*
G54D11*
X3590131Y336550D02*
X3589734Y236538D01*
X3780631Y235744D02*
G54D10*
D03*
X3781028Y335756D02*
G54D10*
D03*
G54D11*
X3781028Y335756D02*
X3780631Y235744D01*
X3971925Y234950D02*
G54D10*
D03*
X3972322Y334962D02*
G54D10*
D03*
G54D11*
X3972322Y334962D02*
X3971925Y234950D01*
X2346722Y494506D02*
G54D10*
D03*
X2347119Y594519D02*
G54D10*
D03*
G54D11*
X2347119Y594519D02*
X2346722Y494506D01*
X2157412Y424259D02*
G54D10*
D03*
X2157809Y524272D02*
G54D10*
D03*
G54D11*
X2157809Y524272D02*
X2157412Y424259D01*
X2434828Y728266D02*
G54D10*
D03*
X2435225Y828278D02*
G54D10*
D03*
G54D11*
X2435225Y828278D02*
X2434828Y728266D01*
X4319588Y44847D02*
G54D10*
D03*
X4319984Y144859D02*
G54D10*
D03*
G54D11*
X4319984Y144859D02*
X4319588Y44847D01*
X3437731Y-144066D02*
G54D10*
D03*
X3438128Y-44053D02*
G54D10*
D03*
G54D11*
X3438128Y-44053D02*
X3437731Y-144066D01*
X3247231Y-143669D02*
G54D10*
D03*
X3247628Y-43656D02*
G54D10*
D03*
G54D11*
X3247628Y-43656D02*
X3247231Y-143669D01*
X2678112Y-144859D02*
G54D10*
D03*
X2678510Y-44847D02*
G54D10*
D03*
G54D11*
X2678510Y-44847D02*
X2678112Y-144859D01*
X1850231Y855662D02*
G54D10*
D03*
X1850231Y929084D02*
G54D10*
D03*
G54D11*
X1850231Y929084D02*
X1850231Y855662D01*
X1888728Y855662D02*
G54D10*
D03*
X1888728Y929084D02*
G54D10*
D03*
G54D11*
X1888728Y929084D02*
X1888728Y855662D01*
X1798439Y651073D02*
G54D10*
D03*
X1928614Y651073D02*
G54D10*
D03*
G54D11*
X1928614Y651073D02*
X1798439Y651073D01*
X1953220Y804267D02*
G54D10*
D03*
X1953220Y651073D02*
G54D10*
D03*
G54D11*
X1953220Y651073D02*
X1953220Y804267D01*
X2042914Y701476D02*
G54D10*
D03*
X2195710Y701079D02*
G54D10*
D03*
G54D11*
X2195710Y701079D02*
X2042914Y701476D01*
X2048868Y664170D02*
G54D10*
D03*
X2201663Y663773D02*
G54D10*
D03*
G54D11*
X2201663Y663773D02*
X2048868Y664170D01*
X1659930Y886420D02*
G54D10*
D03*
X1761927Y886420D02*
G54D10*
D03*
G54D11*
X1761927Y886420D02*
X1659930Y886420D01*
X1628577Y928886D02*
G54D10*
D03*
X1628180Y855067D02*
G54D10*
D03*
X1978422Y436166D02*
G54D10*
D03*
X1978818Y536178D02*
G54D10*
D03*
G54D11*
X1978818Y536178D02*
X1978422Y436166D01*
X1597819Y493712D02*
G54D10*
D03*
X1598216Y593725D02*
G54D10*
D03*
G54D11*
X1598216Y593725D02*
X1597819Y493712D01*
X756841Y693738D02*
G54D10*
D03*
X756841Y767159D02*
G54D10*
D03*
G54D11*
X756841Y767159D02*
X756841Y693738D01*
X807640Y730250D02*
G54D10*
D03*
X808038Y830262D02*
G54D10*
D03*
G54D11*
X808038Y830262D02*
X807640Y730250D01*
X1061640Y857647D02*
G54D10*
D03*
X1061640Y931069D02*
G54D10*
D03*
G54D11*
X1061640Y931069D02*
X1061640Y857647D01*
X4009628Y664369D02*
G54D10*
D03*
X4112022Y664369D02*
G54D10*
D03*
G54D11*
X4009628Y664369D02*
X4112022Y664369D01*
X636588Y237728D02*
G54D10*
D03*
X636984Y337741D02*
G54D10*
D03*
G54D11*
X636984Y337741D02*
X636588Y237728D01*
M02*
