%FSLAX34Y34*%
%MOMM*%
%LNSOLDERMASK_TOP*%
G71*
G01*
%ADD10C,3.600*%
%ADD11C,2.800*%
%ADD12C,2.300*%
%ADD13C,2.600*%
%LPD*%
X3129756Y-43255D02*
G54D10*
D03*
X3193653Y-68258D02*
G54D10*
D03*
X3193653Y-144458D02*
G54D11*
D03*
X3117453Y-144458D02*
G54D11*
D03*
X3320470Y-43199D02*
G54D10*
D03*
X3384366Y-68203D02*
G54D10*
D03*
X3384366Y-144402D02*
G54D11*
D03*
X3308166Y-144402D02*
G54D11*
D03*
X3320470Y-43199D02*
G54D10*
D03*
X3384366Y-68203D02*
G54D10*
D03*
X3384366Y-144402D02*
G54D11*
D03*
X3308166Y-144402D02*
G54D11*
D03*
X3511182Y-43144D02*
G54D10*
D03*
X3575079Y-68147D02*
G54D10*
D03*
X3575079Y-144347D02*
G54D11*
D03*
X3498879Y-144347D02*
G54D11*
D03*
X3511182Y-43144D02*
G54D10*
D03*
X3575079Y-68147D02*
G54D10*
D03*
X3575079Y-144347D02*
G54D11*
D03*
X3498879Y-144347D02*
G54D11*
D03*
X3701896Y-43089D02*
G54D10*
D03*
X3765792Y-68092D02*
G54D10*
D03*
X3765792Y-144292D02*
G54D11*
D03*
X3689592Y-144292D02*
G54D11*
D03*
X3701896Y-43089D02*
G54D10*
D03*
X3765792Y-68092D02*
G54D10*
D03*
X3765792Y-144292D02*
G54D11*
D03*
X3689592Y-144292D02*
G54D11*
D03*
X3892609Y-43033D02*
G54D10*
D03*
X3956505Y-68036D02*
G54D10*
D03*
X3956505Y-144236D02*
G54D11*
D03*
X3880305Y-144236D02*
G54D11*
D03*
X3129756Y-43255D02*
G54D10*
D03*
X3193653Y-68258D02*
G54D10*
D03*
X3193653Y-144458D02*
G54D11*
D03*
X3117453Y-144458D02*
G54D11*
D03*
X3129756Y-43255D02*
G54D10*
D03*
X3193653Y-68258D02*
G54D10*
D03*
X3193653Y-144458D02*
G54D11*
D03*
X3117453Y-144458D02*
G54D11*
D03*
X3320470Y-43200D02*
G54D10*
D03*
X3384366Y-68203D02*
G54D10*
D03*
X3384366Y-144403D02*
G54D11*
D03*
X3308166Y-144403D02*
G54D11*
D03*
X2178786Y-45064D02*
G54D10*
D03*
X2242682Y-70067D02*
G54D10*
D03*
X2242682Y-146267D02*
G54D11*
D03*
X2166482Y-146267D02*
G54D11*
D03*
X2369499Y-45009D02*
G54D10*
D03*
X2433396Y-70012D02*
G54D10*
D03*
X2433396Y-146212D02*
G54D11*
D03*
X2357196Y-146212D02*
G54D11*
D03*
X2369499Y-45009D02*
G54D10*
D03*
X2433396Y-70012D02*
G54D10*
D03*
X2433396Y-146212D02*
G54D11*
D03*
X2357196Y-146212D02*
G54D11*
D03*
X2560212Y-44953D02*
G54D10*
D03*
X2624108Y-69956D02*
G54D10*
D03*
X2624108Y-146156D02*
G54D11*
D03*
X2547908Y-146156D02*
G54D11*
D03*
X2560212Y-44953D02*
G54D10*
D03*
X2624108Y-69956D02*
G54D10*
D03*
X2624108Y-146156D02*
G54D11*
D03*
X2547908Y-146156D02*
G54D11*
D03*
X2750925Y-44898D02*
G54D10*
D03*
X2814822Y-69901D02*
G54D10*
D03*
X2814822Y-146101D02*
G54D11*
D03*
X2738622Y-146101D02*
G54D11*
D03*
X2750925Y-44898D02*
G54D10*
D03*
X2814822Y-69901D02*
G54D10*
D03*
X2814822Y-146101D02*
G54D11*
D03*
X2738622Y-146101D02*
G54D11*
D03*
X2941638Y-44842D02*
G54D10*
D03*
X3005534Y-69846D02*
G54D10*
D03*
X3005534Y-146046D02*
G54D11*
D03*
X2929334Y-146046D02*
G54D11*
D03*
X2178786Y-45064D02*
G54D10*
D03*
X2242682Y-70068D02*
G54D10*
D03*
X2242682Y-146267D02*
G54D11*
D03*
X2166482Y-146267D02*
G54D11*
D03*
X2178786Y-45064D02*
G54D10*
D03*
X2242682Y-70068D02*
G54D10*
D03*
X2242682Y-146267D02*
G54D11*
D03*
X2166482Y-146267D02*
G54D11*
D03*
X2369499Y-45009D02*
G54D10*
D03*
X2433396Y-70012D02*
G54D10*
D03*
X2433396Y-146212D02*
G54D11*
D03*
X2357196Y-146212D02*
G54D11*
D03*
X3034052Y-234770D02*
G54D10*
D03*
X3097948Y-259774D02*
G54D10*
D03*
X3097948Y-335974D02*
G54D11*
D03*
X3021748Y-335974D02*
G54D11*
D03*
X3034052Y-234770D02*
G54D10*
D03*
X3097948Y-259774D02*
G54D10*
D03*
X3097948Y-335974D02*
G54D11*
D03*
X3021748Y-335974D02*
G54D11*
D03*
X3034052Y-234770D02*
G54D10*
D03*
X3097948Y-259774D02*
G54D10*
D03*
X3097948Y-335974D02*
G54D11*
D03*
X3021748Y-335974D02*
G54D11*
D03*
X3035197Y146349D02*
G54D10*
D03*
X3099094Y121346D02*
G54D10*
D03*
X3099094Y45146D02*
G54D11*
D03*
X3022894Y45146D02*
G54D11*
D03*
X3225910Y146404D02*
G54D10*
D03*
X3289806Y121401D02*
G54D10*
D03*
X3289806Y45201D02*
G54D11*
D03*
X3213606Y45201D02*
G54D11*
D03*
X3225910Y146404D02*
G54D10*
D03*
X3289806Y121401D02*
G54D10*
D03*
X3289806Y45201D02*
G54D11*
D03*
X3213606Y45201D02*
G54D11*
D03*
X3416623Y146460D02*
G54D10*
D03*
X3480520Y121456D02*
G54D10*
D03*
X3480520Y45256D02*
G54D11*
D03*
X3404320Y45256D02*
G54D11*
D03*
X3416623Y146460D02*
G54D10*
D03*
X3480520Y121456D02*
G54D10*
D03*
X3480520Y45256D02*
G54D11*
D03*
X3404320Y45256D02*
G54D11*
D03*
X3607336Y146515D02*
G54D10*
D03*
X3671232Y121512D02*
G54D10*
D03*
X3671232Y45312D02*
G54D11*
D03*
X3595032Y45312D02*
G54D11*
D03*
X3607336Y146515D02*
G54D10*
D03*
X3671232Y121512D02*
G54D10*
D03*
X3671232Y45312D02*
G54D11*
D03*
X3595032Y45312D02*
G54D11*
D03*
X3798049Y146570D02*
G54D10*
D03*
X3861946Y121567D02*
G54D10*
D03*
X3861946Y45367D02*
G54D11*
D03*
X3785746Y45367D02*
G54D11*
D03*
X3035197Y146349D02*
G54D10*
D03*
X3099094Y121346D02*
G54D10*
D03*
X3099094Y45146D02*
G54D11*
D03*
X3022894Y45146D02*
G54D11*
D03*
X3035197Y146349D02*
G54D10*
D03*
X3099094Y121346D02*
G54D10*
D03*
X3099094Y45146D02*
G54D11*
D03*
X3022894Y45146D02*
G54D11*
D03*
X3225910Y146404D02*
G54D10*
D03*
X3289806Y121401D02*
G54D10*
D03*
X3289806Y45201D02*
G54D11*
D03*
X3213606Y45201D02*
G54D11*
D03*
X2084226Y144539D02*
G54D10*
D03*
X2148123Y119536D02*
G54D10*
D03*
X2148123Y43336D02*
G54D11*
D03*
X2071923Y43336D02*
G54D11*
D03*
X2274939Y144595D02*
G54D10*
D03*
X2338836Y119592D02*
G54D10*
D03*
X2338836Y43392D02*
G54D11*
D03*
X2262636Y43392D02*
G54D11*
D03*
X2274939Y144595D02*
G54D10*
D03*
X2338836Y119592D02*
G54D10*
D03*
X2338836Y43392D02*
G54D11*
D03*
X2262636Y43392D02*
G54D11*
D03*
X2465652Y144650D02*
G54D10*
D03*
X2529549Y119647D02*
G54D10*
D03*
X2529549Y43447D02*
G54D11*
D03*
X2453349Y43447D02*
G54D11*
D03*
X2465652Y144650D02*
G54D10*
D03*
X2529549Y119647D02*
G54D10*
D03*
X2529549Y43447D02*
G54D11*
D03*
X2453349Y43447D02*
G54D11*
D03*
X2656365Y144706D02*
G54D10*
D03*
X2720262Y119703D02*
G54D10*
D03*
X2720262Y43502D02*
G54D11*
D03*
X2644062Y43502D02*
G54D11*
D03*
X2656365Y144706D02*
G54D10*
D03*
X2720262Y119703D02*
G54D10*
D03*
X2720262Y43502D02*
G54D11*
D03*
X2644062Y43502D02*
G54D11*
D03*
X2847078Y144761D02*
G54D10*
D03*
X2910975Y119758D02*
G54D10*
D03*
X2910975Y43558D02*
G54D11*
D03*
X2834775Y43558D02*
G54D11*
D03*
X2084226Y144539D02*
G54D10*
D03*
X2148123Y119536D02*
G54D10*
D03*
X2148123Y43336D02*
G54D11*
D03*
X2071923Y43336D02*
G54D11*
D03*
X2084226Y144539D02*
G54D10*
D03*
X2148123Y119536D02*
G54D10*
D03*
X2148123Y43336D02*
G54D11*
D03*
X2071923Y43336D02*
G54D11*
D03*
X2274939Y144595D02*
G54D10*
D03*
X2338836Y119592D02*
G54D10*
D03*
X2338836Y43392D02*
G54D11*
D03*
X2262636Y43392D02*
G54D11*
D03*
X3271838Y336554D02*
G54D10*
D03*
X3335734Y311551D02*
G54D10*
D03*
X3335734Y235351D02*
G54D11*
D03*
X3259534Y235351D02*
G54D11*
D03*
X3462551Y336610D02*
G54D10*
D03*
X3526448Y311607D02*
G54D10*
D03*
X3526448Y235407D02*
G54D11*
D03*
X3450248Y235407D02*
G54D11*
D03*
X3462551Y336610D02*
G54D10*
D03*
X3526448Y311607D02*
G54D10*
D03*
X3526448Y235407D02*
G54D11*
D03*
X3450248Y235407D02*
G54D11*
D03*
X3653264Y336665D02*
G54D10*
D03*
X3717160Y311662D02*
G54D10*
D03*
X3717160Y235462D02*
G54D11*
D03*
X3640960Y235462D02*
G54D11*
D03*
X3653264Y336665D02*
G54D10*
D03*
X3717160Y311662D02*
G54D10*
D03*
X3717160Y235462D02*
G54D11*
D03*
X3640960Y235462D02*
G54D11*
D03*
X3843978Y336721D02*
G54D10*
D03*
X3907874Y311718D02*
G54D10*
D03*
X3907874Y235518D02*
G54D11*
D03*
X3831674Y235518D02*
G54D11*
D03*
X3843978Y336721D02*
G54D10*
D03*
X3907874Y311718D02*
G54D10*
D03*
X3907874Y235518D02*
G54D11*
D03*
X3831674Y235518D02*
G54D11*
D03*
X4034691Y336776D02*
G54D10*
D03*
X4098587Y311773D02*
G54D10*
D03*
X4098587Y235573D02*
G54D11*
D03*
X4022387Y235573D02*
G54D11*
D03*
X3271838Y336554D02*
G54D10*
D03*
X3335734Y311551D02*
G54D10*
D03*
X3335734Y235351D02*
G54D11*
D03*
X3259534Y235351D02*
G54D11*
D03*
X3271838Y336554D02*
G54D10*
D03*
X3335734Y311551D02*
G54D10*
D03*
X3335734Y235351D02*
G54D11*
D03*
X3259534Y235351D02*
G54D11*
D03*
X3462551Y336610D02*
G54D10*
D03*
X3526448Y311607D02*
G54D10*
D03*
X3526448Y235407D02*
G54D11*
D03*
X3450248Y235407D02*
G54D11*
D03*
X2320867Y334745D02*
G54D10*
D03*
X2384764Y309742D02*
G54D10*
D03*
X2384764Y233542D02*
G54D11*
D03*
X2308564Y233542D02*
G54D11*
D03*
X2511580Y334801D02*
G54D10*
D03*
X2575477Y309797D02*
G54D10*
D03*
X2575477Y233598D02*
G54D11*
D03*
X2499277Y233598D02*
G54D11*
D03*
X2511580Y334801D02*
G54D10*
D03*
X2575477Y309797D02*
G54D10*
D03*
X2575477Y233598D02*
G54D11*
D03*
X2499277Y233598D02*
G54D11*
D03*
X2702293Y334856D02*
G54D10*
D03*
X2766190Y309853D02*
G54D10*
D03*
X2766190Y233653D02*
G54D11*
D03*
X2689990Y233653D02*
G54D11*
D03*
X2702293Y334856D02*
G54D10*
D03*
X2766190Y309853D02*
G54D10*
D03*
X2766190Y233653D02*
G54D11*
D03*
X2689990Y233653D02*
G54D11*
D03*
X2893006Y334911D02*
G54D10*
D03*
X2956903Y309908D02*
G54D10*
D03*
X2956903Y233708D02*
G54D11*
D03*
X2880703Y233708D02*
G54D11*
D03*
X2893006Y334911D02*
G54D10*
D03*
X2956903Y309908D02*
G54D10*
D03*
X2956903Y233708D02*
G54D11*
D03*
X2880703Y233708D02*
G54D11*
D03*
X3083719Y334967D02*
G54D10*
D03*
X3147616Y309964D02*
G54D10*
D03*
X3147616Y233764D02*
G54D11*
D03*
X3071416Y233764D02*
G54D11*
D03*
X2320867Y334745D02*
G54D10*
D03*
X2384764Y309742D02*
G54D10*
D03*
X2384764Y233542D02*
G54D11*
D03*
X2308564Y233542D02*
G54D11*
D03*
X2320867Y334745D02*
G54D10*
D03*
X2384764Y309742D02*
G54D10*
D03*
X2384764Y233542D02*
G54D11*
D03*
X2308564Y233542D02*
G54D11*
D03*
X2511580Y334800D02*
G54D10*
D03*
X2575477Y309797D02*
G54D10*
D03*
X2575477Y233597D02*
G54D11*
D03*
X2499277Y233597D02*
G54D11*
D03*
X1939441Y334634D02*
G54D10*
D03*
X2003338Y309631D02*
G54D10*
D03*
X2003338Y233431D02*
G54D11*
D03*
X1927138Y233431D02*
G54D11*
D03*
X1939441Y334634D02*
G54D10*
D03*
X2003338Y309631D02*
G54D10*
D03*
X2003338Y233431D02*
G54D11*
D03*
X1927138Y233431D02*
G54D11*
D03*
X2130154Y334690D02*
G54D10*
D03*
X2194051Y309686D02*
G54D10*
D03*
X2194051Y233486D02*
G54D11*
D03*
X2117851Y233486D02*
G54D11*
D03*
X2130154Y334690D02*
G54D10*
D03*
X2194051Y309686D02*
G54D10*
D03*
X2194051Y233486D02*
G54D11*
D03*
X2117851Y233486D02*
G54D11*
D03*
X2320867Y334745D02*
G54D10*
D03*
X2384764Y309742D02*
G54D10*
D03*
X2384764Y233542D02*
G54D11*
D03*
X2308564Y233542D02*
G54D11*
D03*
X2320867Y334745D02*
G54D10*
D03*
X2384764Y309742D02*
G54D10*
D03*
X2384764Y233542D02*
G54D11*
D03*
X2308564Y233542D02*
G54D11*
D03*
X1939441Y334634D02*
G54D10*
D03*
X2003338Y309631D02*
G54D10*
D03*
X2003338Y233431D02*
G54D11*
D03*
X1927138Y233431D02*
G54D11*
D03*
X3558198Y525919D02*
G54D10*
D03*
X3622094Y500916D02*
G54D10*
D03*
X3622094Y424716D02*
G54D11*
D03*
X3545894Y424716D02*
G54D11*
D03*
X3558198Y525919D02*
G54D10*
D03*
X3622094Y500916D02*
G54D10*
D03*
X3622094Y424716D02*
G54D11*
D03*
X3545894Y424716D02*
G54D11*
D03*
X3748910Y525975D02*
G54D10*
D03*
X3812807Y500972D02*
G54D10*
D03*
X3812807Y424772D02*
G54D11*
D03*
X3736607Y424772D02*
G54D11*
D03*
X3748910Y525975D02*
G54D10*
D03*
X3812807Y500972D02*
G54D10*
D03*
X3812807Y424772D02*
G54D11*
D03*
X3736607Y424772D02*
G54D11*
D03*
X3939624Y526030D02*
G54D10*
D03*
X4003521Y501027D02*
G54D10*
D03*
X4003521Y424827D02*
G54D11*
D03*
X3927321Y424827D02*
G54D11*
D03*
X3939624Y526030D02*
G54D10*
D03*
X4003521Y501027D02*
G54D10*
D03*
X4003521Y424827D02*
G54D11*
D03*
X3927321Y424827D02*
G54D11*
D03*
X4130338Y526086D02*
G54D10*
D03*
X4194234Y501082D02*
G54D10*
D03*
X4194234Y424882D02*
G54D11*
D03*
X4118034Y424882D02*
G54D11*
D03*
X3367484Y525864D02*
G54D10*
D03*
X3431381Y500861D02*
G54D10*
D03*
X3431381Y424661D02*
G54D11*
D03*
X3355181Y424661D02*
G54D11*
D03*
X3367484Y525864D02*
G54D10*
D03*
X3431381Y500861D02*
G54D10*
D03*
X3431381Y424661D02*
G54D11*
D03*
X3355181Y424661D02*
G54D11*
D03*
X3558198Y525919D02*
G54D10*
D03*
X3622094Y500916D02*
G54D10*
D03*
X3622094Y424716D02*
G54D11*
D03*
X3545894Y424716D02*
G54D11*
D03*
X2795345Y525698D02*
G54D10*
D03*
X2859242Y500694D02*
G54D10*
D03*
X2859242Y424494D02*
G54D11*
D03*
X2783042Y424494D02*
G54D11*
D03*
X2795345Y525698D02*
G54D10*
D03*
X2859242Y500694D02*
G54D10*
D03*
X2859242Y424494D02*
G54D11*
D03*
X2783042Y424494D02*
G54D11*
D03*
X2986058Y525753D02*
G54D10*
D03*
X3049954Y500750D02*
G54D10*
D03*
X3049954Y424550D02*
G54D11*
D03*
X2973754Y424550D02*
G54D11*
D03*
X2986058Y525753D02*
G54D10*
D03*
X3049954Y500750D02*
G54D10*
D03*
X3049954Y424550D02*
G54D11*
D03*
X2973754Y424550D02*
G54D11*
D03*
X3176772Y525808D02*
G54D10*
D03*
X3240668Y500805D02*
G54D10*
D03*
X3240668Y424605D02*
G54D11*
D03*
X3164468Y424605D02*
G54D11*
D03*
X3176772Y525808D02*
G54D10*
D03*
X3240668Y500805D02*
G54D10*
D03*
X3240668Y424605D02*
G54D11*
D03*
X3164468Y424605D02*
G54D11*
D03*
X3367485Y525864D02*
G54D10*
D03*
X3431381Y500861D02*
G54D10*
D03*
X3431381Y424661D02*
G54D11*
D03*
X3355181Y424661D02*
G54D11*
D03*
X2604632Y525642D02*
G54D10*
D03*
X2668528Y500639D02*
G54D10*
D03*
X2668528Y424439D02*
G54D11*
D03*
X2592328Y424439D02*
G54D11*
D03*
X2604632Y525642D02*
G54D10*
D03*
X2668528Y500639D02*
G54D10*
D03*
X2668528Y424439D02*
G54D11*
D03*
X2592328Y424439D02*
G54D11*
D03*
X2795345Y525698D02*
G54D10*
D03*
X2859242Y500694D02*
G54D10*
D03*
X2859242Y424494D02*
G54D11*
D03*
X2783042Y424494D02*
G54D11*
D03*
X1844770Y525476D02*
G54D10*
D03*
X1908667Y500472D02*
G54D10*
D03*
X1908667Y424273D02*
G54D11*
D03*
X1832467Y424273D02*
G54D11*
D03*
X1844770Y525476D02*
G54D10*
D03*
X1908667Y500472D02*
G54D10*
D03*
X1908667Y424273D02*
G54D11*
D03*
X1832467Y424273D02*
G54D11*
D03*
X2035483Y525531D02*
G54D10*
D03*
X2099380Y500528D02*
G54D10*
D03*
X2099380Y424328D02*
G54D11*
D03*
X2023180Y424328D02*
G54D11*
D03*
X2035483Y525531D02*
G54D10*
D03*
X2099380Y500528D02*
G54D10*
D03*
X2099380Y424328D02*
G54D11*
D03*
X2023180Y424328D02*
G54D11*
D03*
X2226197Y525586D02*
G54D10*
D03*
X2290093Y500584D02*
G54D10*
D03*
X2290093Y424383D02*
G54D11*
D03*
X2213894Y424383D02*
G54D11*
D03*
X2226197Y525586D02*
G54D10*
D03*
X2290093Y500584D02*
G54D10*
D03*
X2290093Y424383D02*
G54D11*
D03*
X2213894Y424383D02*
G54D11*
D03*
X2416910Y525642D02*
G54D10*
D03*
X2480806Y500639D02*
G54D10*
D03*
X2480806Y424439D02*
G54D11*
D03*
X2404606Y424439D02*
G54D11*
D03*
X1654057Y525420D02*
G54D10*
D03*
X1717954Y500417D02*
G54D10*
D03*
X1717954Y424217D02*
G54D11*
D03*
X1641754Y424217D02*
G54D11*
D03*
X1654057Y525420D02*
G54D10*
D03*
X1717954Y500417D02*
G54D10*
D03*
X1717954Y424217D02*
G54D11*
D03*
X1641754Y424217D02*
G54D11*
D03*
X1844770Y525476D02*
G54D10*
D03*
X1908667Y500472D02*
G54D10*
D03*
X1908667Y424272D02*
G54D11*
D03*
X1832467Y424272D02*
G54D11*
D03*
X1703726Y241083D02*
G54D10*
D03*
X1767623Y216080D02*
G54D10*
D03*
X1767623Y139880D02*
G54D11*
D03*
X1691423Y139880D02*
G54D11*
D03*
X1703726Y241083D02*
G54D10*
D03*
X1767623Y216079D02*
G54D10*
D03*
X1767623Y139880D02*
G54D11*
D03*
X1691423Y139880D02*
G54D11*
D03*
X1703726Y241083D02*
G54D10*
D03*
X1767623Y216079D02*
G54D10*
D03*
X1767623Y139880D02*
G54D11*
D03*
X1691423Y139880D02*
G54D11*
D03*
X1893036Y145436D02*
G54D10*
D03*
X1956932Y120433D02*
G54D10*
D03*
X1893036Y145436D02*
G54D10*
D03*
X1956932Y120432D02*
G54D10*
D03*
X1893036Y145436D02*
G54D10*
D03*
X1956932Y120432D02*
G54D10*
D03*
X1821598Y-43874D02*
G54D10*
D03*
X1885495Y-68877D02*
G54D10*
D03*
X1885495Y-145077D02*
G54D11*
D03*
X1809295Y-145077D02*
G54D11*
D03*
X1821598Y-43874D02*
G54D10*
D03*
X1885495Y-68877D02*
G54D10*
D03*
X1885495Y-145077D02*
G54D11*
D03*
X1809295Y-145077D02*
G54D11*
D03*
X1821598Y-43874D02*
G54D10*
D03*
X1885495Y-68877D02*
G54D10*
D03*
X1885495Y-145077D02*
G54D11*
D03*
X1809295Y-145077D02*
G54D11*
D03*
X1916848Y-233977D02*
G54D10*
D03*
X1980745Y-258980D02*
G54D10*
D03*
X1980745Y-335180D02*
G54D11*
D03*
X1904545Y-335180D02*
G54D11*
D03*
X1916848Y-233977D02*
G54D10*
D03*
X1980745Y-258980D02*
G54D10*
D03*
X1980745Y-335180D02*
G54D11*
D03*
X1904545Y-335180D02*
G54D11*
D03*
X1916848Y-233977D02*
G54D10*
D03*
X1980745Y-258980D02*
G54D10*
D03*
X1980745Y-335180D02*
G54D11*
D03*
X1904545Y-335180D02*
G54D11*
D03*
X1679120Y-233580D02*
G54D10*
D03*
X1743017Y-258583D02*
G54D10*
D03*
X1743017Y-334783D02*
G54D11*
D03*
X1666817Y-334783D02*
G54D11*
D03*
X1679120Y-233580D02*
G54D10*
D03*
X1743017Y-258583D02*
G54D10*
D03*
X1743017Y-334783D02*
G54D11*
D03*
X1666817Y-334783D02*
G54D11*
D03*
X1679120Y-233580D02*
G54D10*
D03*
X1743017Y-258583D02*
G54D10*
D03*
X1743017Y-334783D02*
G54D11*
D03*
X1666817Y-334783D02*
G54D11*
D03*
X4155620Y-232389D02*
G54D10*
D03*
X4219518Y-257392D02*
G54D10*
D03*
X4219518Y-333592D02*
G54D11*
D03*
X4143317Y-333592D02*
G54D11*
D03*
X4155620Y-232389D02*
G54D10*
D03*
X4219518Y-257392D02*
G54D10*
D03*
X4219518Y-333592D02*
G54D11*
D03*
X4143317Y-333592D02*
G54D11*
D03*
X4155620Y-232389D02*
G54D10*
D03*
X4219518Y-257392D02*
G54D10*
D03*
X4219518Y-333592D02*
G54D11*
D03*
X4143317Y-333592D02*
G54D11*
D03*
X4394142Y-232389D02*
G54D10*
D03*
X4458040Y-257392D02*
G54D10*
D03*
X4458040Y-333592D02*
G54D11*
D03*
X4381839Y-333592D02*
G54D11*
D03*
X4394142Y-232389D02*
G54D10*
D03*
X4458040Y-257392D02*
G54D10*
D03*
X4458040Y-333592D02*
G54D11*
D03*
X4381839Y-333592D02*
G54D11*
D03*
X4394142Y-232389D02*
G54D10*
D03*
X4458040Y-257392D02*
G54D10*
D03*
X4458040Y-333592D02*
G54D11*
D03*
X4381839Y-333592D02*
G54D11*
D03*
X4250870Y-41889D02*
G54D10*
D03*
X4314768Y-66892D02*
G54D10*
D03*
X4314768Y-143092D02*
G54D11*
D03*
X4238567Y-143092D02*
G54D11*
D03*
X4250870Y-41889D02*
G54D10*
D03*
X4314768Y-66892D02*
G54D10*
D03*
X4314768Y-143092D02*
G54D11*
D03*
X4238567Y-143092D02*
G54D11*
D03*
X4250870Y-41889D02*
G54D10*
D03*
X4314768Y-66892D02*
G54D10*
D03*
X4314768Y-143092D02*
G54D11*
D03*
X4238567Y-143092D02*
G54D11*
D03*
X3988549Y146570D02*
G54D10*
D03*
X4052447Y121567D02*
G54D10*
D03*
X4052447Y45367D02*
G54D11*
D03*
X3976246Y45367D02*
G54D11*
D03*
X3988549Y146570D02*
G54D10*
D03*
X4052447Y121567D02*
G54D10*
D03*
X4052447Y45367D02*
G54D11*
D03*
X3976246Y45367D02*
G54D11*
D03*
X3988549Y146570D02*
G54D10*
D03*
X4052447Y121567D02*
G54D10*
D03*
X4052447Y45367D02*
G54D11*
D03*
X3976246Y45367D02*
G54D11*
D03*
X4179049Y146570D02*
G54D10*
D03*
X4242947Y121567D02*
G54D10*
D03*
X4179049Y146570D02*
G54D10*
D03*
X4242947Y121567D02*
G54D10*
D03*
X4179049Y146570D02*
G54D10*
D03*
X4242947Y121567D02*
G54D10*
D03*
X4392171Y146570D02*
G54D10*
D03*
X4456069Y121567D02*
G54D10*
D03*
X4456069Y45368D02*
G54D11*
D03*
X4379868Y45368D02*
G54D11*
D03*
X4392171Y146570D02*
G54D10*
D03*
X4456069Y121567D02*
G54D10*
D03*
X4456069Y45368D02*
G54D11*
D03*
X4379868Y45368D02*
G54D11*
D03*
X4392171Y146570D02*
G54D10*
D03*
X4456069Y121567D02*
G54D10*
D03*
X4456069Y45368D02*
G54D11*
D03*
X4379868Y45368D02*
G54D11*
D03*
X4322028Y336776D02*
G54D10*
D03*
X4385927Y311773D02*
G54D10*
D03*
X4385927Y235573D02*
G54D11*
D03*
X4309725Y235573D02*
G54D11*
D03*
X4322028Y336776D02*
G54D10*
D03*
X4385927Y311773D02*
G54D10*
D03*
X4385927Y235573D02*
G54D11*
D03*
X4309725Y235573D02*
G54D11*
D03*
X4322028Y336776D02*
G54D10*
D03*
X4385927Y311773D02*
G54D10*
D03*
X4385927Y235573D02*
G54D11*
D03*
X4309725Y235573D02*
G54D11*
D03*
X4369257Y526086D02*
G54D10*
D03*
X4433156Y501082D02*
G54D10*
D03*
X4433156Y424883D02*
G54D11*
D03*
X4356954Y424883D02*
G54D11*
D03*
X4369257Y526086D02*
G54D10*
D03*
X4433156Y501082D02*
G54D10*
D03*
X4433156Y424883D02*
G54D11*
D03*
X4356954Y424883D02*
G54D11*
D03*
X4369257Y526086D02*
G54D10*
D03*
X4433156Y501082D02*
G54D10*
D03*
X4433156Y424883D02*
G54D11*
D03*
X4356954Y424883D02*
G54D11*
D03*
X3558594Y810876D02*
G54D10*
D03*
X3622491Y785872D02*
G54D10*
D03*
X3622491Y709672D02*
G54D11*
D03*
X3546291Y709672D02*
G54D11*
D03*
X3558594Y810876D02*
G54D10*
D03*
X3622491Y785872D02*
G54D10*
D03*
X3622491Y709672D02*
G54D11*
D03*
X3546291Y709672D02*
G54D11*
D03*
X3749308Y810931D02*
G54D10*
D03*
X3813204Y785928D02*
G54D10*
D03*
X3813204Y709728D02*
G54D11*
D03*
X3737004Y709728D02*
G54D11*
D03*
X3749308Y810931D02*
G54D10*
D03*
X3813204Y785928D02*
G54D10*
D03*
X3813204Y709728D02*
G54D11*
D03*
X3737004Y709728D02*
G54D11*
D03*
X3940021Y810986D02*
G54D10*
D03*
X4003917Y785983D02*
G54D10*
D03*
X4003917Y709783D02*
G54D11*
D03*
X3927717Y709783D02*
G54D11*
D03*
X3940021Y810986D02*
G54D10*
D03*
X4003917Y785983D02*
G54D10*
D03*
X4003917Y709783D02*
G54D11*
D03*
X3927717Y709783D02*
G54D11*
D03*
X4130734Y811042D02*
G54D10*
D03*
X4194629Y786039D02*
G54D10*
D03*
X4194629Y709839D02*
G54D11*
D03*
X4118430Y709839D02*
G54D11*
D03*
X3367882Y810820D02*
G54D10*
D03*
X3431778Y785817D02*
G54D10*
D03*
X3431778Y709617D02*
G54D11*
D03*
X3355578Y709617D02*
G54D11*
D03*
X3367882Y810820D02*
G54D10*
D03*
X3431778Y785817D02*
G54D10*
D03*
X3431778Y709617D02*
G54D11*
D03*
X3355578Y709617D02*
G54D11*
D03*
X3558594Y810876D02*
G54D10*
D03*
X3622491Y785872D02*
G54D10*
D03*
X3622491Y709672D02*
G54D11*
D03*
X3546291Y709672D02*
G54D11*
D03*
X2508802Y810654D02*
G54D10*
D03*
X2572699Y785650D02*
G54D10*
D03*
X2572699Y709451D02*
G54D11*
D03*
X2496499Y709451D02*
G54D11*
D03*
X2508802Y810654D02*
G54D10*
D03*
X2572699Y785650D02*
G54D10*
D03*
X2572699Y709451D02*
G54D11*
D03*
X2496499Y709451D02*
G54D11*
D03*
X2699516Y810709D02*
G54D10*
D03*
X2763412Y785706D02*
G54D10*
D03*
X2763412Y709506D02*
G54D11*
D03*
X2687212Y709506D02*
G54D11*
D03*
X2699516Y810709D02*
G54D10*
D03*
X2763412Y785706D02*
G54D10*
D03*
X2763412Y709506D02*
G54D11*
D03*
X2687212Y709506D02*
G54D11*
D03*
X2890229Y810764D02*
G54D10*
D03*
X2954125Y785762D02*
G54D10*
D03*
X2954125Y709561D02*
G54D11*
D03*
X2877925Y709561D02*
G54D11*
D03*
X2890229Y810764D02*
G54D10*
D03*
X2954125Y785762D02*
G54D10*
D03*
X2954125Y709561D02*
G54D11*
D03*
X2877925Y709561D02*
G54D11*
D03*
X3080942Y810820D02*
G54D10*
D03*
X3144838Y785817D02*
G54D10*
D03*
X3144838Y709617D02*
G54D11*
D03*
X3068638Y709617D02*
G54D11*
D03*
X2318090Y810598D02*
G54D10*
D03*
X2381986Y785595D02*
G54D10*
D03*
X2381986Y709395D02*
G54D11*
D03*
X2305786Y709395D02*
G54D11*
D03*
X2318090Y810598D02*
G54D10*
D03*
X2381986Y785595D02*
G54D10*
D03*
X2381986Y709395D02*
G54D11*
D03*
X2305786Y709395D02*
G54D11*
D03*
X2508802Y810654D02*
G54D10*
D03*
X2572699Y785650D02*
G54D10*
D03*
X2572699Y709450D02*
G54D11*
D03*
X2496499Y709450D02*
G54D11*
D03*
X1320742Y525642D02*
G54D10*
D03*
X1384639Y500639D02*
G54D10*
D03*
X1384639Y424439D02*
G54D11*
D03*
X1308439Y424439D02*
G54D11*
D03*
X1320742Y525642D02*
G54D10*
D03*
X1384639Y500639D02*
G54D10*
D03*
X1384639Y424439D02*
G54D11*
D03*
X1308439Y424439D02*
G54D11*
D03*
X1320742Y525642D02*
G54D10*
D03*
X1384639Y500639D02*
G54D10*
D03*
X1384639Y424439D02*
G54D11*
D03*
X1308439Y424439D02*
G54D11*
D03*
X1034992Y525642D02*
G54D10*
D03*
X1098889Y500639D02*
G54D10*
D03*
X1098889Y424439D02*
G54D11*
D03*
X1022689Y424439D02*
G54D11*
D03*
X1034992Y525642D02*
G54D10*
D03*
X1098889Y500639D02*
G54D10*
D03*
X1098889Y424439D02*
G54D11*
D03*
X1022689Y424439D02*
G54D11*
D03*
X1034992Y525642D02*
G54D10*
D03*
X1098889Y500639D02*
G54D10*
D03*
X1098889Y424439D02*
G54D11*
D03*
X1022689Y424439D02*
G54D11*
D03*
X508426Y527165D02*
G54D10*
D03*
X572323Y502162D02*
G54D10*
D03*
X572323Y425962D02*
G54D11*
D03*
X496123Y425962D02*
G54D11*
D03*
X699140Y527221D02*
G54D10*
D03*
X763036Y502218D02*
G54D10*
D03*
X763036Y426018D02*
G54D11*
D03*
X686836Y426018D02*
G54D11*
D03*
X126816Y527110D02*
G54D10*
D03*
X190713Y502107D02*
G54D10*
D03*
X190713Y425907D02*
G54D11*
D03*
X114513Y425907D02*
G54D11*
D03*
X317530Y527165D02*
G54D10*
D03*
X381426Y502162D02*
G54D10*
D03*
X381426Y425962D02*
G54D11*
D03*
X305226Y425962D02*
G54D11*
D03*
X508030Y338650D02*
G54D10*
D03*
X571926Y313647D02*
G54D10*
D03*
X571926Y237447D02*
G54D11*
D03*
X495726Y237447D02*
G54D11*
D03*
X698742Y338705D02*
G54D10*
D03*
X762639Y313702D02*
G54D10*
D03*
X762639Y237502D02*
G54D11*
D03*
X686439Y237502D02*
G54D11*
D03*
X126419Y338594D02*
G54D10*
D03*
X190316Y313591D02*
G54D10*
D03*
X190316Y237391D02*
G54D11*
D03*
X114116Y237391D02*
G54D11*
D03*
X317132Y338650D02*
G54D10*
D03*
X381029Y313647D02*
G54D10*
D03*
X381029Y237447D02*
G54D11*
D03*
X304829Y237447D02*
G54D11*
D03*
X508426Y149340D02*
G54D10*
D03*
X572323Y124337D02*
G54D10*
D03*
X572323Y48137D02*
G54D11*
D03*
X496123Y48137D02*
G54D11*
D03*
X699140Y149396D02*
G54D10*
D03*
X763036Y124393D02*
G54D10*
D03*
X763036Y48193D02*
G54D11*
D03*
X686836Y48193D02*
G54D11*
D03*
X126816Y149285D02*
G54D10*
D03*
X190713Y124282D02*
G54D10*
D03*
X190713Y48082D02*
G54D11*
D03*
X114513Y48082D02*
G54D11*
D03*
X317530Y149340D02*
G54D10*
D03*
X381426Y124337D02*
G54D10*
D03*
X381426Y48137D02*
G54D11*
D03*
X305226Y48137D02*
G54D11*
D03*
X508426Y-41953D02*
G54D10*
D03*
X572323Y-66956D02*
G54D10*
D03*
X572323Y-143156D02*
G54D11*
D03*
X496123Y-143156D02*
G54D11*
D03*
X699140Y-41898D02*
G54D10*
D03*
X763036Y-66901D02*
G54D10*
D03*
X763036Y-143101D02*
G54D11*
D03*
X686836Y-143101D02*
G54D11*
D03*
X317530Y-41953D02*
G54D10*
D03*
X381426Y-66956D02*
G54D10*
D03*
X381426Y-143156D02*
G54D11*
D03*
X305226Y-143156D02*
G54D11*
D03*
X1178351Y-43144D02*
G54D10*
D03*
X1242248Y-68147D02*
G54D10*
D03*
X1242248Y-144347D02*
G54D11*
D03*
X1166048Y-144347D02*
G54D11*
D03*
X1369065Y-43089D02*
G54D10*
D03*
X1432961Y-68092D02*
G54D10*
D03*
X1432961Y-144292D02*
G54D11*
D03*
X1356761Y-144292D02*
G54D11*
D03*
X987454Y-43144D02*
G54D10*
D03*
X1051351Y-68147D02*
G54D10*
D03*
X1051351Y-144347D02*
G54D11*
D03*
X975151Y-144347D02*
G54D11*
D03*
X603986Y-232389D02*
G54D10*
D03*
X667883Y-257392D02*
G54D10*
D03*
X667883Y-333592D02*
G54D11*
D03*
X591683Y-333592D02*
G54D11*
D03*
X603986Y-232389D02*
G54D10*
D03*
X667883Y-257392D02*
G54D10*
D03*
X667883Y-333592D02*
G54D11*
D03*
X591683Y-333592D02*
G54D11*
D03*
X603986Y-232389D02*
G54D10*
D03*
X667883Y-257392D02*
G54D10*
D03*
X667883Y-333592D02*
G54D11*
D03*
X591683Y-333592D02*
G54D11*
D03*
X317839Y-231596D02*
G54D10*
D03*
X381736Y-256599D02*
G54D10*
D03*
X381736Y-332799D02*
G54D11*
D03*
X305536Y-332799D02*
G54D11*
D03*
X317839Y-231596D02*
G54D10*
D03*
X381736Y-256599D02*
G54D10*
D03*
X381736Y-332799D02*
G54D11*
D03*
X305536Y-332799D02*
G54D11*
D03*
X317839Y-231596D02*
G54D10*
D03*
X381736Y-256599D02*
G54D10*
D03*
X381736Y-332799D02*
G54D11*
D03*
X305536Y-332799D02*
G54D11*
D03*
X126545Y-136742D02*
G54D10*
D03*
X190442Y-161746D02*
G54D10*
D03*
X190442Y-237946D02*
G54D11*
D03*
X114242Y-237946D02*
G54D11*
D03*
X126545Y-136742D02*
G54D10*
D03*
X190442Y-161746D02*
G54D10*
D03*
X190442Y-237946D02*
G54D11*
D03*
X114242Y-237946D02*
G54D11*
D03*
X126545Y-136742D02*
G54D10*
D03*
X190442Y-161746D02*
G54D10*
D03*
X190442Y-237946D02*
G54D11*
D03*
X114242Y-237946D02*
G54D11*
D03*
X1177867Y146230D02*
G54D10*
D03*
X1241764Y121226D02*
G54D10*
D03*
X1241764Y45026D02*
G54D11*
D03*
X1165564Y45026D02*
G54D11*
D03*
X1177867Y146230D02*
G54D10*
D03*
X1241764Y121226D02*
G54D10*
D03*
X1241764Y45026D02*
G54D11*
D03*
X1165564Y45026D02*
G54D11*
D03*
X1177867Y146230D02*
G54D10*
D03*
X1241764Y121226D02*
G54D10*
D03*
X1241764Y45026D02*
G54D11*
D03*
X1165564Y45026D02*
G54D11*
D03*
X4415176Y810995D02*
G54D10*
D03*
X4479073Y785992D02*
G54D10*
D03*
X4479073Y709792D02*
G54D11*
D03*
X4402873Y709792D02*
G54D11*
D03*
X4415176Y810995D02*
G54D10*
D03*
X4479073Y785992D02*
G54D10*
D03*
X4479073Y709792D02*
G54D11*
D03*
X4402873Y709792D02*
G54D11*
D03*
X4415176Y810995D02*
G54D10*
D03*
X4479073Y785992D02*
G54D10*
D03*
X4479073Y709792D02*
G54D11*
D03*
X4402873Y709792D02*
G54D11*
D03*
G36*
X1432228Y841568D02*
X1455228Y841568D01*
X1455228Y818568D01*
X1432228Y818568D01*
X1432228Y841568D01*
G37*
G36*
X1457628Y841568D02*
X1480628Y841568D01*
X1480628Y818568D01*
X1457628Y818568D01*
X1457628Y841568D01*
G37*
G36*
X1483028Y841568D02*
X1506028Y841568D01*
X1506028Y818568D01*
X1483028Y818568D01*
X1483028Y841568D01*
G37*
G36*
X1508428Y841568D02*
X1531428Y841568D01*
X1531428Y818568D01*
X1508428Y818568D01*
X1508428Y841568D01*
G37*
G36*
X1533828Y841568D02*
X1556828Y841568D01*
X1556828Y818568D01*
X1533828Y818568D01*
X1533828Y841568D01*
G37*
G36*
X1559228Y841568D02*
X1582228Y841568D01*
X1582228Y818568D01*
X1559228Y818568D01*
X1559228Y841568D01*
G37*
G36*
X1584628Y841568D02*
X1607628Y841568D01*
X1607628Y818568D01*
X1584628Y818568D01*
X1584628Y841568D01*
G37*
G36*
X1610028Y841568D02*
X1633028Y841568D01*
X1633028Y818568D01*
X1610028Y818568D01*
X1610028Y841568D01*
G37*
G36*
X1635428Y841568D02*
X1658428Y841568D01*
X1658428Y818568D01*
X1635428Y818568D01*
X1635428Y841568D01*
G37*
G36*
X1660828Y841568D02*
X1683828Y841568D01*
X1683828Y818568D01*
X1660828Y818568D01*
X1660828Y841568D01*
G37*
G36*
X1686228Y841568D02*
X1709228Y841568D01*
X1709228Y818568D01*
X1686228Y818568D01*
X1686228Y841568D01*
G37*
G36*
X1711628Y841568D02*
X1734628Y841568D01*
X1734628Y818568D01*
X1711628Y818568D01*
X1711628Y841568D01*
G37*
G36*
X1737028Y841568D02*
X1760028Y841568D01*
X1760028Y818568D01*
X1737028Y818568D01*
X1737028Y841568D01*
G37*
G36*
X1762428Y841568D02*
X1785428Y841568D01*
X1785428Y818568D01*
X1762428Y818568D01*
X1762428Y841568D01*
G37*
G36*
X1787828Y841568D02*
X1810828Y841568D01*
X1810828Y818568D01*
X1787828Y818568D01*
X1787828Y841568D01*
G37*
G36*
X1813228Y841568D02*
X1836228Y841568D01*
X1836228Y818568D01*
X1813228Y818568D01*
X1813228Y841568D01*
G37*
G36*
X1838628Y841568D02*
X1861628Y841568D01*
X1861628Y818568D01*
X1838628Y818568D01*
X1838628Y841568D01*
G37*
G36*
X1864028Y841568D02*
X1887028Y841568D01*
X1887028Y818568D01*
X1864028Y818568D01*
X1864028Y841568D01*
G37*
G36*
X1889428Y841568D02*
X1912428Y841568D01*
X1912428Y818568D01*
X1889428Y818568D01*
X1889428Y841568D01*
G37*
G36*
X1914828Y689168D02*
X1937828Y689168D01*
X1937828Y666168D01*
X1914828Y666168D01*
X1914828Y689168D01*
G37*
G36*
X1889428Y689168D02*
X1912428Y689168D01*
X1912428Y666168D01*
X1889428Y666168D01*
X1889428Y689168D01*
G37*
G36*
X1864028Y689168D02*
X1887028Y689168D01*
X1887028Y666168D01*
X1864028Y666168D01*
X1864028Y689168D01*
G37*
G36*
X1838628Y689168D02*
X1861628Y689168D01*
X1861628Y666168D01*
X1838628Y666168D01*
X1838628Y689168D01*
G37*
G36*
X1813228Y689168D02*
X1836228Y689168D01*
X1836228Y666168D01*
X1813228Y666168D01*
X1813228Y689168D01*
G37*
G36*
X1787828Y689168D02*
X1810828Y689168D01*
X1810828Y666168D01*
X1787828Y666168D01*
X1787828Y689168D01*
G37*
G36*
X1762428Y689168D02*
X1785428Y689168D01*
X1785428Y666168D01*
X1762428Y666168D01*
X1762428Y689168D01*
G37*
G36*
X1737028Y689168D02*
X1760028Y689168D01*
X1760028Y666168D01*
X1737028Y666168D01*
X1737028Y689168D01*
G37*
G36*
X1711628Y689168D02*
X1734628Y689168D01*
X1734628Y666168D01*
X1711628Y666168D01*
X1711628Y689168D01*
G37*
G36*
X1686228Y689168D02*
X1709228Y689168D01*
X1709228Y666168D01*
X1686228Y666168D01*
X1686228Y689168D01*
G37*
G36*
X1660828Y689168D02*
X1683828Y689168D01*
X1683828Y666168D01*
X1660828Y666168D01*
X1660828Y689168D01*
G37*
G36*
X1635428Y689168D02*
X1658428Y689168D01*
X1658428Y666168D01*
X1635428Y666168D01*
X1635428Y689168D01*
G37*
G36*
X1610028Y689168D02*
X1633028Y689168D01*
X1633028Y666168D01*
X1610028Y666168D01*
X1610028Y689168D01*
G37*
G36*
X1584628Y689168D02*
X1607628Y689168D01*
X1607628Y666168D01*
X1584628Y666168D01*
X1584628Y689168D01*
G37*
G36*
X1559228Y689168D02*
X1582228Y689168D01*
X1582228Y666168D01*
X1559228Y666168D01*
X1559228Y689168D01*
G37*
G36*
X1533828Y689168D02*
X1556828Y689168D01*
X1556828Y666168D01*
X1533828Y666168D01*
X1533828Y689168D01*
G37*
G36*
X1508428Y689168D02*
X1531428Y689168D01*
X1531428Y666168D01*
X1508428Y666168D01*
X1508428Y689168D01*
G37*
G36*
X1483028Y689168D02*
X1506028Y689168D01*
X1506028Y666168D01*
X1483028Y666168D01*
X1483028Y689168D01*
G37*
G36*
X1457628Y689168D02*
X1480628Y689168D01*
X1480628Y666168D01*
X1457628Y666168D01*
X1457628Y689168D01*
G37*
G36*
X1914828Y841568D02*
X1937828Y841568D01*
X1937828Y818568D01*
X1914828Y818568D01*
X1914828Y841568D01*
G37*
G36*
X1432228Y689168D02*
X1455228Y689168D01*
X1455228Y666168D01*
X1432228Y666168D01*
X1432228Y689168D01*
G37*
X1775818Y860226D02*
G54D12*
D03*
X1673424Y860226D02*
G54D12*
D03*
X1604765Y893564D02*
G54D12*
D03*
X1502371Y893564D02*
G54D12*
D03*
X1502371Y866973D02*
G54D12*
D03*
X1604765Y866973D02*
G54D12*
D03*
X1267818Y790376D02*
G54D12*
D03*
X1242418Y790376D02*
G54D12*
D03*
X1217018Y790376D02*
G54D12*
D03*
X1267818Y687982D02*
G54D12*
D03*
X1242418Y664170D02*
G54D12*
D03*
X1216224Y640754D02*
G54D12*
D03*
X2106414Y739973D02*
G54D13*
D03*
X2081014Y739973D02*
G54D13*
D03*
X2055614Y739973D02*
G54D13*
D03*
X2182614Y739973D02*
G54D13*
D03*
X2157214Y739973D02*
G54D13*
D03*
X1445618Y525660D02*
G54D12*
D03*
X1445618Y423266D02*
G54D12*
D03*
X1471018Y525660D02*
G54D12*
D03*
X1471018Y423266D02*
G54D12*
D03*
X1496020Y525660D02*
G54D12*
D03*
X1496021Y423266D02*
G54D12*
D03*
X1217018Y526851D02*
G54D12*
D03*
X1217018Y424457D02*
G54D12*
D03*
X1370211Y323254D02*
G54D12*
D03*
X1370212Y220860D02*
G54D12*
D03*
X1395611Y323254D02*
G54D12*
D03*
X1395612Y220860D02*
G54D12*
D03*
X1395611Y323254D02*
G54D12*
D03*
X1395612Y220860D02*
G54D12*
D03*
X1421011Y323254D02*
G54D12*
D03*
X1421012Y220860D02*
G54D12*
D03*
X1421011Y323254D02*
G54D12*
D03*
X1421012Y220860D02*
G54D12*
D03*
X1446411Y323254D02*
G54D12*
D03*
X1446412Y220860D02*
G54D12*
D03*
X1446411Y323254D02*
G54D12*
D03*
X1446412Y220860D02*
G54D12*
D03*
X1471811Y323254D02*
G54D12*
D03*
X1471812Y220860D02*
G54D12*
D03*
X1471811Y323254D02*
G54D12*
D03*
X1471812Y220860D02*
G54D12*
D03*
X1497211Y323254D02*
G54D12*
D03*
X1497212Y220860D02*
G54D12*
D03*
X1332112Y323651D02*
G54D12*
D03*
X1229718Y323651D02*
G54D12*
D03*
X1332509Y298251D02*
G54D12*
D03*
X1230115Y298251D02*
G54D12*
D03*
X1571824Y651867D02*
G54D12*
D03*
X1469430Y651866D02*
G54D12*
D03*
X1419822Y645120D02*
G54D12*
D03*
X1317428Y645119D02*
G54D12*
D03*
X731244Y691554D02*
G54D12*
D03*
X628849Y691554D02*
G54D12*
D03*
X731244Y666154D02*
G54D12*
D03*
X628849Y666154D02*
G54D12*
D03*
X731244Y640754D02*
G54D12*
D03*
X628849Y640754D02*
G54D12*
D03*
X527646Y730448D02*
G54D12*
D03*
X528043Y641151D02*
G54D12*
D03*
X553046Y730845D02*
G54D12*
D03*
X553443Y641548D02*
G54D12*
D03*
X119658Y681235D02*
G54D12*
D03*
X170458Y681235D02*
G54D12*
D03*
X4109443Y44648D02*
G54D12*
D03*
X4109840Y146248D02*
G54D12*
D03*
X4191993Y44251D02*
G54D12*
D03*
X4217393Y44251D02*
G54D12*
D03*
G36*
X1970277Y916176D02*
X1970277Y893176D01*
X1947277Y893176D01*
X1947277Y916176D01*
X1970277Y916176D01*
G37*
G36*
X1971071Y890776D02*
X1971071Y867776D01*
X1948071Y867776D01*
X1948071Y890776D01*
X1971071Y890776D01*
G37*
X2535790Y936066D02*
G54D10*
D03*
X2586590Y936066D02*
G54D10*
D03*
G36*
X1331025Y916974D02*
X1354025Y916974D01*
X1354025Y893974D01*
X1331025Y893974D01*
X1331025Y916974D01*
G37*
G36*
X1331025Y865778D02*
X1354025Y865778D01*
X1354025Y842778D01*
X1331025Y842778D01*
X1331025Y865778D01*
G37*
G36*
X1379822Y930071D02*
X1379822Y907071D01*
X1356822Y907071D01*
X1356822Y930071D01*
X1379822Y930071D01*
G37*
G36*
X1379822Y904671D02*
X1379822Y881671D01*
X1356822Y881671D01*
X1356822Y904671D01*
X1379822Y904671D01*
G37*
G36*
X1379822Y879271D02*
X1379822Y856271D01*
X1356822Y856271D01*
X1356822Y879271D01*
X1379822Y879271D01*
G37*
G36*
X1379822Y853871D02*
X1379822Y830871D01*
X1356822Y830871D01*
X1356822Y853871D01*
X1379822Y853871D01*
G37*
G36*
X1432228Y904671D02*
X1455228Y904671D01*
X1455228Y881671D01*
X1432228Y881671D01*
X1432228Y904671D01*
G37*
G36*
X1457628Y904671D02*
X1480628Y904671D01*
X1480628Y881671D01*
X1457628Y881671D01*
X1457628Y904671D01*
G37*
G36*
X821438Y842362D02*
X844438Y842362D01*
X844438Y819362D01*
X821438Y819362D01*
X821438Y842362D01*
G37*
G36*
X846838Y842362D02*
X869838Y842362D01*
X869838Y819362D01*
X846838Y819362D01*
X846838Y842362D01*
G37*
G36*
X872238Y842362D02*
X895238Y842362D01*
X895238Y819362D01*
X872238Y819362D01*
X872238Y842362D01*
G37*
G36*
X897637Y842362D02*
X920637Y842362D01*
X920637Y819362D01*
X897637Y819362D01*
X897637Y842362D01*
G37*
G36*
X923037Y842362D02*
X946037Y842362D01*
X946037Y819362D01*
X923037Y819362D01*
X923037Y842362D01*
G37*
G36*
X948437Y842362D02*
X971437Y842362D01*
X971437Y819362D01*
X948437Y819362D01*
X948437Y842362D01*
G37*
G36*
X973837Y842362D02*
X996837Y842362D01*
X996837Y819362D01*
X973837Y819362D01*
X973837Y842362D01*
G37*
G36*
X999237Y842362D02*
X1022237Y842362D01*
X1022237Y819362D01*
X999237Y819362D01*
X999237Y842362D01*
G37*
G36*
X1024637Y842362D02*
X1047637Y842362D01*
X1047637Y819362D01*
X1024637Y819362D01*
X1024637Y842362D01*
G37*
G36*
X1050037Y842362D02*
X1073037Y842362D01*
X1073037Y819362D01*
X1050037Y819362D01*
X1050037Y842362D01*
G37*
G36*
X821438Y766162D02*
X844438Y766162D01*
X844438Y743162D01*
X821438Y743162D01*
X821438Y766162D01*
G37*
G36*
X846838Y766162D02*
X869838Y766162D01*
X869838Y743162D01*
X846838Y743162D01*
X846838Y766162D01*
G37*
G36*
X872238Y766162D02*
X895238Y766162D01*
X895238Y743162D01*
X872238Y743162D01*
X872238Y766162D01*
G37*
G36*
X897637Y766162D02*
X920637Y766162D01*
X920637Y743162D01*
X897637Y743162D01*
X897637Y766162D01*
G37*
G36*
X923037Y766162D02*
X946037Y766162D01*
X946037Y743162D01*
X923037Y743162D01*
X923037Y766162D01*
G37*
G36*
X948437Y766162D02*
X971437Y766162D01*
X971437Y743162D01*
X948437Y743162D01*
X948437Y766162D01*
G37*
G36*
X973837Y766162D02*
X996837Y766162D01*
X996837Y743162D01*
X973837Y743162D01*
X973837Y766162D01*
G37*
G36*
X999237Y766162D02*
X1022237Y766162D01*
X1022237Y743162D01*
X999237Y743162D01*
X999237Y766162D01*
G37*
G36*
X1024637Y766162D02*
X1047637Y766162D01*
X1047637Y743162D01*
X1024637Y743162D01*
X1024637Y766162D01*
G37*
G36*
X1050037Y766162D02*
X1073037Y766162D01*
X1073037Y743162D01*
X1050037Y743162D01*
X1050037Y766162D01*
G37*
G36*
X490840Y855856D02*
X513840Y855856D01*
X513840Y832856D01*
X490840Y832856D01*
X490840Y855856D01*
G37*
G36*
X516240Y855856D02*
X539240Y855856D01*
X539240Y832856D01*
X516240Y832856D01*
X516240Y855856D01*
G37*
G36*
X541640Y855856D02*
X564640Y855856D01*
X564640Y832856D01*
X541640Y832856D01*
X541640Y855856D01*
G37*
G36*
X567040Y855856D02*
X590040Y855856D01*
X590040Y832856D01*
X567040Y832856D01*
X567040Y855856D01*
G37*
G36*
X592440Y855856D02*
X615440Y855856D01*
X615440Y832856D01*
X592440Y832856D01*
X592440Y855856D01*
G37*
G36*
X617840Y855856D02*
X640840Y855856D01*
X640840Y832856D01*
X617840Y832856D01*
X617840Y855856D01*
G37*
G36*
X643240Y855856D02*
X666240Y855856D01*
X666240Y832856D01*
X643240Y832856D01*
X643240Y855856D01*
G37*
G36*
X668640Y855856D02*
X691640Y855856D01*
X691640Y832856D01*
X668640Y832856D01*
X668640Y855856D01*
G37*
G36*
X694040Y855856D02*
X717040Y855856D01*
X717040Y832856D01*
X694040Y832856D01*
X694040Y855856D01*
G37*
G36*
X719440Y855856D02*
X742440Y855856D01*
X742440Y832856D01*
X719440Y832856D01*
X719440Y855856D01*
G37*
G36*
X490840Y779656D02*
X513840Y779656D01*
X513840Y756656D01*
X490840Y756656D01*
X490840Y779656D01*
G37*
G36*
X516240Y779656D02*
X539240Y779656D01*
X539240Y756656D01*
X516240Y756656D01*
X516240Y779656D01*
G37*
G36*
X541640Y779656D02*
X564640Y779656D01*
X564640Y756656D01*
X541640Y756656D01*
X541640Y779656D01*
G37*
G36*
X567040Y779656D02*
X590040Y779656D01*
X590040Y756656D01*
X567040Y756656D01*
X567040Y779656D01*
G37*
G36*
X592440Y779656D02*
X615440Y779656D01*
X615440Y756656D01*
X592440Y756656D01*
X592440Y779656D01*
G37*
G36*
X617840Y779656D02*
X640840Y779656D01*
X640840Y756656D01*
X617840Y756656D01*
X617840Y779656D01*
G37*
G36*
X643240Y779656D02*
X666240Y779656D01*
X666240Y756656D01*
X643240Y756656D01*
X643240Y779656D01*
G37*
G36*
X668640Y779656D02*
X691640Y779656D01*
X691640Y756656D01*
X668640Y756656D01*
X668640Y779656D01*
G37*
G36*
X694040Y779656D02*
X717040Y779656D01*
X717040Y756656D01*
X694040Y756656D01*
X694040Y779656D01*
G37*
G36*
X719440Y779656D02*
X742440Y779656D01*
X742440Y756656D01*
X719440Y756656D01*
X719440Y779656D01*
G37*
G36*
X93966Y882446D02*
X116966Y882446D01*
X116966Y859446D01*
X93966Y859446D01*
X93966Y882446D01*
G37*
G36*
X119366Y882446D02*
X142366Y882446D01*
X142366Y859446D01*
X119366Y859446D01*
X119366Y882446D01*
G37*
G36*
X144766Y882446D02*
X167766Y882446D01*
X167766Y859446D01*
X144766Y859446D01*
X144766Y882446D01*
G37*
G36*
X170165Y882446D02*
X193165Y882446D01*
X193165Y859446D01*
X170165Y859446D01*
X170165Y882446D01*
G37*
G36*
X195565Y882446D02*
X218565Y882446D01*
X218565Y859446D01*
X195565Y859446D01*
X195565Y882446D01*
G37*
G36*
X220965Y882446D02*
X243965Y882446D01*
X243965Y859446D01*
X220965Y859446D01*
X220965Y882446D01*
G37*
G36*
X246365Y882446D02*
X269365Y882446D01*
X269365Y859446D01*
X246365Y859446D01*
X246365Y882446D01*
G37*
G36*
X271765Y882446D02*
X294765Y882446D01*
X294765Y859446D01*
X271765Y859446D01*
X271765Y882446D01*
G37*
G36*
X297165Y882446D02*
X320165Y882446D01*
X320165Y859446D01*
X297165Y859446D01*
X297165Y882446D01*
G37*
G36*
X322565Y882446D02*
X345565Y882446D01*
X345565Y859446D01*
X322565Y859446D01*
X322565Y882446D01*
G37*
G36*
X322565Y882446D02*
X345565Y882446D01*
X345565Y859446D01*
X322565Y859446D01*
X322565Y882446D01*
G37*
G36*
X347965Y882446D02*
X370965Y882446D01*
X370965Y859446D01*
X347965Y859446D01*
X347965Y882446D01*
G37*
G36*
X373365Y882446D02*
X396365Y882446D01*
X396365Y859446D01*
X373365Y859446D01*
X373365Y882446D01*
G37*
G36*
X95156Y730443D02*
X118156Y730443D01*
X118156Y707443D01*
X95156Y707443D01*
X95156Y730443D01*
G37*
G36*
X120556Y730443D02*
X143556Y730443D01*
X143556Y707443D01*
X120556Y707443D01*
X120556Y730443D01*
G37*
G36*
X145956Y730443D02*
X168956Y730443D01*
X168956Y707443D01*
X145956Y707443D01*
X145956Y730443D01*
G37*
G36*
X171356Y730443D02*
X194356Y730443D01*
X194356Y707443D01*
X171356Y707443D01*
X171356Y730443D01*
G37*
G36*
X196756Y730443D02*
X219756Y730443D01*
X219756Y707443D01*
X196756Y707443D01*
X196756Y730443D01*
G37*
G36*
X222156Y730443D02*
X245156Y730443D01*
X245156Y707443D01*
X222156Y707443D01*
X222156Y730443D01*
G37*
G36*
X247556Y730443D02*
X270556Y730443D01*
X270556Y707443D01*
X247556Y707443D01*
X247556Y730443D01*
G37*
G36*
X272956Y730443D02*
X295956Y730443D01*
X295956Y707443D01*
X272956Y707443D01*
X272956Y730443D01*
G37*
G36*
X298356Y730443D02*
X321356Y730443D01*
X321356Y707443D01*
X298356Y707443D01*
X298356Y730443D01*
G37*
G36*
X323756Y730443D02*
X346756Y730443D01*
X346756Y707443D01*
X323756Y707443D01*
X323756Y730443D01*
G37*
G36*
X323756Y730443D02*
X346756Y730443D01*
X346756Y707443D01*
X323756Y707443D01*
X323756Y730443D01*
G37*
G36*
X349156Y730443D02*
X372156Y730443D01*
X372156Y707443D01*
X349156Y707443D01*
X349156Y730443D01*
G37*
G36*
X374556Y730443D02*
X397556Y730443D01*
X397556Y707443D01*
X374556Y707443D01*
X374556Y730443D01*
G37*
X1368227Y677266D02*
G54D12*
D03*
X1419027Y677266D02*
G54D12*
D03*
G36*
X1966818Y826487D02*
X1989818Y826487D01*
X1989818Y803487D01*
X1966818Y803487D01*
X1966818Y826487D01*
G37*
X2003718Y814987D02*
G54D12*
D03*
M02*
