%FSLAX34Y34*%
%MOMM*%
%LNCOPPER_TOP*%
G71*
G01*
%ADD10C,0.300*%
%ADD11C,3.000*%
%ADD12C,2.200*%
%ADD13C,1.700*%
%ADD14C,1.700*%
%ADD15C,2.000*%
%ADD16C,2.000*%
%ADD17C,1.000*%
%ADD18C,1.200*%
%ADD19C,0.500*%
%LPD*%
G36*
X0Y1000000D02*
X4650000Y1000000D01*
X4650000Y-550000D01*
X0Y-550000D01*
X0Y1000000D01*
G37*
%LPC*%
G36*
X4620816Y-513953D02*
X0Y-513953D01*
X0Y1000125D01*
X4620816Y1000125D01*
X4620816Y-513953D01*
G37*
G54D10*
X4620816Y-513953D02*
X0Y-513953D01*
X0Y1000125D01*
X4620816Y1000125D01*
X4620816Y-513953D01*
%LPD*%
X3129756Y-43255D02*
G54D11*
D03*
X3193653Y-68258D02*
G54D11*
D03*
X3193653Y-144458D02*
G54D12*
D03*
X3117453Y-144458D02*
G54D12*
D03*
G54D10*
X3193653Y-144458D02*
X3193653Y-144062D01*
X3188096Y-138505D01*
X3188096Y-73815D01*
X3193653Y-68258D01*
X3320470Y-43199D02*
G54D11*
D03*
X3384366Y-68203D02*
G54D11*
D03*
X3384366Y-144402D02*
G54D12*
D03*
X3308166Y-144402D02*
G54D12*
D03*
G54D10*
X3384366Y-144402D02*
X3384366Y-144006D01*
X3378810Y-138450D01*
X3378810Y-73759D01*
X3384366Y-68203D01*
X3320470Y-43199D02*
G54D11*
D03*
X3384366Y-68203D02*
G54D11*
D03*
X3384366Y-144402D02*
G54D12*
D03*
X3308166Y-144402D02*
G54D12*
D03*
G54D10*
X3384366Y-144402D02*
X3384366Y-144007D01*
X3378810Y-138450D01*
X3378810Y-73759D01*
X3384366Y-68203D01*
X3511182Y-43144D02*
G54D11*
D03*
X3575079Y-68147D02*
G54D11*
D03*
X3575079Y-144347D02*
G54D12*
D03*
X3498879Y-144347D02*
G54D12*
D03*
G54D10*
X3575079Y-144347D02*
X3575079Y-143951D01*
X3569523Y-138394D01*
X3569523Y-73704D01*
X3575079Y-68147D01*
X3511182Y-43144D02*
G54D11*
D03*
X3575079Y-68147D02*
G54D11*
D03*
X3575079Y-144347D02*
G54D12*
D03*
X3498879Y-144347D02*
G54D12*
D03*
G54D10*
X3575079Y-144347D02*
X3575079Y-143951D01*
X3569523Y-138394D01*
X3569523Y-73704D01*
X3575079Y-68147D01*
X3701896Y-43089D02*
G54D11*
D03*
X3765792Y-68092D02*
G54D11*
D03*
X3765792Y-144292D02*
G54D12*
D03*
X3689592Y-144292D02*
G54D12*
D03*
G54D10*
X3765792Y-144292D02*
X3765792Y-143896D01*
X3760236Y-138339D01*
X3760236Y-73648D01*
X3765792Y-68092D01*
X3701896Y-43089D02*
G54D11*
D03*
X3765792Y-68092D02*
G54D11*
D03*
X3765792Y-144292D02*
G54D12*
D03*
X3689592Y-144292D02*
G54D12*
D03*
G54D10*
X3765792Y-144292D02*
X3765792Y-143896D01*
X3760236Y-138339D01*
X3760236Y-73648D01*
X3765792Y-68092D01*
X3892609Y-43033D02*
G54D11*
D03*
X3956505Y-68036D02*
G54D11*
D03*
X3956505Y-144236D02*
G54D12*
D03*
X3880305Y-144236D02*
G54D12*
D03*
G54D10*
X3956505Y-144236D02*
X3956505Y-143840D01*
X3950949Y-138284D01*
X3950949Y-73593D01*
X3956505Y-68036D01*
X3129756Y-43255D02*
G54D11*
D03*
X3193653Y-68258D02*
G54D11*
D03*
X3193653Y-144458D02*
G54D12*
D03*
X3117453Y-144458D02*
G54D12*
D03*
G54D10*
X3193653Y-144458D02*
X3193653Y-144062D01*
X3188096Y-138505D01*
X3188096Y-73815D01*
X3193653Y-68258D01*
X3129756Y-43255D02*
G54D11*
D03*
X3193653Y-68258D02*
G54D11*
D03*
X3193653Y-144458D02*
G54D12*
D03*
X3117453Y-144458D02*
G54D12*
D03*
G54D10*
X3193653Y-144458D02*
X3193653Y-144062D01*
X3188096Y-138506D01*
X3188096Y-73815D01*
X3193653Y-68258D01*
X3320470Y-43200D02*
G54D11*
D03*
X3384366Y-68203D02*
G54D11*
D03*
X3384366Y-144403D02*
G54D12*
D03*
X3308166Y-144403D02*
G54D12*
D03*
G54D10*
X3384366Y-144403D02*
X3384366Y-144007D01*
X3378810Y-138450D01*
X3378810Y-73759D01*
X3384366Y-68203D01*
X2178786Y-45064D02*
G54D11*
D03*
X2242682Y-70067D02*
G54D11*
D03*
X2242682Y-146267D02*
G54D12*
D03*
X2166482Y-146267D02*
G54D12*
D03*
G54D10*
X2242682Y-146267D02*
X2242682Y-145872D01*
X2237126Y-140315D01*
X2237126Y-75624D01*
X2242682Y-70067D01*
X2369499Y-45009D02*
G54D11*
D03*
X2433396Y-70012D02*
G54D11*
D03*
X2433396Y-146212D02*
G54D12*
D03*
X2357196Y-146212D02*
G54D12*
D03*
G54D10*
X2433396Y-146212D02*
X2433396Y-145816D01*
X2427839Y-140259D01*
X2427839Y-75569D01*
X2433396Y-70012D01*
X2369499Y-45009D02*
G54D11*
D03*
X2433396Y-70012D02*
G54D11*
D03*
X2433396Y-146212D02*
G54D12*
D03*
X2357196Y-146212D02*
G54D12*
D03*
G54D10*
X2433396Y-146212D02*
X2433396Y-145816D01*
X2427839Y-140259D01*
X2427839Y-75569D01*
X2433396Y-70012D01*
X2560212Y-44953D02*
G54D11*
D03*
X2624108Y-69956D02*
G54D11*
D03*
X2624108Y-146156D02*
G54D12*
D03*
X2547908Y-146156D02*
G54D12*
D03*
G54D10*
X2624108Y-146156D02*
X2624108Y-145760D01*
X2618552Y-140204D01*
X2618552Y-75513D01*
X2624108Y-69956D01*
X2560212Y-44953D02*
G54D11*
D03*
X2624108Y-69956D02*
G54D11*
D03*
X2624108Y-146156D02*
G54D12*
D03*
X2547908Y-146156D02*
G54D12*
D03*
G54D10*
X2624108Y-146156D02*
X2624108Y-145761D01*
X2618552Y-140204D01*
X2618552Y-75513D01*
X2624108Y-69956D01*
X2750925Y-44898D02*
G54D11*
D03*
X2814822Y-69901D02*
G54D11*
D03*
X2814822Y-146101D02*
G54D12*
D03*
X2738622Y-146101D02*
G54D12*
D03*
G54D10*
X2814822Y-146101D02*
X2814822Y-145705D01*
X2809265Y-140148D01*
X2809265Y-75458D01*
X2814822Y-69901D01*
X2750925Y-44898D02*
G54D11*
D03*
X2814822Y-69901D02*
G54D11*
D03*
X2814822Y-146101D02*
G54D12*
D03*
X2738622Y-146101D02*
G54D12*
D03*
G54D10*
X2814822Y-146101D02*
X2814822Y-145705D01*
X2809265Y-140148D01*
X2809265Y-75458D01*
X2814822Y-69901D01*
X2941638Y-44842D02*
G54D11*
D03*
X3005534Y-69846D02*
G54D11*
D03*
X3005534Y-146046D02*
G54D12*
D03*
X2929334Y-146046D02*
G54D12*
D03*
G54D10*
X3005534Y-146046D02*
X3005534Y-145650D01*
X2999978Y-140093D01*
X2999978Y-75402D01*
X3005534Y-69846D01*
X2178786Y-45064D02*
G54D11*
D03*
X2242682Y-70068D02*
G54D11*
D03*
X2242682Y-146267D02*
G54D12*
D03*
X2166482Y-146267D02*
G54D12*
D03*
G54D10*
X2242682Y-146267D02*
X2242682Y-145871D01*
X2237126Y-140315D01*
X2237126Y-75624D01*
X2242682Y-70068D01*
X2178786Y-45064D02*
G54D11*
D03*
X2242682Y-70068D02*
G54D11*
D03*
X2242682Y-146267D02*
G54D12*
D03*
X2166482Y-146267D02*
G54D12*
D03*
G54D10*
X2242682Y-146267D02*
X2242682Y-145872D01*
X2237126Y-140315D01*
X2237126Y-75624D01*
X2242682Y-70068D01*
X2369499Y-45009D02*
G54D11*
D03*
X2433396Y-70012D02*
G54D11*
D03*
X2433396Y-146212D02*
G54D12*
D03*
X2357196Y-146212D02*
G54D12*
D03*
G54D10*
X2433396Y-146212D02*
X2433396Y-145816D01*
X2427839Y-140259D01*
X2427839Y-75569D01*
X2433396Y-70012D01*
X3034052Y-234770D02*
G54D11*
D03*
X3097948Y-259774D02*
G54D11*
D03*
X3097948Y-335974D02*
G54D12*
D03*
X3021748Y-335974D02*
G54D12*
D03*
G54D10*
X3097948Y-335974D02*
X3097948Y-335578D01*
X3092392Y-330021D01*
X3092392Y-265330D01*
X3097948Y-259774D01*
X3034052Y-234770D02*
G54D11*
D03*
X3097948Y-259774D02*
G54D11*
D03*
X3097948Y-335974D02*
G54D12*
D03*
X3021748Y-335974D02*
G54D12*
D03*
G54D10*
X3097948Y-335974D02*
X3097948Y-335578D01*
X3092392Y-330021D01*
X3092392Y-265330D01*
X3097948Y-259774D01*
X3034052Y-234770D02*
G54D11*
D03*
X3097948Y-259774D02*
G54D11*
D03*
X3097948Y-335974D02*
G54D12*
D03*
X3021748Y-335974D02*
G54D12*
D03*
G54D10*
X3097948Y-335974D02*
X3097948Y-335578D01*
X3092392Y-330021D01*
X3092392Y-265330D01*
X3097948Y-259774D01*
X3035197Y146349D02*
G54D11*
D03*
X3099094Y121346D02*
G54D11*
D03*
X3099094Y45146D02*
G54D12*
D03*
X3022894Y45146D02*
G54D12*
D03*
G54D10*
X3099094Y45146D02*
X3099094Y45542D01*
X3093537Y51098D01*
X3093537Y115789D01*
X3099094Y121346D01*
X3225910Y146404D02*
G54D11*
D03*
X3289806Y121401D02*
G54D11*
D03*
X3289806Y45201D02*
G54D12*
D03*
X3213606Y45201D02*
G54D12*
D03*
G54D10*
X3289806Y45201D02*
X3289806Y45597D01*
X3284250Y51154D01*
X3284250Y115844D01*
X3289806Y121401D01*
X3225910Y146404D02*
G54D11*
D03*
X3289806Y121401D02*
G54D11*
D03*
X3289806Y45201D02*
G54D12*
D03*
X3213606Y45201D02*
G54D12*
D03*
G54D10*
X3289806Y45201D02*
X3289806Y45597D01*
X3284250Y51154D01*
X3284250Y115844D01*
X3289806Y121401D01*
X3416623Y146460D02*
G54D11*
D03*
X3480520Y121456D02*
G54D11*
D03*
X3480520Y45256D02*
G54D12*
D03*
X3404320Y45256D02*
G54D12*
D03*
G54D10*
X3480520Y45256D02*
X3480520Y45652D01*
X3474963Y51209D01*
X3474963Y115900D01*
X3480520Y121456D01*
X3416623Y146460D02*
G54D11*
D03*
X3480520Y121456D02*
G54D11*
D03*
X3480520Y45256D02*
G54D12*
D03*
X3404320Y45256D02*
G54D12*
D03*
G54D10*
X3480520Y45256D02*
X3480520Y45652D01*
X3474963Y51209D01*
X3474963Y115900D01*
X3480520Y121456D01*
X3607336Y146515D02*
G54D11*
D03*
X3671232Y121512D02*
G54D11*
D03*
X3671232Y45312D02*
G54D12*
D03*
X3595032Y45312D02*
G54D12*
D03*
G54D10*
X3671232Y45312D02*
X3671232Y45708D01*
X3665676Y51265D01*
X3665676Y115955D01*
X3671232Y121512D01*
X3607336Y146515D02*
G54D11*
D03*
X3671232Y121512D02*
G54D11*
D03*
X3671232Y45312D02*
G54D12*
D03*
X3595032Y45312D02*
G54D12*
D03*
G54D10*
X3671232Y45312D02*
X3671232Y45708D01*
X3665676Y51265D01*
X3665676Y115955D01*
X3671232Y121512D01*
X3798049Y146570D02*
G54D11*
D03*
X3861946Y121567D02*
G54D11*
D03*
X3861946Y45367D02*
G54D12*
D03*
X3785746Y45367D02*
G54D12*
D03*
G54D10*
X3861946Y45367D02*
X3861946Y45763D01*
X3856389Y51320D01*
X3856389Y116011D01*
X3861946Y121567D01*
X3035197Y146349D02*
G54D11*
D03*
X3099094Y121346D02*
G54D11*
D03*
X3099094Y45146D02*
G54D12*
D03*
X3022894Y45146D02*
G54D12*
D03*
G54D10*
X3099094Y45146D02*
X3099094Y45542D01*
X3093537Y51098D01*
X3093537Y115789D01*
X3099094Y121346D01*
X3035197Y146349D02*
G54D11*
D03*
X3099094Y121346D02*
G54D11*
D03*
X3099094Y45146D02*
G54D12*
D03*
X3022894Y45146D02*
G54D12*
D03*
G54D10*
X3099094Y45146D02*
X3099094Y45541D01*
X3093537Y51098D01*
X3093537Y115789D01*
X3099094Y121346D01*
X3225910Y146404D02*
G54D11*
D03*
X3289806Y121401D02*
G54D11*
D03*
X3289806Y45201D02*
G54D12*
D03*
X3213606Y45201D02*
G54D12*
D03*
G54D10*
X3289806Y45201D02*
X3289806Y45597D01*
X3284250Y51154D01*
X3284250Y115844D01*
X3289806Y121401D01*
X2084226Y144539D02*
G54D11*
D03*
X2148123Y119536D02*
G54D11*
D03*
X2148123Y43336D02*
G54D12*
D03*
X2071923Y43336D02*
G54D12*
D03*
G54D10*
X2148123Y43336D02*
X2148123Y43732D01*
X2142566Y49289D01*
X2142566Y113980D01*
X2148123Y119536D01*
X2274939Y144595D02*
G54D11*
D03*
X2338836Y119592D02*
G54D11*
D03*
X2338836Y43392D02*
G54D12*
D03*
X2262636Y43392D02*
G54D12*
D03*
G54D10*
X2338836Y43392D02*
X2338836Y43788D01*
X2333279Y49344D01*
X2333279Y114035D01*
X2338836Y119592D01*
X2274939Y144595D02*
G54D11*
D03*
X2338836Y119592D02*
G54D11*
D03*
X2338836Y43392D02*
G54D12*
D03*
X2262636Y43392D02*
G54D12*
D03*
G54D10*
X2338836Y43392D02*
X2338836Y43788D01*
X2333279Y49344D01*
X2333279Y114035D01*
X2338836Y119592D01*
X2465652Y144650D02*
G54D11*
D03*
X2529549Y119647D02*
G54D11*
D03*
X2529549Y43447D02*
G54D12*
D03*
X2453349Y43447D02*
G54D12*
D03*
G54D10*
X2529549Y43447D02*
X2529549Y43843D01*
X2523992Y49400D01*
X2523992Y114090D01*
X2529549Y119647D01*
X2465652Y144650D02*
G54D11*
D03*
X2529549Y119647D02*
G54D11*
D03*
X2529549Y43447D02*
G54D12*
D03*
X2453349Y43447D02*
G54D12*
D03*
G54D10*
X2529549Y43447D02*
X2529549Y43843D01*
X2523992Y49400D01*
X2523992Y114090D01*
X2529549Y119647D01*
X2656365Y144706D02*
G54D11*
D03*
X2720262Y119703D02*
G54D11*
D03*
X2720262Y43502D02*
G54D12*
D03*
X2644062Y43502D02*
G54D12*
D03*
G54D10*
X2720262Y43502D02*
X2720262Y43898D01*
X2714705Y49455D01*
X2714705Y114146D01*
X2720262Y119703D01*
X2656365Y144706D02*
G54D11*
D03*
X2720262Y119703D02*
G54D11*
D03*
X2720262Y43502D02*
G54D12*
D03*
X2644062Y43502D02*
G54D12*
D03*
G54D10*
X2720262Y43502D02*
X2720262Y43898D01*
X2714705Y49455D01*
X2714705Y114146D01*
X2720262Y119703D01*
X2847078Y144761D02*
G54D11*
D03*
X2910975Y119758D02*
G54D11*
D03*
X2910975Y43558D02*
G54D12*
D03*
X2834775Y43558D02*
G54D12*
D03*
G54D10*
X2910975Y43558D02*
X2910975Y43954D01*
X2905418Y49511D01*
X2905418Y114201D01*
X2910975Y119758D01*
X2084226Y144539D02*
G54D11*
D03*
X2148123Y119536D02*
G54D11*
D03*
X2148123Y43336D02*
G54D12*
D03*
X2071923Y43336D02*
G54D12*
D03*
G54D10*
X2148123Y43336D02*
X2148123Y43732D01*
X2142566Y49289D01*
X2142566Y113980D01*
X2148123Y119536D01*
X2084226Y144539D02*
G54D11*
D03*
X2148123Y119536D02*
G54D11*
D03*
X2148123Y43336D02*
G54D12*
D03*
X2071923Y43336D02*
G54D12*
D03*
G54D10*
X2148123Y43336D02*
X2148123Y43732D01*
X2142566Y49289D01*
X2142566Y113980D01*
X2148123Y119536D01*
X2274939Y144595D02*
G54D11*
D03*
X2338836Y119592D02*
G54D11*
D03*
X2338836Y43392D02*
G54D12*
D03*
X2262636Y43392D02*
G54D12*
D03*
G54D10*
X2338836Y43392D02*
X2338836Y43788D01*
X2333279Y49344D01*
X2333279Y114035D01*
X2338836Y119592D01*
X3271838Y336554D02*
G54D11*
D03*
X3335734Y311551D02*
G54D11*
D03*
X3335734Y235351D02*
G54D12*
D03*
X3259534Y235351D02*
G54D12*
D03*
G54D10*
X3335734Y235351D02*
X3335734Y235747D01*
X3330178Y241304D01*
X3330178Y305995D01*
X3335734Y311551D01*
X3462551Y336610D02*
G54D11*
D03*
X3526448Y311607D02*
G54D11*
D03*
X3526448Y235407D02*
G54D12*
D03*
X3450248Y235407D02*
G54D12*
D03*
G54D10*
X3526448Y235407D02*
X3526448Y235803D01*
X3520891Y241360D01*
X3520891Y306050D01*
X3526448Y311607D01*
X3462551Y336610D02*
G54D11*
D03*
X3526448Y311607D02*
G54D11*
D03*
X3526448Y235407D02*
G54D12*
D03*
X3450248Y235407D02*
G54D12*
D03*
G54D10*
X3526448Y235407D02*
X3526448Y235803D01*
X3520891Y241359D01*
X3520891Y306050D01*
X3526448Y311607D01*
X3653264Y336665D02*
G54D11*
D03*
X3717160Y311662D02*
G54D11*
D03*
X3717160Y235462D02*
G54D12*
D03*
X3640960Y235462D02*
G54D12*
D03*
G54D10*
X3717160Y235462D02*
X3717160Y235858D01*
X3711604Y241415D01*
X3711604Y306106D01*
X3717160Y311662D01*
X3653264Y336665D02*
G54D11*
D03*
X3717160Y311662D02*
G54D11*
D03*
X3717160Y235462D02*
G54D12*
D03*
X3640960Y235462D02*
G54D12*
D03*
G54D10*
X3717160Y235462D02*
X3717160Y235858D01*
X3711604Y241415D01*
X3711604Y306106D01*
X3717160Y311662D01*
X3843978Y336721D02*
G54D11*
D03*
X3907874Y311718D02*
G54D11*
D03*
X3907874Y235518D02*
G54D12*
D03*
X3831674Y235518D02*
G54D12*
D03*
G54D10*
X3907874Y235518D02*
X3907874Y235914D01*
X3902318Y241470D01*
X3902318Y306161D01*
X3907874Y311718D01*
X3843978Y336721D02*
G54D11*
D03*
X3907874Y311718D02*
G54D11*
D03*
X3907874Y235518D02*
G54D12*
D03*
X3831674Y235518D02*
G54D12*
D03*
G54D10*
X3907874Y235518D02*
X3907874Y235914D01*
X3902318Y241470D01*
X3902318Y306161D01*
X3907874Y311718D01*
X4034691Y336776D02*
G54D11*
D03*
X4098587Y311773D02*
G54D11*
D03*
X4098587Y235573D02*
G54D12*
D03*
X4022387Y235573D02*
G54D12*
D03*
G54D10*
X4098587Y235573D02*
X4098587Y235969D01*
X4093031Y241526D01*
X4093031Y306216D01*
X4098587Y311773D01*
X3271838Y336554D02*
G54D11*
D03*
X3335734Y311551D02*
G54D11*
D03*
X3335734Y235351D02*
G54D12*
D03*
X3259534Y235351D02*
G54D12*
D03*
G54D10*
X3335734Y235351D02*
X3335734Y235747D01*
X3330178Y241304D01*
X3330178Y305995D01*
X3335734Y311551D01*
X3271838Y336554D02*
G54D11*
D03*
X3335734Y311551D02*
G54D11*
D03*
X3335734Y235351D02*
G54D12*
D03*
X3259534Y235351D02*
G54D12*
D03*
G54D10*
X3335734Y235351D02*
X3335734Y235747D01*
X3330178Y241304D01*
X3330178Y305995D01*
X3335734Y311551D01*
X3462551Y336610D02*
G54D11*
D03*
X3526448Y311607D02*
G54D11*
D03*
X3526448Y235407D02*
G54D12*
D03*
X3450248Y235407D02*
G54D12*
D03*
G54D10*
X3526448Y235407D02*
X3526448Y235803D01*
X3520891Y241360D01*
X3520891Y306050D01*
X3526448Y311607D01*
X2320867Y334745D02*
G54D11*
D03*
X2384764Y309742D02*
G54D11*
D03*
X2384764Y233542D02*
G54D12*
D03*
X2308564Y233542D02*
G54D12*
D03*
G54D10*
X2384764Y233542D02*
X2384764Y233938D01*
X2379207Y239495D01*
X2379207Y304185D01*
X2384764Y309742D01*
X2511580Y334801D02*
G54D11*
D03*
X2575477Y309797D02*
G54D11*
D03*
X2575477Y233598D02*
G54D12*
D03*
X2499277Y233598D02*
G54D12*
D03*
G54D10*
X2575477Y233598D02*
X2575477Y233994D01*
X2569920Y239550D01*
X2569920Y304241D01*
X2575477Y309797D01*
X2511580Y334801D02*
G54D11*
D03*
X2575477Y309797D02*
G54D11*
D03*
X2575477Y233598D02*
G54D12*
D03*
X2499277Y233598D02*
G54D12*
D03*
G54D10*
X2575477Y233598D02*
X2575477Y233993D01*
X2569920Y239550D01*
X2569920Y304241D01*
X2575477Y309797D01*
X2702293Y334856D02*
G54D11*
D03*
X2766190Y309853D02*
G54D11*
D03*
X2766190Y233653D02*
G54D12*
D03*
X2689990Y233653D02*
G54D12*
D03*
G54D10*
X2766190Y233653D02*
X2766190Y234049D01*
X2760633Y239606D01*
X2760633Y304296D01*
X2766190Y309853D01*
X2702293Y334856D02*
G54D11*
D03*
X2766190Y309853D02*
G54D11*
D03*
X2766190Y233653D02*
G54D12*
D03*
X2689990Y233653D02*
G54D12*
D03*
G54D10*
X2766190Y233653D02*
X2766190Y234049D01*
X2760633Y239606D01*
X2760633Y304296D01*
X2766190Y309853D01*
X2893006Y334911D02*
G54D11*
D03*
X2956903Y309908D02*
G54D11*
D03*
X2956903Y233708D02*
G54D12*
D03*
X2880703Y233708D02*
G54D12*
D03*
G54D10*
X2956903Y233708D02*
X2956903Y234104D01*
X2951346Y239661D01*
X2951346Y304352D01*
X2956903Y309908D01*
X2893006Y334911D02*
G54D11*
D03*
X2956903Y309908D02*
G54D11*
D03*
X2956903Y233708D02*
G54D12*
D03*
X2880703Y233708D02*
G54D12*
D03*
G54D10*
X2956903Y233708D02*
X2956903Y234104D01*
X2951346Y239661D01*
X2951346Y304352D01*
X2956903Y309908D01*
X3083719Y334967D02*
G54D11*
D03*
X3147616Y309964D02*
G54D11*
D03*
X3147616Y233764D02*
G54D12*
D03*
X3071416Y233764D02*
G54D12*
D03*
G54D10*
X3147616Y233764D02*
X3147616Y234160D01*
X3142059Y239716D01*
X3142059Y304407D01*
X3147616Y309964D01*
X2320867Y334745D02*
G54D11*
D03*
X2384764Y309742D02*
G54D11*
D03*
X2384764Y233542D02*
G54D12*
D03*
X2308564Y233542D02*
G54D12*
D03*
G54D10*
X2384764Y233542D02*
X2384764Y233938D01*
X2379207Y239495D01*
X2379207Y304185D01*
X2384764Y309742D01*
X2320867Y334745D02*
G54D11*
D03*
X2384764Y309742D02*
G54D11*
D03*
X2384764Y233542D02*
G54D12*
D03*
X2308564Y233542D02*
G54D12*
D03*
G54D10*
X2384764Y233542D02*
X2384764Y233938D01*
X2379207Y239494D01*
X2379207Y304185D01*
X2384764Y309742D01*
X2511580Y334800D02*
G54D11*
D03*
X2575477Y309797D02*
G54D11*
D03*
X2575477Y233597D02*
G54D12*
D03*
X2499277Y233597D02*
G54D12*
D03*
G54D10*
X2575477Y233597D02*
X2575477Y233993D01*
X2569920Y239550D01*
X2569920Y304241D01*
X2575477Y309797D01*
X1939441Y334634D02*
G54D11*
D03*
X2003338Y309631D02*
G54D11*
D03*
X2003338Y233431D02*
G54D12*
D03*
X1927138Y233431D02*
G54D12*
D03*
G54D10*
X2003338Y233431D02*
X2003338Y233827D01*
X1997781Y239384D01*
X1997781Y304074D01*
X2003338Y309631D01*
X1939441Y334634D02*
G54D11*
D03*
X2003338Y309631D02*
G54D11*
D03*
X2003338Y233431D02*
G54D12*
D03*
X1927138Y233431D02*
G54D12*
D03*
G54D10*
X2003338Y233431D02*
X2003338Y233827D01*
X1997781Y239384D01*
X1997781Y304074D01*
X2003338Y309631D01*
X2130154Y334690D02*
G54D11*
D03*
X2194051Y309686D02*
G54D11*
D03*
X2194051Y233486D02*
G54D12*
D03*
X2117851Y233486D02*
G54D12*
D03*
G54D10*
X2194051Y233486D02*
X2194051Y233882D01*
X2188494Y239439D01*
X2188494Y304130D01*
X2194051Y309686D01*
X2130154Y334690D02*
G54D11*
D03*
X2194051Y309686D02*
G54D11*
D03*
X2194051Y233486D02*
G54D12*
D03*
X2117851Y233486D02*
G54D12*
D03*
G54D10*
X2194051Y233486D02*
X2194051Y233882D01*
X2188494Y239439D01*
X2188494Y304130D01*
X2194051Y309686D01*
X2320867Y334745D02*
G54D11*
D03*
X2384764Y309742D02*
G54D11*
D03*
X2384764Y233542D02*
G54D12*
D03*
X2308564Y233542D02*
G54D12*
D03*
G54D10*
X2384764Y233542D02*
X2384764Y233938D01*
X2379207Y239495D01*
X2379207Y304185D01*
X2384764Y309742D01*
X2320867Y334745D02*
G54D11*
D03*
X2384764Y309742D02*
G54D11*
D03*
X2384764Y233542D02*
G54D12*
D03*
X2308564Y233542D02*
G54D12*
D03*
G54D10*
X2384764Y233542D02*
X2384764Y233938D01*
X2379207Y239495D01*
X2379207Y304185D01*
X2384764Y309742D01*
X1939441Y334634D02*
G54D11*
D03*
X2003338Y309631D02*
G54D11*
D03*
X2003338Y233431D02*
G54D12*
D03*
X1927138Y233431D02*
G54D12*
D03*
G54D10*
X2003338Y233431D02*
X2003338Y233827D01*
X1997781Y239384D01*
X1997781Y304074D01*
X2003338Y309631D01*
X3558198Y525919D02*
G54D11*
D03*
X3622094Y500916D02*
G54D11*
D03*
X3622094Y424716D02*
G54D12*
D03*
X3545894Y424716D02*
G54D12*
D03*
G54D10*
X3622094Y424716D02*
X3622094Y425112D01*
X3616538Y430669D01*
X3616538Y495360D01*
X3622094Y500916D01*
X3558198Y525919D02*
G54D11*
D03*
X3622094Y500916D02*
G54D11*
D03*
X3622094Y424716D02*
G54D12*
D03*
X3545894Y424716D02*
G54D12*
D03*
G54D10*
X3622094Y424716D02*
X3622094Y425112D01*
X3616538Y430669D01*
X3616538Y495360D01*
X3622094Y500916D01*
X3748910Y525975D02*
G54D11*
D03*
X3812807Y500972D02*
G54D11*
D03*
X3812807Y424772D02*
G54D12*
D03*
X3736607Y424772D02*
G54D12*
D03*
G54D10*
X3812807Y424772D02*
X3812807Y425168D01*
X3807251Y430724D01*
X3807251Y495415D01*
X3812807Y500972D01*
X3748910Y525975D02*
G54D11*
D03*
X3812807Y500972D02*
G54D11*
D03*
X3812807Y424772D02*
G54D12*
D03*
X3736607Y424772D02*
G54D12*
D03*
G54D10*
X3812807Y424772D02*
X3812807Y425168D01*
X3807251Y430724D01*
X3807251Y495415D01*
X3812807Y500972D01*
X3939624Y526030D02*
G54D11*
D03*
X4003521Y501027D02*
G54D11*
D03*
X4003521Y424827D02*
G54D12*
D03*
X3927321Y424827D02*
G54D12*
D03*
G54D10*
X4003521Y424827D02*
X4003521Y425223D01*
X3997965Y430780D01*
X3997965Y495470D01*
X4003521Y501027D01*
X3939624Y526030D02*
G54D11*
D03*
X4003521Y501027D02*
G54D11*
D03*
X4003521Y424827D02*
G54D12*
D03*
X3927321Y424827D02*
G54D12*
D03*
G54D10*
X4003521Y424827D02*
X4003521Y425223D01*
X3997965Y430780D01*
X3997965Y495470D01*
X4003521Y501027D01*
X4130338Y526086D02*
G54D11*
D03*
X4194234Y501082D02*
G54D11*
D03*
X4194234Y424882D02*
G54D12*
D03*
X4118034Y424882D02*
G54D12*
D03*
G54D10*
X4194234Y424882D02*
X4194234Y425278D01*
X4188678Y430835D01*
X4188678Y495526D01*
X4194234Y501082D01*
X3367484Y525864D02*
G54D11*
D03*
X3431381Y500861D02*
G54D11*
D03*
X3431381Y424661D02*
G54D12*
D03*
X3355181Y424661D02*
G54D12*
D03*
G54D10*
X3431381Y424661D02*
X3431381Y425057D01*
X3425824Y430614D01*
X3425824Y495304D01*
X3431381Y500861D01*
X3367484Y525864D02*
G54D11*
D03*
X3431381Y500861D02*
G54D11*
D03*
X3431381Y424661D02*
G54D12*
D03*
X3355181Y424661D02*
G54D12*
D03*
G54D10*
X3431381Y424661D02*
X3431381Y425056D01*
X3425824Y430613D01*
X3425824Y495304D01*
X3431381Y500861D01*
X3558198Y525919D02*
G54D11*
D03*
X3622094Y500916D02*
G54D11*
D03*
X3622094Y424716D02*
G54D12*
D03*
X3545894Y424716D02*
G54D12*
D03*
G54D10*
X3622094Y424716D02*
X3622094Y425112D01*
X3616538Y430669D01*
X3616538Y495359D01*
X3622094Y500916D01*
X2795345Y525698D02*
G54D11*
D03*
X2859242Y500694D02*
G54D11*
D03*
X2859242Y424494D02*
G54D12*
D03*
X2783042Y424494D02*
G54D12*
D03*
G54D10*
X2859242Y424494D02*
X2859242Y424890D01*
X2853685Y430447D01*
X2853685Y495138D01*
X2859242Y500694D01*
X2795345Y525698D02*
G54D11*
D03*
X2859242Y500694D02*
G54D11*
D03*
X2859242Y424494D02*
G54D12*
D03*
X2783042Y424494D02*
G54D12*
D03*
G54D10*
X2859242Y424494D02*
X2859242Y424890D01*
X2853685Y430447D01*
X2853685Y495138D01*
X2859242Y500694D01*
X2986058Y525753D02*
G54D11*
D03*
X3049954Y500750D02*
G54D11*
D03*
X3049954Y424550D02*
G54D12*
D03*
X2973754Y424550D02*
G54D12*
D03*
G54D10*
X3049954Y424550D02*
X3049954Y424946D01*
X3044398Y430503D01*
X3044398Y495193D01*
X3049954Y500750D01*
X2986058Y525753D02*
G54D11*
D03*
X3049954Y500750D02*
G54D11*
D03*
X3049954Y424550D02*
G54D12*
D03*
X2973754Y424550D02*
G54D12*
D03*
G54D10*
X3049954Y424550D02*
X3049954Y424946D01*
X3044398Y430502D01*
X3044398Y495193D01*
X3049954Y500750D01*
X3176772Y525808D02*
G54D11*
D03*
X3240668Y500805D02*
G54D11*
D03*
X3240668Y424605D02*
G54D12*
D03*
X3164468Y424605D02*
G54D12*
D03*
G54D10*
X3240668Y424605D02*
X3240668Y425001D01*
X3235112Y430558D01*
X3235112Y495248D01*
X3240668Y500805D01*
X3176772Y525808D02*
G54D11*
D03*
X3240668Y500805D02*
G54D11*
D03*
X3240668Y424605D02*
G54D12*
D03*
X3164468Y424605D02*
G54D12*
D03*
G54D10*
X3240668Y424605D02*
X3240668Y425001D01*
X3235112Y430558D01*
X3235112Y495248D01*
X3240668Y500805D01*
X3367485Y525864D02*
G54D11*
D03*
X3431381Y500861D02*
G54D11*
D03*
X3431381Y424661D02*
G54D12*
D03*
X3355181Y424661D02*
G54D12*
D03*
G54D10*
X3431381Y424661D02*
X3431381Y425057D01*
X3425825Y430614D01*
X3425825Y495304D01*
X3431381Y500861D01*
X2604632Y525642D02*
G54D11*
D03*
X2668528Y500639D02*
G54D11*
D03*
X2668528Y424439D02*
G54D12*
D03*
X2592328Y424439D02*
G54D12*
D03*
G54D10*
X2668528Y424439D02*
X2668528Y424835D01*
X2662972Y430392D01*
X2662972Y495082D01*
X2668528Y500639D01*
X2604632Y525642D02*
G54D11*
D03*
X2668528Y500639D02*
G54D11*
D03*
X2668528Y424439D02*
G54D12*
D03*
X2592328Y424439D02*
G54D12*
D03*
G54D10*
X2668528Y424439D02*
X2668528Y424835D01*
X2662972Y430392D01*
X2662972Y495082D01*
X2668528Y500639D01*
X2795345Y525698D02*
G54D11*
D03*
X2859242Y500694D02*
G54D11*
D03*
X2859242Y424494D02*
G54D12*
D03*
X2783042Y424494D02*
G54D12*
D03*
G54D10*
X2859242Y424494D02*
X2859242Y424890D01*
X2853685Y430447D01*
X2853685Y495138D01*
X2859242Y500694D01*
X1844770Y525476D02*
G54D11*
D03*
X1908667Y500472D02*
G54D11*
D03*
X1908667Y424273D02*
G54D12*
D03*
X1832467Y424273D02*
G54D12*
D03*
G54D10*
X1908667Y424273D02*
X1908667Y424669D01*
X1903110Y430225D01*
X1903110Y494916D01*
X1908667Y500472D01*
X1844770Y525476D02*
G54D11*
D03*
X1908667Y500472D02*
G54D11*
D03*
X1908667Y424273D02*
G54D12*
D03*
X1832467Y424273D02*
G54D12*
D03*
G54D10*
X1908667Y424273D02*
X1908667Y424668D01*
X1903110Y430225D01*
X1903110Y494916D01*
X1908667Y500472D01*
X2035483Y525531D02*
G54D11*
D03*
X2099380Y500528D02*
G54D11*
D03*
X2099380Y424328D02*
G54D12*
D03*
X2023180Y424328D02*
G54D12*
D03*
G54D10*
X2099380Y424328D02*
X2099380Y424724D01*
X2093824Y430281D01*
X2093824Y494971D01*
X2099380Y500528D01*
X2035483Y525531D02*
G54D11*
D03*
X2099380Y500528D02*
G54D11*
D03*
X2099380Y424328D02*
G54D12*
D03*
X2023180Y424328D02*
G54D12*
D03*
G54D10*
X2099380Y424328D02*
X2099380Y424724D01*
X2093824Y430281D01*
X2093824Y494971D01*
X2099380Y500528D01*
X2226197Y525586D02*
G54D11*
D03*
X2290093Y500584D02*
G54D11*
D03*
X2290093Y424383D02*
G54D12*
D03*
X2213894Y424383D02*
G54D12*
D03*
G54D10*
X2290093Y424383D02*
X2290093Y424779D01*
X2284537Y430336D01*
X2284537Y495027D01*
X2290093Y500584D01*
X2226197Y525586D02*
G54D11*
D03*
X2290093Y500584D02*
G54D11*
D03*
X2290093Y424383D02*
G54D12*
D03*
X2213894Y424383D02*
G54D12*
D03*
G54D10*
X2290093Y424383D02*
X2290093Y424779D01*
X2284537Y430336D01*
X2284537Y495027D01*
X2290093Y500584D01*
X2416910Y525642D02*
G54D11*
D03*
X2480806Y500639D02*
G54D11*
D03*
X2480806Y424439D02*
G54D12*
D03*
X2404606Y424439D02*
G54D12*
D03*
G54D10*
X2480806Y424439D02*
X2480806Y424835D01*
X2475250Y430392D01*
X2475250Y495082D01*
X2480806Y500639D01*
X1654057Y525420D02*
G54D11*
D03*
X1717954Y500417D02*
G54D11*
D03*
X1717954Y424217D02*
G54D12*
D03*
X1641754Y424217D02*
G54D12*
D03*
G54D10*
X1717954Y424217D02*
X1717954Y424613D01*
X1712397Y430170D01*
X1712397Y494860D01*
X1717954Y500417D01*
X1654057Y525420D02*
G54D11*
D03*
X1717954Y500417D02*
G54D11*
D03*
X1717954Y424217D02*
G54D12*
D03*
X1641754Y424217D02*
G54D12*
D03*
G54D10*
X1717954Y424217D02*
X1717954Y424613D01*
X1712397Y430170D01*
X1712397Y494860D01*
X1717954Y500417D01*
X1844770Y525476D02*
G54D11*
D03*
X1908667Y500472D02*
G54D11*
D03*
X1908667Y424272D02*
G54D12*
D03*
X1832467Y424272D02*
G54D12*
D03*
G54D10*
X1908667Y424272D02*
X1908667Y424668D01*
X1903110Y430225D01*
X1903110Y494916D01*
X1908667Y500472D01*
X1703726Y241083D02*
G54D11*
D03*
X1767623Y216080D02*
G54D11*
D03*
X1767623Y139880D02*
G54D12*
D03*
X1691423Y139880D02*
G54D12*
D03*
G54D10*
X1767623Y139880D02*
X1767623Y140275D01*
X1762066Y145832D01*
X1762066Y210523D01*
X1767623Y216080D01*
X1703726Y241083D02*
G54D11*
D03*
X1767623Y216079D02*
G54D11*
D03*
X1767623Y139880D02*
G54D12*
D03*
X1691423Y139880D02*
G54D12*
D03*
G54D10*
X1767623Y139880D02*
X1767623Y140276D01*
X1762066Y145832D01*
X1762066Y210523D01*
X1767623Y216079D01*
X1703726Y241083D02*
G54D11*
D03*
X1767623Y216079D02*
G54D11*
D03*
X1767623Y139880D02*
G54D12*
D03*
X1691423Y139880D02*
G54D12*
D03*
G54D10*
X1767623Y139880D02*
X1767623Y140275D01*
X1762066Y145832D01*
X1762066Y210523D01*
X1767623Y216079D01*
X1893036Y145436D02*
G54D11*
D03*
X1956932Y120433D02*
G54D11*
D03*
X1893036Y145436D02*
G54D11*
D03*
X1956932Y120432D02*
G54D11*
D03*
X1893036Y145436D02*
G54D11*
D03*
X1956932Y120432D02*
G54D11*
D03*
X1821598Y-43874D02*
G54D11*
D03*
X1885495Y-68877D02*
G54D11*
D03*
X1885495Y-145077D02*
G54D12*
D03*
X1809295Y-145077D02*
G54D12*
D03*
G54D10*
X1885495Y-145077D02*
X1885495Y-144681D01*
X1879938Y-139124D01*
X1879938Y-74434D01*
X1885495Y-68877D01*
X1821598Y-43874D02*
G54D11*
D03*
X1885495Y-68877D02*
G54D11*
D03*
X1885495Y-145077D02*
G54D12*
D03*
X1809295Y-145077D02*
G54D12*
D03*
G54D10*
X1885495Y-145077D02*
X1885495Y-144681D01*
X1879938Y-139124D01*
X1879938Y-74434D01*
X1885495Y-68877D01*
X1821598Y-43874D02*
G54D11*
D03*
X1885495Y-68877D02*
G54D11*
D03*
X1885495Y-145077D02*
G54D12*
D03*
X1809295Y-145077D02*
G54D12*
D03*
G54D10*
X1885495Y-145077D02*
X1885495Y-144681D01*
X1879938Y-139124D01*
X1879938Y-74434D01*
X1885495Y-68877D01*
X1916848Y-233977D02*
G54D11*
D03*
X1980745Y-258980D02*
G54D11*
D03*
X1980745Y-335180D02*
G54D12*
D03*
X1904545Y-335180D02*
G54D12*
D03*
G54D10*
X1980745Y-335180D02*
X1980745Y-334784D01*
X1975188Y-329227D01*
X1975188Y-264537D01*
X1980745Y-258980D01*
X1916848Y-233977D02*
G54D11*
D03*
X1980745Y-258980D02*
G54D11*
D03*
X1980745Y-335180D02*
G54D12*
D03*
X1904545Y-335180D02*
G54D12*
D03*
G54D10*
X1980745Y-335180D02*
X1980745Y-334784D01*
X1975188Y-329227D01*
X1975188Y-264537D01*
X1980745Y-258980D01*
X1916848Y-233977D02*
G54D11*
D03*
X1980745Y-258980D02*
G54D11*
D03*
X1980745Y-335180D02*
G54D12*
D03*
X1904545Y-335180D02*
G54D12*
D03*
G54D10*
X1980745Y-335180D02*
X1980745Y-334784D01*
X1975188Y-329227D01*
X1975188Y-264537D01*
X1980745Y-258980D01*
X1679120Y-233580D02*
G54D11*
D03*
X1743017Y-258583D02*
G54D11*
D03*
X1743017Y-334783D02*
G54D12*
D03*
X1666817Y-334783D02*
G54D12*
D03*
G54D10*
X1743017Y-334783D02*
X1743017Y-334387D01*
X1737460Y-328830D01*
X1737460Y-264140D01*
X1743017Y-258583D01*
X1679120Y-233580D02*
G54D11*
D03*
X1743017Y-258583D02*
G54D11*
D03*
X1743017Y-334783D02*
G54D12*
D03*
X1666817Y-334783D02*
G54D12*
D03*
G54D10*
X1743017Y-334783D02*
X1743017Y-334387D01*
X1737460Y-328830D01*
X1737460Y-264140D01*
X1743017Y-258583D01*
X1679120Y-233580D02*
G54D11*
D03*
X1743017Y-258583D02*
G54D11*
D03*
X1743017Y-334783D02*
G54D12*
D03*
X1666817Y-334783D02*
G54D12*
D03*
G54D10*
X1743017Y-334783D02*
X1743017Y-334387D01*
X1737460Y-328830D01*
X1737460Y-264140D01*
X1743017Y-258583D01*
X4155620Y-232389D02*
G54D11*
D03*
X4219518Y-257392D02*
G54D11*
D03*
X4219518Y-333592D02*
G54D12*
D03*
X4143317Y-333592D02*
G54D12*
D03*
G54D10*
X4219518Y-333592D02*
X4219518Y-333196D01*
X4213961Y-327640D01*
X4213961Y-262949D01*
X4219518Y-257392D01*
X4155620Y-232389D02*
G54D11*
D03*
X4219518Y-257392D02*
G54D11*
D03*
X4219518Y-333592D02*
G54D12*
D03*
X4143317Y-333592D02*
G54D12*
D03*
G54D10*
X4219518Y-333592D02*
X4219518Y-333196D01*
X4213961Y-327640D01*
X4213961Y-262949D01*
X4219518Y-257392D01*
X4155620Y-232389D02*
G54D11*
D03*
X4219518Y-257392D02*
G54D11*
D03*
X4219518Y-333592D02*
G54D12*
D03*
X4143317Y-333592D02*
G54D12*
D03*
G54D10*
X4219518Y-333592D02*
X4219518Y-333197D01*
X4213961Y-327640D01*
X4213961Y-262949D01*
X4219518Y-257392D01*
X4394142Y-232389D02*
G54D11*
D03*
X4458040Y-257392D02*
G54D11*
D03*
X4458040Y-333592D02*
G54D12*
D03*
X4381839Y-333592D02*
G54D12*
D03*
G54D10*
X4458040Y-333592D02*
X4458040Y-333196D01*
X4452483Y-327640D01*
X4452483Y-262949D01*
X4458040Y-257392D01*
X4394142Y-232389D02*
G54D11*
D03*
X4458040Y-257392D02*
G54D11*
D03*
X4458040Y-333592D02*
G54D12*
D03*
X4381839Y-333592D02*
G54D12*
D03*
G54D10*
X4458040Y-333592D02*
X4458040Y-333196D01*
X4452483Y-327640D01*
X4452483Y-262949D01*
X4458040Y-257392D01*
X4394142Y-232389D02*
G54D11*
D03*
X4458040Y-257392D02*
G54D11*
D03*
X4458040Y-333592D02*
G54D12*
D03*
X4381839Y-333592D02*
G54D12*
D03*
G54D10*
X4458040Y-333592D02*
X4458040Y-333197D01*
X4452483Y-327640D01*
X4452483Y-262949D01*
X4458040Y-257392D01*
X4250870Y-41889D02*
G54D11*
D03*
X4314768Y-66892D02*
G54D11*
D03*
X4314768Y-143092D02*
G54D12*
D03*
X4238567Y-143092D02*
G54D12*
D03*
G54D10*
X4314768Y-143092D02*
X4314768Y-142696D01*
X4309211Y-137140D01*
X4309211Y-72449D01*
X4314768Y-66892D01*
X4250870Y-41889D02*
G54D11*
D03*
X4314768Y-66892D02*
G54D11*
D03*
X4314768Y-143092D02*
G54D12*
D03*
X4238567Y-143092D02*
G54D12*
D03*
G54D10*
X4314768Y-143092D02*
X4314768Y-142696D01*
X4309211Y-137140D01*
X4309211Y-72449D01*
X4314768Y-66892D01*
X4250870Y-41889D02*
G54D11*
D03*
X4314768Y-66892D02*
G54D11*
D03*
X4314768Y-143092D02*
G54D12*
D03*
X4238567Y-143092D02*
G54D12*
D03*
G54D10*
X4314768Y-143092D02*
X4314768Y-142697D01*
X4309211Y-137140D01*
X4309211Y-72449D01*
X4314768Y-66892D01*
X3988549Y146570D02*
G54D11*
D03*
X4052447Y121567D02*
G54D11*
D03*
X4052447Y45367D02*
G54D12*
D03*
X3976246Y45367D02*
G54D12*
D03*
G54D10*
X4052447Y45367D02*
X4052447Y45763D01*
X4046890Y51320D01*
X4046890Y116011D01*
X4052447Y121567D01*
X3988549Y146570D02*
G54D11*
D03*
X4052447Y121567D02*
G54D11*
D03*
X4052447Y45367D02*
G54D12*
D03*
X3976246Y45367D02*
G54D12*
D03*
G54D10*
X4052447Y45367D02*
X4052447Y45763D01*
X4046890Y51320D01*
X4046890Y116011D01*
X4052447Y121567D01*
X3988549Y146570D02*
G54D11*
D03*
X4052447Y121567D02*
G54D11*
D03*
X4052447Y45367D02*
G54D12*
D03*
X3976246Y45367D02*
G54D12*
D03*
G54D10*
X4052447Y45367D02*
X4052447Y45763D01*
X4046890Y51320D01*
X4046890Y116011D01*
X4052447Y121567D01*
X4179049Y146570D02*
G54D11*
D03*
X4242947Y121567D02*
G54D11*
D03*
X4179049Y146570D02*
G54D11*
D03*
X4242947Y121567D02*
G54D11*
D03*
X4179049Y146570D02*
G54D11*
D03*
X4242947Y121567D02*
G54D11*
D03*
X4392171Y146570D02*
G54D11*
D03*
X4456069Y121567D02*
G54D11*
D03*
X4456069Y45368D02*
G54D12*
D03*
X4379868Y45368D02*
G54D12*
D03*
G54D10*
X4456069Y45368D02*
X4456069Y45763D01*
X4450512Y51320D01*
X4450512Y116011D01*
X4456069Y121567D01*
X4392171Y146570D02*
G54D11*
D03*
X4456069Y121567D02*
G54D11*
D03*
X4456069Y45368D02*
G54D12*
D03*
X4379868Y45368D02*
G54D12*
D03*
G54D10*
X4456069Y45368D02*
X4456069Y45764D01*
X4450512Y51320D01*
X4450512Y116011D01*
X4456069Y121567D01*
X4392171Y146570D02*
G54D11*
D03*
X4456069Y121567D02*
G54D11*
D03*
X4456069Y45368D02*
G54D12*
D03*
X4379868Y45368D02*
G54D12*
D03*
G54D10*
X4456069Y45368D02*
X4456069Y45763D01*
X4450512Y51320D01*
X4450512Y116011D01*
X4456069Y121567D01*
X4322028Y336776D02*
G54D11*
D03*
X4385927Y311773D02*
G54D11*
D03*
X4385927Y235573D02*
G54D12*
D03*
X4309725Y235573D02*
G54D12*
D03*
G54D10*
X4385927Y235573D02*
X4385927Y235969D01*
X4380370Y241526D01*
X4380370Y306216D01*
X4385927Y311773D01*
X4322028Y336776D02*
G54D11*
D03*
X4385927Y311773D02*
G54D11*
D03*
X4385927Y235573D02*
G54D12*
D03*
X4309725Y235573D02*
G54D12*
D03*
G54D10*
X4385927Y235573D02*
X4385927Y235969D01*
X4380370Y241526D01*
X4380370Y306216D01*
X4385927Y311773D01*
X4322028Y336776D02*
G54D11*
D03*
X4385927Y311773D02*
G54D11*
D03*
X4385927Y235573D02*
G54D12*
D03*
X4309725Y235573D02*
G54D12*
D03*
G54D10*
X4385927Y235573D02*
X4385927Y235969D01*
X4380370Y241526D01*
X4380370Y306216D01*
X4385927Y311773D01*
X4369257Y526086D02*
G54D11*
D03*
X4433156Y501082D02*
G54D11*
D03*
X4433156Y424883D02*
G54D12*
D03*
X4356954Y424883D02*
G54D12*
D03*
G54D10*
X4433156Y424883D02*
X4433156Y425278D01*
X4427600Y430835D01*
X4427600Y495526D01*
X4433156Y501082D01*
X4369257Y526086D02*
G54D11*
D03*
X4433156Y501082D02*
G54D11*
D03*
X4433156Y424883D02*
G54D12*
D03*
X4356954Y424883D02*
G54D12*
D03*
G54D10*
X4433156Y424883D02*
X4433156Y425279D01*
X4427600Y430835D01*
X4427600Y495526D01*
X4433156Y501082D01*
X4369257Y526086D02*
G54D11*
D03*
X4433156Y501082D02*
G54D11*
D03*
X4433156Y424883D02*
G54D12*
D03*
X4356954Y424883D02*
G54D12*
D03*
G54D10*
X4433156Y424883D02*
X4433156Y425278D01*
X4427600Y430835D01*
X4427600Y495526D01*
X4433156Y501082D01*
X3558594Y810876D02*
G54D11*
D03*
X3622491Y785872D02*
G54D11*
D03*
X3622491Y709672D02*
G54D12*
D03*
X3546291Y709672D02*
G54D12*
D03*
G54D10*
X3622491Y709672D02*
X3622491Y710068D01*
X3616934Y715625D01*
X3616934Y780316D01*
X3622491Y785872D01*
X3558594Y810876D02*
G54D11*
D03*
X3622491Y785872D02*
G54D11*
D03*
X3622491Y709672D02*
G54D12*
D03*
X3546291Y709672D02*
G54D12*
D03*
G54D10*
X3622491Y709672D02*
X3622491Y710068D01*
X3616934Y715625D01*
X3616934Y780316D01*
X3622491Y785872D01*
X3749308Y810931D02*
G54D11*
D03*
X3813204Y785928D02*
G54D11*
D03*
X3813204Y709728D02*
G54D12*
D03*
X3737004Y709728D02*
G54D12*
D03*
G54D10*
X3813204Y709728D02*
X3813204Y710124D01*
X3807648Y715680D01*
X3807648Y780371D01*
X3813204Y785928D01*
X3749308Y810931D02*
G54D11*
D03*
X3813204Y785928D02*
G54D11*
D03*
X3813204Y709728D02*
G54D12*
D03*
X3737004Y709728D02*
G54D12*
D03*
G54D10*
X3813204Y709728D02*
X3813204Y710124D01*
X3807648Y715680D01*
X3807648Y780371D01*
X3813204Y785928D01*
X3940021Y810986D02*
G54D11*
D03*
X4003917Y785983D02*
G54D11*
D03*
X4003917Y709783D02*
G54D12*
D03*
X3927717Y709783D02*
G54D12*
D03*
G54D10*
X4003917Y709783D02*
X4003917Y710179D01*
X3998361Y715736D01*
X3998361Y780426D01*
X4003917Y785983D01*
X3940021Y810986D02*
G54D11*
D03*
X4003917Y785983D02*
G54D11*
D03*
X4003917Y709783D02*
G54D12*
D03*
X3927717Y709783D02*
G54D12*
D03*
G54D10*
X4003917Y709783D02*
X4003917Y710179D01*
X3998361Y715736D01*
X3998361Y780426D01*
X4003917Y785983D01*
X4130734Y811042D02*
G54D11*
D03*
X4194629Y786039D02*
G54D11*
D03*
X4194629Y709839D02*
G54D12*
D03*
X4118430Y709839D02*
G54D12*
D03*
G54D10*
X4194629Y709839D02*
X4194629Y710235D01*
X4189072Y715792D01*
X4189072Y780482D01*
X4194629Y786039D01*
X3367882Y810820D02*
G54D11*
D03*
X3431778Y785817D02*
G54D11*
D03*
X3431778Y709617D02*
G54D12*
D03*
X3355578Y709617D02*
G54D12*
D03*
G54D10*
X3431778Y709617D02*
X3431778Y710013D01*
X3426222Y715570D01*
X3426222Y780260D01*
X3431778Y785817D01*
X3367882Y810820D02*
G54D11*
D03*
X3431778Y785817D02*
G54D11*
D03*
X3431778Y709617D02*
G54D12*
D03*
X3355578Y709617D02*
G54D12*
D03*
G54D10*
X3431778Y709617D02*
X3431778Y710013D01*
X3426222Y715570D01*
X3426222Y780260D01*
X3431778Y785817D01*
X3558594Y810876D02*
G54D11*
D03*
X3622491Y785872D02*
G54D11*
D03*
X3622491Y709672D02*
G54D12*
D03*
X3546291Y709672D02*
G54D12*
D03*
G54D10*
X3622491Y709672D02*
X3622491Y710068D01*
X3616935Y715625D01*
X3616935Y780316D01*
X3622491Y785872D01*
X2508802Y810654D02*
G54D11*
D03*
X2572699Y785650D02*
G54D11*
D03*
X2572699Y709451D02*
G54D12*
D03*
X2496499Y709451D02*
G54D12*
D03*
G54D10*
X2572699Y709451D02*
X2572699Y709847D01*
X2567142Y715403D01*
X2567142Y780094D01*
X2572699Y785650D01*
X2508802Y810654D02*
G54D11*
D03*
X2572699Y785650D02*
G54D11*
D03*
X2572699Y709451D02*
G54D12*
D03*
X2496499Y709451D02*
G54D12*
D03*
G54D10*
X2572699Y709451D02*
X2572699Y709846D01*
X2567142Y715403D01*
X2567142Y780094D01*
X2572699Y785650D01*
X2699516Y810709D02*
G54D11*
D03*
X2763412Y785706D02*
G54D11*
D03*
X2763412Y709506D02*
G54D12*
D03*
X2687212Y709506D02*
G54D12*
D03*
G54D10*
X2763412Y709506D02*
X2763412Y709902D01*
X2757856Y715459D01*
X2757856Y780149D01*
X2763412Y785706D01*
X2699516Y810709D02*
G54D11*
D03*
X2763412Y785706D02*
G54D11*
D03*
X2763412Y709506D02*
G54D12*
D03*
X2687212Y709506D02*
G54D12*
D03*
G54D10*
X2763412Y709506D02*
X2763412Y709902D01*
X2757856Y715459D01*
X2757856Y780149D01*
X2763412Y785706D01*
X2890229Y810764D02*
G54D11*
D03*
X2954125Y785762D02*
G54D11*
D03*
X2954125Y709561D02*
G54D12*
D03*
X2877925Y709561D02*
G54D12*
D03*
G54D10*
X2954125Y709561D02*
X2954125Y709957D01*
X2948569Y715514D01*
X2948569Y780205D01*
X2954125Y785762D01*
X2890229Y810764D02*
G54D11*
D03*
X2954125Y785762D02*
G54D11*
D03*
X2954125Y709561D02*
G54D12*
D03*
X2877925Y709561D02*
G54D12*
D03*
G54D10*
X2954125Y709561D02*
X2954125Y709957D01*
X2948569Y715514D01*
X2948569Y780205D01*
X2954125Y785762D01*
X3080942Y810820D02*
G54D11*
D03*
X3144838Y785817D02*
G54D11*
D03*
X3144838Y709617D02*
G54D12*
D03*
X3068638Y709617D02*
G54D12*
D03*
G54D10*
X3144838Y709617D02*
X3144838Y710013D01*
X3139280Y715570D01*
X3139280Y780260D01*
X3144838Y785817D01*
X2318090Y810598D02*
G54D11*
D03*
X2381986Y785595D02*
G54D11*
D03*
X2381986Y709395D02*
G54D12*
D03*
X2305786Y709395D02*
G54D12*
D03*
G54D10*
X2381986Y709395D02*
X2381986Y709791D01*
X2376430Y715348D01*
X2376430Y780038D01*
X2381986Y785595D01*
X2318090Y810598D02*
G54D11*
D03*
X2381986Y785595D02*
G54D11*
D03*
X2381986Y709395D02*
G54D12*
D03*
X2305786Y709395D02*
G54D12*
D03*
G54D10*
X2381986Y709395D02*
X2381986Y709791D01*
X2376430Y715348D01*
X2376430Y780038D01*
X2381986Y785595D01*
X2508802Y810654D02*
G54D11*
D03*
X2572699Y785650D02*
G54D11*
D03*
X2572699Y709450D02*
G54D12*
D03*
X2496499Y709450D02*
G54D12*
D03*
G54D10*
X2572699Y709450D02*
X2572699Y709846D01*
X2567143Y715403D01*
X2567143Y780094D01*
X2572699Y785650D01*
X1320742Y525642D02*
G54D11*
D03*
X1384639Y500639D02*
G54D11*
D03*
X1384639Y424439D02*
G54D12*
D03*
X1308439Y424439D02*
G54D12*
D03*
G54D10*
X1384639Y424439D02*
X1384639Y424835D01*
X1379082Y430392D01*
X1379082Y495082D01*
X1384639Y500639D01*
X1320742Y525642D02*
G54D11*
D03*
X1384639Y500639D02*
G54D11*
D03*
X1384639Y424439D02*
G54D12*
D03*
X1308439Y424439D02*
G54D12*
D03*
G54D10*
X1384639Y424439D02*
X1384639Y424835D01*
X1379082Y430392D01*
X1379082Y495082D01*
X1384639Y500639D01*
X1320742Y525642D02*
G54D11*
D03*
X1384639Y500639D02*
G54D11*
D03*
X1384639Y424439D02*
G54D12*
D03*
X1308439Y424439D02*
G54D12*
D03*
G54D10*
X1384639Y424439D02*
X1384639Y424835D01*
X1379082Y430391D01*
X1379082Y495082D01*
X1384639Y500639D01*
X1034992Y525642D02*
G54D11*
D03*
X1098889Y500639D02*
G54D11*
D03*
X1098889Y424439D02*
G54D12*
D03*
X1022689Y424439D02*
G54D12*
D03*
G54D10*
X1098889Y424439D02*
X1098889Y424835D01*
X1093332Y430392D01*
X1093332Y495082D01*
X1098889Y500639D01*
X1034992Y525642D02*
G54D11*
D03*
X1098889Y500639D02*
G54D11*
D03*
X1098889Y424439D02*
G54D12*
D03*
X1022689Y424439D02*
G54D12*
D03*
G54D10*
X1098889Y424439D02*
X1098889Y424835D01*
X1093332Y430392D01*
X1093332Y495082D01*
X1098889Y500639D01*
X1034992Y525642D02*
G54D11*
D03*
X1098889Y500639D02*
G54D11*
D03*
X1098889Y424439D02*
G54D12*
D03*
X1022689Y424439D02*
G54D12*
D03*
G54D10*
X1098889Y424439D02*
X1098889Y424835D01*
X1093332Y430391D01*
X1093332Y495082D01*
X1098889Y500639D01*
X508426Y527165D02*
G54D11*
D03*
X572323Y502162D02*
G54D11*
D03*
X572323Y425962D02*
G54D12*
D03*
X496123Y425962D02*
G54D12*
D03*
G54D10*
X572323Y425962D02*
X572323Y426358D01*
X566766Y431915D01*
X566766Y496606D01*
X572323Y502162D01*
X699140Y527221D02*
G54D11*
D03*
X763036Y502218D02*
G54D11*
D03*
X763036Y426018D02*
G54D12*
D03*
X686836Y426018D02*
G54D12*
D03*
G54D10*
X763036Y426018D02*
X763036Y426414D01*
X757480Y431970D01*
X757480Y496661D01*
X763036Y502218D01*
X126816Y527110D02*
G54D11*
D03*
X190713Y502107D02*
G54D11*
D03*
X190713Y425907D02*
G54D12*
D03*
X114513Y425907D02*
G54D12*
D03*
G54D10*
X190713Y425907D02*
X190713Y426303D01*
X185156Y431860D01*
X185156Y496550D01*
X190713Y502107D01*
X317530Y527165D02*
G54D11*
D03*
X381426Y502162D02*
G54D11*
D03*
X381426Y425962D02*
G54D12*
D03*
X305226Y425962D02*
G54D12*
D03*
G54D10*
X381426Y425962D02*
X381426Y426358D01*
X375870Y431915D01*
X375870Y496606D01*
X381426Y502162D01*
X508030Y338650D02*
G54D11*
D03*
X571926Y313647D02*
G54D11*
D03*
X571926Y237447D02*
G54D12*
D03*
X495726Y237447D02*
G54D12*
D03*
G54D10*
X571926Y237447D02*
X571926Y237842D01*
X566370Y243399D01*
X566370Y308090D01*
X571926Y313647D01*
X698742Y338705D02*
G54D11*
D03*
X762639Y313702D02*
G54D11*
D03*
X762639Y237502D02*
G54D12*
D03*
X686439Y237502D02*
G54D12*
D03*
G54D10*
X762639Y237502D02*
X762639Y237898D01*
X757082Y243455D01*
X757082Y308145D01*
X762639Y313702D01*
X126419Y338594D02*
G54D11*
D03*
X190316Y313591D02*
G54D11*
D03*
X190316Y237391D02*
G54D12*
D03*
X114116Y237391D02*
G54D12*
D03*
G54D10*
X190316Y237391D02*
X190316Y237787D01*
X184760Y243344D01*
X184760Y308034D01*
X190316Y313591D01*
X317132Y338650D02*
G54D11*
D03*
X381029Y313647D02*
G54D11*
D03*
X381029Y237447D02*
G54D12*
D03*
X304829Y237447D02*
G54D12*
D03*
G54D10*
X381029Y237447D02*
X381029Y237843D01*
X375472Y243399D01*
X375472Y308090D01*
X381029Y313647D01*
X508426Y149340D02*
G54D11*
D03*
X572323Y124337D02*
G54D11*
D03*
X572323Y48137D02*
G54D12*
D03*
X496123Y48137D02*
G54D12*
D03*
G54D10*
X572323Y48137D02*
X572323Y48533D01*
X566766Y54090D01*
X566766Y118780D01*
X572323Y124337D01*
X699140Y149396D02*
G54D11*
D03*
X763036Y124393D02*
G54D11*
D03*
X763036Y48193D02*
G54D12*
D03*
X686836Y48193D02*
G54D12*
D03*
G54D10*
X763036Y48193D02*
X763036Y48589D01*
X757480Y54145D01*
X757480Y118836D01*
X763036Y124393D01*
X126816Y149285D02*
G54D11*
D03*
X190713Y124282D02*
G54D11*
D03*
X190713Y48082D02*
G54D12*
D03*
X114513Y48082D02*
G54D12*
D03*
G54D10*
X190713Y48082D02*
X190713Y48478D01*
X185156Y54034D01*
X185156Y118725D01*
X190713Y124282D01*
X317530Y149340D02*
G54D11*
D03*
X381426Y124337D02*
G54D11*
D03*
X381426Y48137D02*
G54D12*
D03*
X305226Y48137D02*
G54D12*
D03*
G54D10*
X381426Y48137D02*
X381426Y48533D01*
X375870Y54090D01*
X375870Y118780D01*
X381426Y124337D01*
X508426Y-41953D02*
G54D11*
D03*
X572323Y-66956D02*
G54D11*
D03*
X572323Y-143156D02*
G54D12*
D03*
X496123Y-143156D02*
G54D12*
D03*
G54D10*
X572323Y-143156D02*
X572323Y-142761D01*
X566766Y-137204D01*
X566766Y-72513D01*
X572323Y-66956D01*
X699140Y-41898D02*
G54D11*
D03*
X763036Y-66901D02*
G54D11*
D03*
X763036Y-143101D02*
G54D12*
D03*
X686836Y-143101D02*
G54D12*
D03*
G54D10*
X763036Y-143101D02*
X763036Y-142705D01*
X757480Y-137148D01*
X757480Y-72458D01*
X763036Y-66901D01*
X317530Y-41953D02*
G54D11*
D03*
X381426Y-66956D02*
G54D11*
D03*
X381426Y-143156D02*
G54D12*
D03*
X305226Y-143156D02*
G54D12*
D03*
G54D10*
X381426Y-143156D02*
X381426Y-142760D01*
X375870Y-137204D01*
X375870Y-72513D01*
X381426Y-66956D01*
X1178351Y-43144D02*
G54D11*
D03*
X1242248Y-68147D02*
G54D11*
D03*
X1242248Y-144347D02*
G54D12*
D03*
X1166048Y-144347D02*
G54D12*
D03*
G54D10*
X1242248Y-144347D02*
X1242248Y-143951D01*
X1236692Y-138394D01*
X1236692Y-73704D01*
X1242248Y-68147D01*
X1369065Y-43089D02*
G54D11*
D03*
X1432961Y-68092D02*
G54D11*
D03*
X1432961Y-144292D02*
G54D12*
D03*
X1356761Y-144292D02*
G54D12*
D03*
G54D10*
X1432961Y-144292D02*
X1432961Y-143896D01*
X1427405Y-138339D01*
X1427405Y-73648D01*
X1432961Y-68092D01*
X987454Y-43144D02*
G54D11*
D03*
X1051351Y-68147D02*
G54D11*
D03*
X1051351Y-144347D02*
G54D12*
D03*
X975151Y-144347D02*
G54D12*
D03*
G54D10*
X1051351Y-144347D02*
X1051351Y-143951D01*
X1045794Y-138394D01*
X1045794Y-73704D01*
X1051351Y-68147D01*
X603986Y-232389D02*
G54D11*
D03*
X667883Y-257392D02*
G54D11*
D03*
X667883Y-333592D02*
G54D12*
D03*
X591683Y-333592D02*
G54D12*
D03*
G54D10*
X667883Y-333592D02*
X667883Y-333196D01*
X662326Y-327640D01*
X662326Y-262949D01*
X667883Y-257392D01*
X603986Y-232389D02*
G54D11*
D03*
X667883Y-257392D02*
G54D11*
D03*
X667883Y-333592D02*
G54D12*
D03*
X591683Y-333592D02*
G54D12*
D03*
G54D10*
X667883Y-333592D02*
X667883Y-333196D01*
X662326Y-327640D01*
X662326Y-262949D01*
X667883Y-257392D01*
X603986Y-232389D02*
G54D11*
D03*
X667883Y-257392D02*
G54D11*
D03*
X667883Y-333592D02*
G54D12*
D03*
X591683Y-333592D02*
G54D12*
D03*
G54D10*
X667883Y-333592D02*
X667883Y-333197D01*
X662326Y-327640D01*
X662326Y-262949D01*
X667883Y-257392D01*
X317839Y-231596D02*
G54D11*
D03*
X381736Y-256599D02*
G54D11*
D03*
X381736Y-332799D02*
G54D12*
D03*
X305536Y-332799D02*
G54D12*
D03*
G54D10*
X381736Y-332799D02*
X381736Y-332403D01*
X376179Y-326846D01*
X376179Y-262155D01*
X381736Y-256599D01*
X317839Y-231596D02*
G54D11*
D03*
X381736Y-256599D02*
G54D11*
D03*
X381736Y-332799D02*
G54D12*
D03*
X305536Y-332799D02*
G54D12*
D03*
G54D10*
X381736Y-332799D02*
X381736Y-332403D01*
X376179Y-326846D01*
X376179Y-262155D01*
X381736Y-256599D01*
X317839Y-231596D02*
G54D11*
D03*
X381736Y-256599D02*
G54D11*
D03*
X381736Y-332799D02*
G54D12*
D03*
X305536Y-332799D02*
G54D12*
D03*
G54D10*
X381736Y-332799D02*
X381736Y-332403D01*
X376179Y-326846D01*
X376179Y-262155D01*
X381736Y-256599D01*
X126545Y-136742D02*
G54D11*
D03*
X190442Y-161746D02*
G54D11*
D03*
X190442Y-237946D02*
G54D12*
D03*
X114242Y-237946D02*
G54D12*
D03*
G54D10*
X190442Y-237946D02*
X190442Y-237550D01*
X184885Y-231993D01*
X184885Y-167302D01*
X190442Y-161746D01*
X126545Y-136742D02*
G54D11*
D03*
X190442Y-161746D02*
G54D11*
D03*
X190442Y-237946D02*
G54D12*
D03*
X114242Y-237946D02*
G54D12*
D03*
G54D10*
X190442Y-237946D02*
X190442Y-237550D01*
X184885Y-231993D01*
X184885Y-167302D01*
X190442Y-161746D01*
X126545Y-136742D02*
G54D11*
D03*
X190442Y-161746D02*
G54D11*
D03*
X190442Y-237946D02*
G54D12*
D03*
X114242Y-237946D02*
G54D12*
D03*
G54D10*
X190442Y-237946D02*
X190442Y-237550D01*
X184885Y-231993D01*
X184885Y-167302D01*
X190442Y-161746D01*
X1177867Y146230D02*
G54D11*
D03*
X1241764Y121226D02*
G54D11*
D03*
X1241764Y45026D02*
G54D12*
D03*
X1165564Y45026D02*
G54D12*
D03*
G54D10*
X1241764Y45026D02*
X1241764Y45422D01*
X1236207Y50979D01*
X1236207Y115670D01*
X1241764Y121226D01*
X1177867Y146230D02*
G54D11*
D03*
X1241764Y121226D02*
G54D11*
D03*
X1241764Y45026D02*
G54D12*
D03*
X1165564Y45026D02*
G54D12*
D03*
G54D10*
X1241764Y45026D02*
X1241764Y45422D01*
X1236207Y50979D01*
X1236207Y115670D01*
X1241764Y121226D01*
X1177867Y146230D02*
G54D11*
D03*
X1241764Y121226D02*
G54D11*
D03*
X1241764Y45026D02*
G54D12*
D03*
X1165564Y45026D02*
G54D12*
D03*
G54D10*
X1241764Y45026D02*
X1241764Y45422D01*
X1236207Y50979D01*
X1236207Y115670D01*
X1241764Y121226D01*
X4415176Y810995D02*
G54D11*
D03*
X4479073Y785992D02*
G54D11*
D03*
X4479073Y709792D02*
G54D12*
D03*
X4402873Y709792D02*
G54D12*
D03*
G54D10*
X4479073Y709792D02*
X4479073Y710188D01*
X4473516Y715745D01*
X4473516Y780435D01*
X4479073Y785992D01*
X4415176Y810995D02*
G54D11*
D03*
X4479073Y785992D02*
G54D11*
D03*
X4479073Y709792D02*
G54D12*
D03*
X4402873Y709792D02*
G54D12*
D03*
G54D10*
X4479073Y709792D02*
X4479073Y710188D01*
X4473516Y715745D01*
X4473516Y780435D01*
X4479073Y785992D01*
X4415176Y810995D02*
G54D11*
D03*
X4479073Y785992D02*
G54D11*
D03*
X4479073Y709792D02*
G54D12*
D03*
X4402873Y709792D02*
G54D12*
D03*
G54D10*
X4479073Y709792D02*
X4479073Y710188D01*
X4473516Y715744D01*
X4473516Y780435D01*
X4479073Y785992D01*
G36*
X1435228Y838568D02*
X1452228Y838568D01*
X1452228Y821568D01*
X1435228Y821568D01*
X1435228Y838568D01*
G37*
G36*
X1460628Y838568D02*
X1477628Y838568D01*
X1477628Y821568D01*
X1460628Y821568D01*
X1460628Y838568D01*
G37*
G36*
X1486028Y838568D02*
X1503028Y838568D01*
X1503028Y821568D01*
X1486028Y821568D01*
X1486028Y838568D01*
G37*
G36*
X1511428Y838568D02*
X1528428Y838568D01*
X1528428Y821568D01*
X1511428Y821568D01*
X1511428Y838568D01*
G37*
G36*
X1536828Y838568D02*
X1553828Y838568D01*
X1553828Y821568D01*
X1536828Y821568D01*
X1536828Y838568D01*
G37*
G36*
X1562228Y838568D02*
X1579228Y838568D01*
X1579228Y821568D01*
X1562228Y821568D01*
X1562228Y838568D01*
G37*
G36*
X1587628Y838568D02*
X1604628Y838568D01*
X1604628Y821568D01*
X1587628Y821568D01*
X1587628Y838568D01*
G37*
G36*
X1613028Y838568D02*
X1630028Y838568D01*
X1630028Y821568D01*
X1613028Y821568D01*
X1613028Y838568D01*
G37*
G36*
X1638428Y838568D02*
X1655428Y838568D01*
X1655428Y821568D01*
X1638428Y821568D01*
X1638428Y838568D01*
G37*
G36*
X1663828Y838568D02*
X1680828Y838568D01*
X1680828Y821568D01*
X1663828Y821568D01*
X1663828Y838568D01*
G37*
G36*
X1689228Y838568D02*
X1706228Y838568D01*
X1706228Y821568D01*
X1689228Y821568D01*
X1689228Y838568D01*
G37*
G36*
X1714628Y838568D02*
X1731628Y838568D01*
X1731628Y821568D01*
X1714628Y821568D01*
X1714628Y838568D01*
G37*
G36*
X1740028Y838568D02*
X1757028Y838568D01*
X1757028Y821568D01*
X1740028Y821568D01*
X1740028Y838568D01*
G37*
G36*
X1765428Y838568D02*
X1782428Y838568D01*
X1782428Y821568D01*
X1765428Y821568D01*
X1765428Y838568D01*
G37*
G36*
X1790828Y838568D02*
X1807828Y838568D01*
X1807828Y821568D01*
X1790828Y821568D01*
X1790828Y838568D01*
G37*
G36*
X1816228Y838568D02*
X1833228Y838568D01*
X1833228Y821568D01*
X1816228Y821568D01*
X1816228Y838568D01*
G37*
G36*
X1841628Y838568D02*
X1858628Y838568D01*
X1858628Y821568D01*
X1841628Y821568D01*
X1841628Y838568D01*
G37*
G36*
X1867028Y838568D02*
X1884028Y838568D01*
X1884028Y821568D01*
X1867028Y821568D01*
X1867028Y838568D01*
G37*
G36*
X1892428Y838568D02*
X1909428Y838568D01*
X1909428Y821568D01*
X1892428Y821568D01*
X1892428Y838568D01*
G37*
G36*
X1917828Y686168D02*
X1934828Y686168D01*
X1934828Y669168D01*
X1917828Y669168D01*
X1917828Y686168D01*
G37*
G36*
X1892428Y686168D02*
X1909428Y686168D01*
X1909428Y669168D01*
X1892428Y669168D01*
X1892428Y686168D01*
G37*
G36*
X1867028Y686168D02*
X1884028Y686168D01*
X1884028Y669168D01*
X1867028Y669168D01*
X1867028Y686168D01*
G37*
G36*
X1841628Y686168D02*
X1858628Y686168D01*
X1858628Y669168D01*
X1841628Y669168D01*
X1841628Y686168D01*
G37*
G36*
X1816228Y686168D02*
X1833228Y686168D01*
X1833228Y669168D01*
X1816228Y669168D01*
X1816228Y686168D01*
G37*
G36*
X1790828Y686168D02*
X1807828Y686168D01*
X1807828Y669168D01*
X1790828Y669168D01*
X1790828Y686168D01*
G37*
G36*
X1765428Y686168D02*
X1782428Y686168D01*
X1782428Y669168D01*
X1765428Y669168D01*
X1765428Y686168D01*
G37*
G36*
X1740028Y686168D02*
X1757028Y686168D01*
X1757028Y669168D01*
X1740028Y669168D01*
X1740028Y686168D01*
G37*
G36*
X1714628Y686168D02*
X1731628Y686168D01*
X1731628Y669168D01*
X1714628Y669168D01*
X1714628Y686168D01*
G37*
G36*
X1689228Y686168D02*
X1706228Y686168D01*
X1706228Y669168D01*
X1689228Y669168D01*
X1689228Y686168D01*
G37*
G36*
X1663828Y686168D02*
X1680828Y686168D01*
X1680828Y669168D01*
X1663828Y669168D01*
X1663828Y686168D01*
G37*
G36*
X1638428Y686168D02*
X1655428Y686168D01*
X1655428Y669168D01*
X1638428Y669168D01*
X1638428Y686168D01*
G37*
G36*
X1613028Y686168D02*
X1630028Y686168D01*
X1630028Y669168D01*
X1613028Y669168D01*
X1613028Y686168D01*
G37*
G36*
X1587628Y686168D02*
X1604628Y686168D01*
X1604628Y669168D01*
X1587628Y669168D01*
X1587628Y686168D01*
G37*
G36*
X1562228Y686168D02*
X1579228Y686168D01*
X1579228Y669168D01*
X1562228Y669168D01*
X1562228Y686168D01*
G37*
G36*
X1536828Y686168D02*
X1553828Y686168D01*
X1553828Y669168D01*
X1536828Y669168D01*
X1536828Y686168D01*
G37*
G36*
X1511428Y686168D02*
X1528428Y686168D01*
X1528428Y669168D01*
X1511428Y669168D01*
X1511428Y686168D01*
G37*
G36*
X1486028Y686168D02*
X1503028Y686168D01*
X1503028Y669168D01*
X1486028Y669168D01*
X1486028Y686168D01*
G37*
G36*
X1460628Y686168D02*
X1477628Y686168D01*
X1477628Y669168D01*
X1460628Y669168D01*
X1460628Y686168D01*
G37*
G36*
X1917828Y838568D02*
X1934828Y838568D01*
X1934828Y821568D01*
X1917828Y821568D01*
X1917828Y838568D01*
G37*
G36*
X1435228Y686168D02*
X1452228Y686168D01*
X1452228Y669168D01*
X1435228Y669168D01*
X1435228Y686168D01*
G37*
X3182144Y665162D02*
G54D13*
D03*
X3284538Y665162D02*
G54D13*
D03*
X2574131Y669131D02*
G54D13*
D03*
X2676525Y669131D02*
G54D13*
D03*
X2524522Y644525D02*
G54D13*
D03*
X2626916Y644525D02*
G54D13*
D03*
X1164828Y867172D02*
G54D13*
D03*
X1164828Y940594D02*
G54D13*
D03*
X208756Y680244D02*
G54D13*
D03*
X311150Y680244D02*
G54D13*
D03*
X170260Y655241D02*
G54D13*
D03*
X272653Y655241D02*
G54D13*
D03*
X412354Y717550D02*
G54D13*
D03*
X412354Y869553D02*
G54D13*
D03*
X438944Y693738D02*
G54D13*
D03*
X438944Y780653D02*
G54D13*
D03*
X477044Y743347D02*
G54D13*
D03*
X477044Y640953D02*
G54D13*
D03*
X475854Y844947D02*
G54D13*
D03*
X475854Y931862D02*
G54D13*
D03*
X578247Y655241D02*
G54D13*
D03*
X578247Y742156D02*
G54D13*
D03*
X603250Y655241D02*
G54D13*
D03*
X603250Y742156D02*
G54D13*
D03*
X783432Y806053D02*
G54D13*
D03*
X783432Y892969D02*
G54D13*
D03*
X755650Y844550D02*
G54D13*
D03*
X755650Y931466D02*
G54D13*
D03*
X934640Y906463D02*
G54D13*
D03*
X810022Y906066D02*
G54D13*
D03*
X946944Y881063D02*
G54D13*
D03*
X822325Y880666D02*
G54D13*
D03*
X960438Y856456D02*
G54D13*
D03*
X835818Y856060D02*
G54D13*
D03*
X834232Y640556D02*
G54D13*
D03*
X834232Y727472D02*
G54D13*
D03*
X885032Y640556D02*
G54D13*
D03*
X885032Y727472D02*
G54D13*
D03*
X910432Y640556D02*
G54D13*
D03*
X910432Y727472D02*
G54D13*
D03*
X987028Y640556D02*
G54D13*
D03*
X987028Y727472D02*
G54D13*
D03*
X1012032Y640556D02*
G54D13*
D03*
X1012032Y727472D02*
G54D13*
D03*
X1137841Y640556D02*
G54D13*
D03*
X1137841Y727472D02*
G54D13*
D03*
X1165225Y641350D02*
G54D13*
D03*
X1165225Y714772D02*
G54D13*
D03*
X1190228Y640953D02*
G54D13*
D03*
X1190228Y714375D02*
G54D13*
D03*
X1087834Y640159D02*
G54D13*
D03*
X1088231Y740172D02*
G54D13*
D03*
X1113631Y640159D02*
G54D13*
D03*
X1114028Y740172D02*
G54D13*
D03*
X1292622Y696516D02*
G54D13*
D03*
X1293019Y796528D02*
G54D13*
D03*
X1318022Y702469D02*
G54D13*
D03*
X1318419Y802481D02*
G54D13*
D03*
X1368425Y703262D02*
G54D13*
D03*
X1368425Y817166D02*
G54D13*
D03*
X1394222Y703262D02*
G54D13*
D03*
X1394222Y817166D02*
G54D13*
D03*
X1419622Y703262D02*
G54D13*
D03*
X1419622Y817166D02*
G54D13*
D03*
X1400572Y848122D02*
G54D13*
D03*
X1400572Y921544D02*
G54D13*
D03*
X1190228Y425847D02*
G54D13*
D03*
X1190625Y525859D02*
G54D13*
D03*
X900311Y525264D02*
G54D13*
D03*
X987227Y525264D02*
G54D13*
D03*
X899120Y324445D02*
G54D13*
D03*
X1013024Y324445D02*
G54D13*
D03*
X899120Y299045D02*
G54D13*
D03*
X1013024Y299045D02*
G54D13*
D03*
X899120Y273645D02*
G54D13*
D03*
X1013024Y273645D02*
G54D13*
D03*
X899120Y248245D02*
G54D13*
D03*
X1013024Y248245D02*
G54D13*
D03*
X899120Y222845D02*
G54D13*
D03*
X1013024Y222845D02*
G54D13*
D03*
X899120Y197445D02*
G54D13*
D03*
X1013024Y197445D02*
G54D13*
D03*
X1052116Y83344D02*
G54D13*
D03*
X1052116Y197247D02*
G54D13*
D03*
X1114028Y-41672D02*
G54D13*
D03*
X1114425Y58341D02*
G54D13*
D03*
X904875Y-143669D02*
G54D13*
D03*
X905272Y-43656D02*
G54D13*
D03*
X1369616Y58341D02*
G54D13*
D03*
X1370012Y158353D02*
G54D13*
D03*
X1395016Y58341D02*
G54D13*
D03*
X1395412Y158353D02*
G54D13*
D03*
X1420416Y58341D02*
G54D13*
D03*
X1420812Y158353D02*
G54D13*
D03*
X1445816Y58341D02*
G54D13*
D03*
X1446212Y158353D02*
G54D13*
D03*
X1471216Y58341D02*
G54D13*
D03*
X1471612Y158353D02*
G54D13*
D03*
X1496616Y58341D02*
G54D13*
D03*
X1497012Y158353D02*
G54D13*
D03*
X1433910Y-347662D02*
G54D13*
D03*
X1434306Y-247650D02*
G54D13*
D03*
X1801416Y-334962D02*
G54D13*
D03*
X1801812Y-234950D02*
G54D13*
D03*
X2170906Y-336153D02*
G54D13*
D03*
X2171303Y-236141D02*
G54D13*
D03*
X2222103Y-335756D02*
G54D13*
D03*
X2222500Y-235744D02*
G54D13*
D03*
X2259806Y-336153D02*
G54D13*
D03*
X2260203Y-236141D02*
G54D13*
D03*
X2016919Y44053D02*
G54D13*
D03*
X2017316Y144066D02*
G54D13*
D03*
X2209403Y43259D02*
G54D13*
D03*
X2209800Y143272D02*
G54D13*
D03*
X1852216Y233759D02*
G54D13*
D03*
X1852612Y333772D02*
G54D13*
D03*
X1877616Y233362D02*
G54D13*
D03*
X1878012Y333375D02*
G54D13*
D03*
X2069306Y232966D02*
G54D13*
D03*
X2069703Y332978D02*
G54D13*
D03*
X2259012Y221059D02*
G54D13*
D03*
X2259409Y321072D02*
G54D13*
D03*
X2448322Y232966D02*
G54D13*
D03*
X2448719Y332978D02*
G54D13*
D03*
X2640012Y234553D02*
G54D13*
D03*
X2640409Y334566D02*
G54D13*
D03*
X2830512Y233759D02*
G54D13*
D03*
X2830909Y333772D02*
G54D13*
D03*
X3020616Y233759D02*
G54D13*
D03*
X3021012Y333772D02*
G54D13*
D03*
X3208734Y234950D02*
G54D13*
D03*
X3209131Y334962D02*
G54D13*
D03*
X3398440Y235347D02*
G54D13*
D03*
X3398837Y335359D02*
G54D13*
D03*
X3589734Y236538D02*
G54D13*
D03*
X3590131Y336550D02*
G54D13*
D03*
X3780631Y235744D02*
G54D13*
D03*
X3781028Y335756D02*
G54D13*
D03*
X3971925Y234950D02*
G54D13*
D03*
X3972322Y334962D02*
G54D13*
D03*
X2346722Y494506D02*
G54D13*
D03*
X2347119Y594519D02*
G54D13*
D03*
X2157412Y424259D02*
G54D13*
D03*
X2157809Y524272D02*
G54D13*
D03*
X2434828Y728266D02*
G54D13*
D03*
X2435225Y828278D02*
G54D13*
D03*
X4319588Y44847D02*
G54D13*
D03*
X4319984Y144859D02*
G54D13*
D03*
X3437731Y-144066D02*
G54D13*
D03*
X3438128Y-44053D02*
G54D13*
D03*
X3247231Y-143669D02*
G54D13*
D03*
X3247628Y-43656D02*
G54D13*
D03*
X2678112Y-144859D02*
G54D13*
D03*
X2678510Y-44847D02*
G54D13*
D03*
X1850231Y855662D02*
G54D13*
D03*
X1850231Y929084D02*
G54D13*
D03*
X1888728Y855662D02*
G54D13*
D03*
X1888728Y929084D02*
G54D13*
D03*
X1798439Y651073D02*
G54D13*
D03*
X1928614Y651073D02*
G54D13*
D03*
X1953220Y804267D02*
G54D13*
D03*
X1953220Y651073D02*
G54D13*
D03*
X2042914Y701476D02*
G54D13*
D03*
X2195710Y701079D02*
G54D13*
D03*
X2048868Y664170D02*
G54D13*
D03*
X2201663Y663773D02*
G54D13*
D03*
X1659930Y886420D02*
G54D13*
D03*
X1761927Y886420D02*
G54D13*
D03*
X1775818Y860226D02*
G54D14*
D03*
X1673424Y860226D02*
G54D14*
D03*
X1604765Y893564D02*
G54D14*
D03*
X1502371Y893564D02*
G54D14*
D03*
X1502371Y866973D02*
G54D14*
D03*
X1604765Y866973D02*
G54D14*
D03*
X1267818Y790376D02*
G54D14*
D03*
X1242418Y790376D02*
G54D14*
D03*
X1217018Y790376D02*
G54D14*
D03*
X1267818Y687982D02*
G54D14*
D03*
X1242418Y664170D02*
G54D14*
D03*
X1216224Y640754D02*
G54D14*
D03*
X1628577Y928886D02*
G54D13*
D03*
X1628180Y855067D02*
G54D13*
D03*
X2106414Y739973D02*
G54D15*
D03*
X2081014Y739973D02*
G54D15*
D03*
X2055614Y739973D02*
G54D15*
D03*
X2182614Y739973D02*
G54D15*
D03*
X2157214Y739973D02*
G54D15*
D03*
X2131815Y739973D02*
G54D16*
D03*
X1978422Y436166D02*
G54D13*
D03*
X1978818Y536178D02*
G54D13*
D03*
X1597819Y493712D02*
G54D13*
D03*
X1598216Y593725D02*
G54D13*
D03*
X1445618Y525660D02*
G54D14*
D03*
X1445618Y423266D02*
G54D14*
D03*
X1471018Y525660D02*
G54D14*
D03*
X1471018Y423266D02*
G54D14*
D03*
X1496020Y525660D02*
G54D14*
D03*
X1496021Y423266D02*
G54D14*
D03*
X1217018Y526851D02*
G54D14*
D03*
X1217018Y424457D02*
G54D14*
D03*
X1370211Y323254D02*
G54D14*
D03*
X1370212Y220860D02*
G54D14*
D03*
X1395611Y323254D02*
G54D14*
D03*
X1395612Y220860D02*
G54D14*
D03*
X1395611Y323254D02*
G54D14*
D03*
X1395612Y220860D02*
G54D14*
D03*
X1421011Y323254D02*
G54D14*
D03*
X1421012Y220860D02*
G54D14*
D03*
X1421011Y323254D02*
G54D14*
D03*
X1421012Y220860D02*
G54D14*
D03*
X1446411Y323254D02*
G54D14*
D03*
X1446412Y220860D02*
G54D14*
D03*
X1446411Y323254D02*
G54D14*
D03*
X1446412Y220860D02*
G54D14*
D03*
X1471811Y323254D02*
G54D14*
D03*
X1471812Y220860D02*
G54D14*
D03*
X1471811Y323254D02*
G54D14*
D03*
X1471812Y220860D02*
G54D14*
D03*
X1497211Y323254D02*
G54D14*
D03*
X1497212Y220860D02*
G54D14*
D03*
X1332112Y323651D02*
G54D14*
D03*
X1229718Y323651D02*
G54D14*
D03*
X1332509Y298251D02*
G54D14*
D03*
X1230115Y298251D02*
G54D14*
D03*
X1571824Y651867D02*
G54D14*
D03*
X1469430Y651866D02*
G54D14*
D03*
X1419822Y645120D02*
G54D14*
D03*
X1317428Y645119D02*
G54D14*
D03*
X731244Y691554D02*
G54D14*
D03*
X628849Y691554D02*
G54D14*
D03*
X731244Y666154D02*
G54D14*
D03*
X628849Y666154D02*
G54D14*
D03*
X731244Y640754D02*
G54D14*
D03*
X628849Y640754D02*
G54D14*
D03*
X527646Y730448D02*
G54D14*
D03*
X528043Y641151D02*
G54D14*
D03*
X553046Y730845D02*
G54D14*
D03*
X553443Y641548D02*
G54D14*
D03*
X119658Y681235D02*
G54D14*
D03*
X170458Y681235D02*
G54D14*
D03*
X756841Y693738D02*
G54D13*
D03*
X756841Y767159D02*
G54D13*
D03*
X807640Y730250D02*
G54D13*
D03*
X808038Y830262D02*
G54D13*
D03*
X1061640Y857647D02*
G54D13*
D03*
X1061640Y931069D02*
G54D13*
D03*
X1088231Y906462D02*
G54D13*
D03*
X1114028Y879872D02*
G54D13*
D03*
X1138238Y831056D02*
G54D13*
D03*
X1164828Y817166D02*
G54D13*
D03*
X1166019Y741363D02*
G54D13*
D03*
X1138237Y754062D02*
G54D13*
D03*
X1114822Y778669D02*
G54D13*
D03*
X1089422Y778669D02*
G54D13*
D03*
X860028Y727869D02*
G54D13*
D03*
X935831Y727472D02*
G54D13*
D03*
X961628Y727472D02*
G54D13*
D03*
X1037431Y727472D02*
G54D13*
D03*
X860425Y640557D02*
G54D13*
D03*
X936625Y640557D02*
G54D13*
D03*
X962818Y640557D02*
G54D13*
D03*
X1035050Y640557D02*
G54D13*
D03*
X4009628Y664369D02*
G54D13*
D03*
X4112022Y664369D02*
G54D13*
D03*
G54D10*
X2750925Y-44898D02*
X2750925Y54953D01*
X2835672Y139700D01*
X2842017Y139700D01*
X2847078Y144761D01*
G54D10*
X2222500Y-235744D02*
X2222500Y-233760D01*
X2299097Y-157162D01*
X2299097Y-109140D01*
X2339975Y-68262D01*
X2388791Y-68262D01*
X2414984Y-42069D01*
X2505472Y-42069D01*
X2532062Y-68659D01*
X2577306Y-68659D01*
X2603103Y-42862D01*
X2641600Y-42862D01*
X2667000Y-68262D01*
X2768600Y-68262D01*
X2792412Y-44450D01*
X2835672Y-44450D01*
X2859881Y-68659D01*
X2957910Y-68659D01*
X2983706Y-42862D01*
X3022203Y-42862D01*
X3046412Y-67072D01*
X3148012Y-67072D01*
X3170634Y-44450D01*
X3209131Y-44450D01*
X3232150Y-67469D01*
X3332560Y-67469D01*
X3355975Y-44053D01*
X3396060Y-44053D01*
X3419872Y-67866D01*
X3529012Y-67866D01*
X3552825Y-44053D01*
X3590528Y-44053D01*
X3614738Y-68262D01*
X3715544Y-68262D01*
X3739356Y-44450D01*
X3783012Y-44450D01*
X3806031Y-67469D01*
X3905250Y-67469D01*
X3975894Y3175D01*
X4037409Y3175D01*
X4096940Y62706D01*
X4362529Y62706D01*
X4379868Y45368D01*
X4109443Y44648D02*
G54D14*
D03*
X4109840Y146248D02*
G54D14*
D03*
X4191993Y44251D02*
G54D14*
D03*
X4217393Y44251D02*
G54D14*
D03*
G54D17*
X4217393Y44251D02*
X4318992Y44251D01*
X4319588Y44847D01*
G54D10*
X4155620Y-232389D02*
X4155620Y-230642D01*
X4163219Y-223044D01*
X4384796Y-223044D01*
X4394142Y-232389D01*
G54D10*
X4352131Y-222647D02*
X4352131Y-69850D01*
X4322762Y-40481D01*
X4252278Y-40481D01*
X4250870Y-41889D01*
G54D10*
X4322762Y-40481D02*
X4328716Y-40481D01*
X4398962Y29766D01*
X4398962Y58738D01*
X4387850Y69850D01*
X4387850Y142250D01*
X4392171Y146570D01*
G54D10*
X4387453Y122634D02*
X4306887Y122634D01*
X4291806Y137716D01*
X4291806Y156765D01*
X4328319Y193278D01*
X4379119Y193278D01*
X4415234Y229394D01*
X4415234Y383381D01*
X4462462Y430609D01*
X4462462Y506016D01*
X4440634Y527844D01*
X4371015Y527844D01*
X4369257Y526086D01*
X4366192Y526086D01*
X4263231Y629047D01*
X4106466Y629047D01*
X4083844Y651669D01*
X4083844Y764152D01*
X4130734Y811042D01*
X4286818Y811042D01*
X4309666Y788194D01*
X4424760Y788194D01*
X4443412Y806847D01*
X4443412Y824309D01*
X4382690Y885031D01*
X2659856Y885031D01*
X2650728Y875903D01*
X2291953Y875903D01*
X2230040Y813991D01*
X2230040Y645716D01*
X2212975Y628650D01*
X2036366Y628650D01*
X2019300Y645716D01*
X2019300Y681038D01*
X1953419Y746919D01*
X1859756Y746919D01*
X1837928Y725091D01*
X1732756Y725091D01*
X1701006Y693341D01*
X1611800Y693341D01*
X1596128Y677668D01*
X1596128Y672203D01*
X1578372Y654447D01*
X1574404Y654447D01*
X1571824Y651867D01*
G54D18*
X4319984Y144859D02*
X4350147Y144859D01*
X4429522Y224234D01*
X4429522Y379810D01*
X4476750Y427038D01*
X4476750Y670719D01*
X4508103Y702072D01*
X4508103Y805260D01*
X4413250Y900112D01*
X2414984Y900112D01*
X2388394Y926703D01*
X2354262Y926703D01*
X2332831Y905272D01*
X2283619Y905272D01*
X2255044Y933847D01*
X2210990Y933847D01*
X2187575Y910431D01*
X2043112Y910431D01*
X2027238Y926306D01*
X1941512Y926306D01*
X1930003Y914797D01*
X1930003Y880269D01*
X1768078Y880269D01*
X1761927Y886420D01*
X1705570Y886420D01*
X1682750Y909241D01*
X1644650Y909241D01*
X1627584Y892175D01*
X1606154Y892175D01*
X1604765Y893564D01*
X1604765Y866973D01*
X1570236Y866973D01*
X1545431Y842169D01*
X1545431Y830171D01*
X1545328Y830068D01*
G54D18*
X1400572Y921544D02*
X1515665Y921544D01*
X1570236Y866973D01*
G54D18*
X1775818Y860226D02*
X1775818Y880071D01*
X1776016Y880269D01*
G54D18*
X2144316Y715962D02*
X2171701Y716359D01*
X2182614Y739973D01*
G54D18*
X2144316Y715962D02*
X2119312Y715962D01*
X2106414Y739973D01*
G36*
X1967277Y913176D02*
X1967277Y896176D01*
X1950277Y896176D01*
X1950277Y913176D01*
X1967277Y913176D01*
G37*
G36*
X1968071Y887776D02*
X1968071Y870776D01*
X1951071Y870776D01*
X1951071Y887776D01*
X1968071Y887776D01*
G37*
X2009180Y879673D02*
G54D13*
D03*
X2009180Y905073D02*
G54D13*
D03*
X2231827Y904676D02*
G54D13*
D03*
X2336205Y903486D02*
G54D13*
D03*
X2371924Y903486D02*
G54D13*
D03*
X2472333Y901104D02*
G54D13*
D03*
X2535790Y936066D02*
G54D11*
D03*
X2586590Y936066D02*
G54D11*
D03*
G54D18*
X2586590Y936066D02*
X4413412Y936066D01*
X4523581Y825897D01*
X4523581Y679450D01*
X4503340Y659209D01*
X4503340Y-342900D01*
X4435475Y-410766D01*
X255588Y-410766D01*
X74216Y-229394D01*
X74216Y-136128D01*
X129381Y-80962D01*
X129381Y-48022D01*
X59531Y21828D01*
X59531Y908844D01*
X102790Y952103D01*
X430610Y952103D01*
X436166Y957659D01*
X742950Y957659D01*
X744934Y959644D01*
X1583928Y959644D01*
X1591866Y951706D01*
X2043510Y951706D01*
X2058194Y937022D01*
X2179240Y937022D01*
X2193925Y951706D01*
X2397522Y951706D01*
X2413397Y935831D01*
X2535555Y935831D01*
X2535790Y936066D01*
X2586590Y936066D01*
G54D18*
X1888728Y929084D02*
X1888728Y939403D01*
X1877616Y950516D01*
G54D18*
X1888728Y929084D02*
X1888728Y939800D01*
X1897460Y948531D01*
G36*
X1334025Y913974D02*
X1351025Y913974D01*
X1351025Y896974D01*
X1334025Y896974D01*
X1334025Y913974D01*
G37*
G36*
X1334025Y862778D02*
X1351025Y862778D01*
X1351025Y845778D01*
X1334025Y845778D01*
X1334025Y862778D01*
G37*
G36*
X1376822Y927071D02*
X1376822Y910071D01*
X1359822Y910071D01*
X1359822Y927071D01*
X1376822Y927071D01*
G37*
G36*
X1376822Y901671D02*
X1376822Y884671D01*
X1359822Y884671D01*
X1359822Y901671D01*
X1376822Y901671D01*
G37*
G36*
X1376822Y876271D02*
X1376822Y859271D01*
X1359822Y859271D01*
X1359822Y876271D01*
X1376822Y876271D01*
G37*
G36*
X1376822Y850871D02*
X1376822Y833871D01*
X1359822Y833871D01*
X1359822Y850871D01*
X1376822Y850871D01*
G37*
G36*
X1435228Y901671D02*
X1452228Y901671D01*
X1452228Y884671D01*
X1435228Y884671D01*
X1435228Y901671D01*
G37*
G36*
X1460628Y901671D02*
X1477628Y901671D01*
X1477628Y884671D01*
X1460628Y884671D01*
X1460628Y901671D01*
G37*
G36*
X824438Y839362D02*
X841438Y839362D01*
X841438Y822362D01*
X824438Y822362D01*
X824438Y839362D01*
G37*
G36*
X849838Y839362D02*
X866838Y839362D01*
X866838Y822362D01*
X849838Y822362D01*
X849838Y839362D01*
G37*
G36*
X875238Y839362D02*
X892238Y839362D01*
X892238Y822362D01*
X875238Y822362D01*
X875238Y839362D01*
G37*
G36*
X900637Y839362D02*
X917637Y839362D01*
X917637Y822362D01*
X900637Y822362D01*
X900637Y839362D01*
G37*
G36*
X926037Y839362D02*
X943037Y839362D01*
X943037Y822362D01*
X926037Y822362D01*
X926037Y839362D01*
G37*
G36*
X951437Y839362D02*
X968437Y839362D01*
X968437Y822362D01*
X951437Y822362D01*
X951437Y839362D01*
G37*
G36*
X976837Y839362D02*
X993837Y839362D01*
X993837Y822362D01*
X976837Y822362D01*
X976837Y839362D01*
G37*
G36*
X1002237Y839362D02*
X1019237Y839362D01*
X1019237Y822362D01*
X1002237Y822362D01*
X1002237Y839362D01*
G37*
G36*
X1027637Y839362D02*
X1044637Y839362D01*
X1044637Y822362D01*
X1027637Y822362D01*
X1027637Y839362D01*
G37*
G36*
X1053037Y839362D02*
X1070037Y839362D01*
X1070037Y822362D01*
X1053037Y822362D01*
X1053037Y839362D01*
G37*
G36*
X824438Y763162D02*
X841438Y763162D01*
X841438Y746162D01*
X824438Y746162D01*
X824438Y763162D01*
G37*
G36*
X849838Y763162D02*
X866838Y763162D01*
X866838Y746162D01*
X849838Y746162D01*
X849838Y763162D01*
G37*
G36*
X875238Y763162D02*
X892238Y763162D01*
X892238Y746162D01*
X875238Y746162D01*
X875238Y763162D01*
G37*
G36*
X900637Y763162D02*
X917637Y763162D01*
X917637Y746162D01*
X900637Y746162D01*
X900637Y763162D01*
G37*
G36*
X926037Y763162D02*
X943037Y763162D01*
X943037Y746162D01*
X926037Y746162D01*
X926037Y763162D01*
G37*
G36*
X951437Y763162D02*
X968437Y763162D01*
X968437Y746162D01*
X951437Y746162D01*
X951437Y763162D01*
G37*
G36*
X976837Y763162D02*
X993837Y763162D01*
X993837Y746162D01*
X976837Y746162D01*
X976837Y763162D01*
G37*
G36*
X1002237Y763162D02*
X1019237Y763162D01*
X1019237Y746162D01*
X1002237Y746162D01*
X1002237Y763162D01*
G37*
G36*
X1027637Y763162D02*
X1044637Y763162D01*
X1044637Y746162D01*
X1027637Y746162D01*
X1027637Y763162D01*
G37*
G36*
X1053037Y763162D02*
X1070037Y763162D01*
X1070037Y746162D01*
X1053037Y746162D01*
X1053037Y763162D01*
G37*
G36*
X493840Y852856D02*
X510840Y852856D01*
X510840Y835856D01*
X493840Y835856D01*
X493840Y852856D01*
G37*
G36*
X519240Y852856D02*
X536240Y852856D01*
X536240Y835856D01*
X519240Y835856D01*
X519240Y852856D01*
G37*
G36*
X544640Y852856D02*
X561640Y852856D01*
X561640Y835856D01*
X544640Y835856D01*
X544640Y852856D01*
G37*
G36*
X570040Y852856D02*
X587040Y852856D01*
X587040Y835856D01*
X570040Y835856D01*
X570040Y852856D01*
G37*
G36*
X595440Y852856D02*
X612440Y852856D01*
X612440Y835856D01*
X595440Y835856D01*
X595440Y852856D01*
G37*
G36*
X620840Y852856D02*
X637840Y852856D01*
X637840Y835856D01*
X620840Y835856D01*
X620840Y852856D01*
G37*
G36*
X646240Y852856D02*
X663240Y852856D01*
X663240Y835856D01*
X646240Y835856D01*
X646240Y852856D01*
G37*
G36*
X671640Y852856D02*
X688640Y852856D01*
X688640Y835856D01*
X671640Y835856D01*
X671640Y852856D01*
G37*
G36*
X697040Y852856D02*
X714040Y852856D01*
X714040Y835856D01*
X697040Y835856D01*
X697040Y852856D01*
G37*
G36*
X722440Y852856D02*
X739440Y852856D01*
X739440Y835856D01*
X722440Y835856D01*
X722440Y852856D01*
G37*
G36*
X493840Y776656D02*
X510840Y776656D01*
X510840Y759656D01*
X493840Y759656D01*
X493840Y776656D01*
G37*
G36*
X519240Y776656D02*
X536240Y776656D01*
X536240Y759656D01*
X519240Y759656D01*
X519240Y776656D01*
G37*
G36*
X544640Y776656D02*
X561640Y776656D01*
X561640Y759656D01*
X544640Y759656D01*
X544640Y776656D01*
G37*
G36*
X570040Y776656D02*
X587040Y776656D01*
X587040Y759656D01*
X570040Y759656D01*
X570040Y776656D01*
G37*
G36*
X595440Y776656D02*
X612440Y776656D01*
X612440Y759656D01*
X595440Y759656D01*
X595440Y776656D01*
G37*
G36*
X620840Y776656D02*
X637840Y776656D01*
X637840Y759656D01*
X620840Y759656D01*
X620840Y776656D01*
G37*
G36*
X646240Y776656D02*
X663240Y776656D01*
X663240Y759656D01*
X646240Y759656D01*
X646240Y776656D01*
G37*
G36*
X671640Y776656D02*
X688640Y776656D01*
X688640Y759656D01*
X671640Y759656D01*
X671640Y776656D01*
G37*
G36*
X697040Y776656D02*
X714040Y776656D01*
X714040Y759656D01*
X697040Y759656D01*
X697040Y776656D01*
G37*
G36*
X722440Y776656D02*
X739440Y776656D01*
X739440Y759656D01*
X722440Y759656D01*
X722440Y776656D01*
G37*
G36*
X96966Y879446D02*
X113966Y879446D01*
X113966Y862446D01*
X96966Y862446D01*
X96966Y879446D01*
G37*
G36*
X122366Y879446D02*
X139366Y879446D01*
X139366Y862446D01*
X122366Y862446D01*
X122366Y879446D01*
G37*
G36*
X147766Y879446D02*
X164766Y879446D01*
X164766Y862446D01*
X147766Y862446D01*
X147766Y879446D01*
G37*
G36*
X173165Y879446D02*
X190165Y879446D01*
X190165Y862446D01*
X173165Y862446D01*
X173165Y879446D01*
G37*
G36*
X198565Y879446D02*
X215565Y879446D01*
X215565Y862446D01*
X198565Y862446D01*
X198565Y879446D01*
G37*
G36*
X223965Y879446D02*
X240965Y879446D01*
X240965Y862446D01*
X223965Y862446D01*
X223965Y879446D01*
G37*
G36*
X249365Y879446D02*
X266365Y879446D01*
X266365Y862446D01*
X249365Y862446D01*
X249365Y879446D01*
G37*
G36*
X274765Y879446D02*
X291765Y879446D01*
X291765Y862446D01*
X274765Y862446D01*
X274765Y879446D01*
G37*
G36*
X300165Y879446D02*
X317165Y879446D01*
X317165Y862446D01*
X300165Y862446D01*
X300165Y879446D01*
G37*
G36*
X325565Y879446D02*
X342565Y879446D01*
X342565Y862446D01*
X325565Y862446D01*
X325565Y879446D01*
G37*
G36*
X325565Y879446D02*
X342565Y879446D01*
X342565Y862446D01*
X325565Y862446D01*
X325565Y879446D01*
G37*
G36*
X350965Y879446D02*
X367965Y879446D01*
X367965Y862446D01*
X350965Y862446D01*
X350965Y879446D01*
G37*
G36*
X376365Y879446D02*
X393365Y879446D01*
X393365Y862446D01*
X376365Y862446D01*
X376365Y879446D01*
G37*
G36*
X98156Y727443D02*
X115156Y727443D01*
X115156Y710443D01*
X98156Y710443D01*
X98156Y727443D01*
G37*
G36*
X123556Y727443D02*
X140556Y727443D01*
X140556Y710443D01*
X123556Y710443D01*
X123556Y727443D01*
G37*
G36*
X148956Y727443D02*
X165956Y727443D01*
X165956Y710443D01*
X148956Y710443D01*
X148956Y727443D01*
G37*
G36*
X174356Y727443D02*
X191356Y727443D01*
X191356Y710443D01*
X174356Y710443D01*
X174356Y727443D01*
G37*
G36*
X199756Y727443D02*
X216756Y727443D01*
X216756Y710443D01*
X199756Y710443D01*
X199756Y727443D01*
G37*
G36*
X225156Y727443D02*
X242156Y727443D01*
X242156Y710443D01*
X225156Y710443D01*
X225156Y727443D01*
G37*
G36*
X250556Y727443D02*
X267556Y727443D01*
X267556Y710443D01*
X250556Y710443D01*
X250556Y727443D01*
G37*
G36*
X275956Y727443D02*
X292956Y727443D01*
X292956Y710443D01*
X275956Y710443D01*
X275956Y727443D01*
G37*
G36*
X301356Y727443D02*
X318356Y727443D01*
X318356Y710443D01*
X301356Y710443D01*
X301356Y727443D01*
G37*
G36*
X326756Y727443D02*
X343756Y727443D01*
X343756Y710443D01*
X326756Y710443D01*
X326756Y727443D01*
G37*
G36*
X326756Y727443D02*
X343756Y727443D01*
X343756Y710443D01*
X326756Y710443D01*
X326756Y727443D01*
G37*
G36*
X352156Y727443D02*
X369156Y727443D01*
X369156Y710443D01*
X352156Y710443D01*
X352156Y727443D01*
G37*
G36*
X377556Y727443D02*
X394556Y727443D01*
X394556Y710443D01*
X377556Y710443D01*
X377556Y727443D01*
G37*
G54D18*
X170260Y655241D02*
X170260Y681036D01*
X170458Y681235D01*
X170458Y690762D01*
X182562Y702866D01*
X182562Y718650D01*
X182856Y718943D01*
X182856Y727178D01*
X165497Y744538D01*
X116681Y744538D01*
X106760Y734616D01*
X106760Y719046D01*
X106656Y718943D01*
G54D18*
X119658Y681235D02*
X106562Y681235D01*
X80169Y707628D01*
X80169Y750888D01*
X133747Y804466D01*
X81756Y856456D01*
X81756Y883444D01*
X93266Y894953D01*
X412353Y894953D01*
X453231Y935831D01*
X758825Y935831D01*
X764381Y941388D01*
X1559322Y941388D01*
X1571625Y929084D01*
X1628378Y929084D01*
X1628577Y928886D01*
X1850032Y928886D01*
X1850231Y929084D01*
G54D18*
X1368322Y918571D02*
X1368322Y941284D01*
X1368425Y941388D01*
G54D18*
X1443728Y893171D02*
X1443728Y895453D01*
X1436688Y902494D01*
X1393825Y902494D01*
X1377950Y918369D01*
X1368524Y918369D01*
X1368322Y918571D01*
G54D18*
X1342525Y905474D02*
X1342822Y905474D01*
X1354931Y893366D01*
X1368128Y893366D01*
X1368322Y893171D01*
X1378541Y893171D01*
X1388269Y883444D01*
X1419622Y883444D01*
X1430734Y872331D01*
X1469231Y872331D01*
X1489869Y851694D01*
X1489869Y834727D01*
X1494528Y830068D01*
G54D17*
X1469128Y830068D02*
X1469128Y850210D01*
X1460897Y858441D01*
X1420416Y858441D01*
X1410890Y867966D01*
X1368516Y867966D01*
X1368322Y867771D01*
X1356019Y867771D01*
X1342525Y854278D01*
G54D17*
X1469128Y893171D02*
X1501978Y893171D01*
X1502371Y893564D01*
X1502371Y866973D01*
G54D17*
X1394222Y817166D02*
X1400572Y848122D01*
G54D17*
X1368322Y842371D02*
X1368322Y817269D01*
X1368425Y817166D01*
G54D17*
X1311672Y939006D02*
X1311672Y851694D01*
X1329134Y834231D01*
X1367631Y834231D01*
X1368425Y833438D01*
G54D17*
X1596128Y830068D02*
X1596128Y841669D01*
X1604962Y850503D01*
X1623616Y850503D01*
X1628180Y855067D01*
X1628577Y855067D01*
X1659930Y886420D01*
G54D17*
X1164828Y867172D02*
X1193800Y867172D01*
X1216819Y844153D01*
X1216819Y790575D01*
X1217018Y790376D01*
G54D17*
X1017984Y555625D02*
X1225947Y555625D01*
X1282303Y611981D01*
X1282303Y655638D01*
X1304925Y678259D01*
X1330325Y678259D01*
X1363662Y644922D01*
X1419624Y644922D01*
X1419822Y645120D01*
G54D17*
X987227Y525264D02*
X987624Y525264D01*
X1017984Y555625D01*
G54D17*
X1089025Y555625D02*
X1089025Y638969D01*
X1087834Y640159D01*
G54D17*
X1799328Y677668D02*
X1799328Y651962D01*
X1798439Y651073D01*
X1732756Y585391D01*
X1633934Y585391D01*
X1494631Y490141D01*
X1494631Y424656D01*
X1496021Y423266D01*
X1496021Y324444D01*
X1497211Y323254D01*
X1471811Y323254D01*
X1446411Y323254D01*
X1421011Y323254D01*
X1395611Y323254D01*
X1370211Y323254D01*
X1332509Y323254D01*
X1332112Y323651D01*
X1332112Y298648D01*
X1332509Y298251D01*
G54D17*
X1496021Y423266D02*
X1471018Y423266D01*
X1445618Y423266D01*
X1368227Y677266D02*
G54D14*
D03*
X1419027Y677266D02*
G54D14*
D03*
G54D17*
X1368425Y703262D02*
X1368425Y677464D01*
X1368227Y677266D01*
G54D17*
X1419822Y645120D02*
X1419822Y676472D01*
X1419027Y677266D01*
X1443326Y677266D01*
X1443728Y677668D01*
X1443728Y664075D01*
X1456134Y651669D01*
X1469233Y651669D01*
X1469430Y651866D01*
G54D17*
X1394222Y703262D02*
X1394222Y702072D01*
X1419027Y677266D01*
G54D17*
X1850231Y855662D02*
X1888728Y855662D01*
X1915716Y855662D01*
X1926034Y845344D01*
X1926034Y830361D01*
X1926328Y830068D01*
X1926328Y790282D01*
X1937940Y778669D01*
X1966119Y778669D01*
X1978422Y766366D01*
X2093516Y766366D01*
X2106414Y739973D01*
G36*
X1969818Y823487D02*
X1986818Y823487D01*
X1986818Y806487D01*
X1969818Y806487D01*
X1969818Y823487D01*
G37*
X2003718Y814987D02*
G54D14*
D03*
G54D18*
X1978318Y814987D02*
X1978318Y804966D01*
X1991122Y792162D01*
X2128044Y792162D01*
X2157214Y739973D01*
G54D18*
X1953220Y804267D02*
X1953220Y848320D01*
X1921272Y880269D01*
G54D18*
X1978318Y814987D02*
X1954018Y814987D01*
X1953816Y814784D01*
G54D18*
X1958777Y904676D02*
X1958777Y880070D01*
X1959571Y879276D01*
X1967905Y879276D01*
X2003822Y843359D01*
X2003822Y815091D01*
X2003718Y814987D01*
X2139350Y814987D01*
X2182614Y739973D01*
G54D17*
X730940Y844356D02*
X755456Y844356D01*
X755650Y844550D01*
X808038Y830262D01*
G54D17*
X527646Y730448D02*
X552648Y730448D01*
X553046Y730845D01*
X586184Y691356D01*
X628652Y691356D01*
X628849Y691554D01*
X628849Y666154D01*
X628849Y640754D01*
G54D17*
X628849Y691554D02*
X628849Y691952D01*
X655240Y718344D01*
X795734Y718344D01*
X807640Y730250D01*
G54D17*
X832938Y754662D02*
X832938Y728766D01*
X834232Y727472D01*
G54D17*
X858338Y754662D02*
X858338Y729560D01*
X860028Y727869D01*
G54D17*
X883738Y754662D02*
X883738Y728766D01*
X885032Y727472D01*
G54D17*
X909137Y754662D02*
X909137Y728766D01*
X910432Y727472D01*
G54D17*
X934537Y754662D02*
X934537Y728766D01*
X935831Y727472D01*
G54D17*
X959937Y754662D02*
X959937Y729163D01*
X961628Y727472D01*
G54D17*
X985337Y754662D02*
X985337Y729163D01*
X987028Y727472D01*
G54D17*
X1010737Y754662D02*
X1010737Y728766D01*
X1012032Y727472D01*
G54D17*
X1036137Y754662D02*
X1036137Y728766D01*
X1037431Y727472D01*
G54D17*
X1061537Y754662D02*
X1073741Y754662D01*
X1088231Y740172D01*
G54D17*
X730250Y598488D02*
X827088Y598488D01*
X900311Y525264D01*
G54D17*
X834232Y640556D02*
X834232Y605631D01*
X827088Y598488D01*
G54D17*
X730250Y598488D02*
X519509Y598488D01*
X477044Y640953D01*
X286941Y640953D01*
X272653Y655241D01*
G54D18*
X259056Y718943D02*
X259056Y730354D01*
X243284Y746125D01*
X192088Y746125D01*
X133747Y804466D01*
G54D18*
X384865Y870946D02*
X384865Y892676D01*
X384572Y892969D01*
G54D18*
X477044Y743347D02*
X477532Y743347D01*
X502340Y768156D01*
G54D10*
X2009180Y905073D02*
X2014339Y905073D01*
X2031603Y887809D01*
X2189956Y887809D01*
X2223294Y921147D01*
X2246709Y921147D01*
X2284016Y883841D01*
X2352279Y883841D01*
X2371924Y903486D01*
G54D10*
X2284016Y883841D02*
X2284016Y879475D01*
X2222103Y817562D01*
X2222103Y684213D01*
X2201663Y663773D01*
X2201663Y660200D01*
X2178447Y636984D01*
X2038350Y636984D01*
X2025650Y649684D01*
X2025650Y685006D01*
X1955006Y755650D01*
X1856184Y755650D01*
X1832769Y732234D01*
X1729581Y732234D01*
X1698228Y700881D01*
X1543050Y700881D01*
X1532731Y690562D01*
X1532731Y663972D01*
X1526778Y658019D01*
X1508522Y658019D01*
X1497012Y669528D01*
X1497012Y675184D01*
X1494528Y677668D01*
G54D17*
X1469128Y677668D02*
X1494528Y677668D01*
G54D10*
X1545328Y677668D02*
X1545328Y659503D01*
X1520031Y628650D01*
X1360090Y628650D01*
X1326753Y661988D01*
X1309290Y661988D01*
X1297781Y650478D01*
X1297781Y607615D01*
X1217018Y526851D01*
G54D10*
X1190625Y525859D02*
X1191420Y525859D01*
X1217018Y500262D01*
X1235671Y500262D01*
X1263253Y527844D01*
X1318540Y527844D01*
X1320742Y525642D01*
X1323361Y525642D01*
X1341040Y543322D01*
X1341040Y621506D01*
X1317428Y645119D01*
G54D10*
X1341040Y621506D02*
X1525282Y621506D01*
X1570728Y677668D01*
G54D10*
X1519928Y677668D02*
X1519928Y694634D01*
X1517650Y696912D01*
X1425972Y696912D01*
X1419622Y703262D01*
G54D10*
X1519928Y694634D02*
X1519928Y694825D01*
X1534716Y709612D01*
X1695053Y709612D01*
X1727597Y742156D01*
X1831975Y742156D01*
X1853803Y763984D01*
X1955403Y763984D01*
X2031603Y687784D01*
X2031603Y655241D01*
X2041525Y645319D01*
X2139949Y645319D01*
X2195710Y701079D01*
X2195710Y703063D01*
X2213372Y720725D01*
X2213372Y815578D01*
X2149475Y879475D01*
X2009378Y879475D01*
X2009180Y879673D01*
G54D10*
X2231827Y904676D02*
X2231827Y901502D01*
X2179638Y849312D01*
G54D10*
X2042914Y701476D02*
X2042914Y703064D01*
X2051050Y711200D01*
X2051050Y735408D01*
X2055614Y739973D01*
G54D10*
X2048868Y664170D02*
X2050852Y664170D01*
X2085181Y698500D01*
X2085181Y735806D01*
X2081014Y739973D01*
G54D10*
X837406Y913209D02*
X837406Y857647D01*
X835818Y856060D01*
G54D10*
X837406Y913209D02*
X837406Y915194D01*
X822722Y929878D01*
X775097Y929878D01*
X758031Y912812D01*
X468710Y912812D01*
X418703Y869156D01*
X412750Y869156D01*
X412354Y869553D01*
G54D10*
X359465Y870946D02*
X359465Y868069D01*
X373460Y854075D01*
X425053Y854075D01*
X475853Y904875D01*
X760016Y904875D01*
X777081Y921941D01*
X820340Y921941D01*
X827484Y914797D01*
X827484Y885825D01*
X822325Y880666D01*
X822325Y879078D01*
X810022Y866775D01*
X673100Y866775D01*
X658812Y852488D01*
X658812Y848428D01*
X654740Y844356D01*
G54D10*
X680140Y844356D02*
X680140Y846034D01*
X694134Y860028D01*
X831850Y860028D01*
X835818Y856060D01*
G54D10*
X810022Y906066D02*
X810022Y896144D01*
X788988Y875109D01*
X602456Y875109D01*
X580231Y852884D01*
X580231Y846047D01*
X578540Y844356D01*
G54D10*
X783432Y892969D02*
X778669Y892969D01*
X769144Y883444D01*
X585788Y883444D01*
X553640Y851297D01*
X553640Y844856D01*
X553140Y844356D01*
X553140Y849019D01*
X536178Y865981D01*
X468710Y865981D01*
X443310Y840581D01*
X335360Y840581D01*
X311547Y864394D01*
X311547Y868064D01*
X308665Y870946D01*
G54D10*
X334065Y870946D02*
X334065Y867276D01*
X354012Y847328D01*
X433784Y847328D01*
X484584Y898128D01*
X763190Y898128D01*
X776288Y911225D01*
X804862Y911225D01*
X810022Y906066D01*
G54D10*
X783432Y806053D02*
X837406Y806053D01*
X855662Y824309D01*
X855662Y828187D01*
X858338Y830862D01*
X858338Y862306D01*
X918369Y922338D01*
X946944Y922338D01*
X962025Y907256D01*
X1087437Y907256D01*
X1088231Y906462D01*
X1124347Y906462D01*
X1139031Y891778D01*
X1139031Y865981D01*
X1154112Y850900D01*
X1179116Y850900D01*
X1197769Y832247D01*
X1197769Y784622D01*
X1206103Y776288D01*
X1662112Y776288D01*
X1696244Y810419D01*
X1713310Y810419D01*
X1723628Y820738D01*
X1723628Y829568D01*
X1723128Y830068D01*
G54D10*
X2560212Y-44953D02*
X2560212Y48552D01*
X2656365Y144706D01*
G54D10*
X2369499Y-45009D02*
X2369499Y48497D01*
X2465652Y144650D01*
G54D10*
X2941638Y-44842D02*
X2941638Y52790D01*
X3035197Y146349D01*
G54D10*
X2448322Y232966D02*
X2448322Y232568D01*
X2457053Y223838D01*
X2457053Y153249D01*
X2465652Y144650D01*
G54D10*
X2259012Y221059D02*
X2259012Y218281D01*
X2265362Y211931D01*
X2265362Y154171D01*
X2274939Y144595D01*
G54D10*
X2274939Y144595D02*
X2350162Y144595D01*
X2374900Y119856D01*
X2374900Y86916D01*
X2360612Y72628D01*
X2360612Y34131D01*
X2282428Y-44053D01*
X2282428Y-137319D01*
X2194719Y-225028D01*
X2194719Y-240903D01*
X2208212Y-254397D01*
X2568575Y-254397D01*
X2678112Y-144859D01*
G54D10*
X2260203Y-236141D02*
X2260203Y-232568D01*
X2345928Y-146844D01*
X2356564Y-146844D01*
X2357202Y-146212D01*
X2380853Y-169862D01*
X2628503Y-169862D01*
X2674938Y-123428D01*
X2715948Y-123428D01*
X2738622Y-146101D01*
X2739679Y-146101D01*
X2763044Y-169466D01*
X3195638Y-169466D01*
X3241675Y-123428D01*
X3287192Y-123428D01*
X3308166Y-144402D01*
X3308166Y-144676D01*
X3332560Y-169069D01*
X3388122Y-169069D01*
X3435350Y-121841D01*
X3476373Y-121841D01*
X3498879Y-144347D01*
X3498879Y-145286D01*
X3522266Y-168672D01*
X3963988Y-168672D01*
X4005660Y-127000D01*
X4222474Y-127000D01*
X4238567Y-143092D01*
G54D10*
X3882628Y-168672D02*
X3882628Y-146559D01*
X3880305Y-144236D01*
G54D10*
X3691731Y-168672D02*
X3691731Y-146431D01*
X3689592Y-144292D01*
G54D10*
X3438128Y-44053D02*
X3510274Y-44053D01*
X3511182Y-43144D01*
G54D10*
X3396060Y-44053D02*
X3396060Y36996D01*
X3404320Y45256D01*
G54D10*
X3320470Y-43199D02*
X3320470Y50306D01*
X3416623Y146460D01*
G54D10*
X3247628Y-43656D02*
X3320012Y-43656D01*
X3320470Y-43199D01*
G54D10*
X3213606Y45201D02*
X3213606Y-39975D01*
X3209131Y-44450D01*
G54D10*
X3225910Y146404D02*
X3225910Y146160D01*
X3129360Y49609D01*
X3129360Y-42858D01*
X3129756Y-43255D01*
G54D10*
X3022894Y45146D02*
X3022894Y-42172D01*
X3022203Y-42862D01*
G54D10*
X3511182Y-43144D02*
X3511182Y50362D01*
X3607336Y146515D01*
G54D10*
X3589734Y236538D02*
X3589734Y230187D01*
X3596481Y223441D01*
X3596481Y157370D01*
X3607336Y146515D01*
G54D10*
X3701896Y-43089D02*
X3701896Y50417D01*
X3798049Y146570D01*
G54D10*
X3595032Y45312D02*
X3595032Y-39549D01*
X3590528Y-44053D01*
G54D10*
X3785746Y45367D02*
X3785746Y-41717D01*
X3783012Y-44450D01*
G54D10*
X3976246Y45367D02*
X3976246Y3527D01*
X3975894Y3175D01*
G54D10*
X3892609Y-43033D02*
X3892609Y50630D01*
X3988549Y146570D01*
G54D10*
X3971925Y234950D02*
X3971925Y233760D01*
X3980260Y225425D01*
X3980260Y154860D01*
X3988549Y146570D01*
G54D10*
X3980260Y173434D02*
X4152185Y173434D01*
X4179049Y146570D01*
G54D10*
X4242947Y121567D02*
X4134520Y121567D01*
X4109840Y146248D01*
G54D10*
X4191993Y44251D02*
X4191993Y41870D01*
X4198144Y35719D01*
X4198144Y-37307D01*
X4247356Y-86519D01*
X4247356Y-110728D01*
X4267597Y-130969D01*
X4267597Y-161528D01*
X4220369Y-208756D01*
X4141788Y-208756D01*
X4126706Y-223838D01*
X4126706Y-246856D01*
X4137025Y-257175D01*
X4179888Y-257175D01*
X4201716Y-235347D01*
X4275931Y-235347D01*
X4352131Y-311547D01*
X4393010Y-311547D01*
X4404519Y-323056D01*
X4404519Y-340519D01*
X4391819Y-353219D01*
X4253706Y-353219D01*
X4218781Y-388144D01*
X2987278Y-388144D01*
X2911078Y-311944D01*
X2221310Y-311944D01*
X2160984Y-372269D01*
X1668860Y-372269D01*
X1522810Y-226219D01*
X1522810Y6747D01*
X1471216Y58341D01*
G54D10*
X1496616Y58341D02*
X1496616Y56356D01*
X1537494Y15478D01*
X1537494Y-91953D01*
X1679120Y-233580D01*
X1761946Y-233580D01*
X1786731Y-258366D01*
X1934766Y-258366D01*
X1957784Y-235347D01*
X2061766Y-235347D01*
X2105422Y-279003D01*
X2989819Y-279003D01*
X3034052Y-234770D01*
X3347026Y-234770D01*
X3437731Y-144066D01*
G54D10*
X3117453Y-144458D02*
X3117453Y-169466D01*
G54D10*
X3247231Y-143669D02*
X3247231Y-144859D01*
X3184525Y-207566D01*
X2712244Y-207566D01*
X2652712Y-267097D01*
X2142332Y-267097D01*
X2102247Y-227012D01*
X1923813Y-227012D01*
X1916848Y-233977D01*
X1916848Y-61458D01*
X1897062Y-41672D01*
X1823800Y-41672D01*
X1821598Y-43874D01*
X1831361Y-43874D01*
X1833960Y-41275D01*
X1833960Y189706D01*
X1877616Y233362D01*
G54D10*
X1852216Y233759D02*
X1789510Y233759D01*
X1781572Y241697D01*
X1704341Y241697D01*
X1703726Y241083D01*
G54D10*
X4109443Y44648D02*
X4109443Y-31155D01*
X4194572Y-116284D01*
X4239419Y-116284D01*
X4257675Y-134541D01*
X4257675Y-154384D01*
X4244578Y-167481D01*
X4221560Y-167481D01*
X4194175Y-140097D01*
X4130675Y-140097D01*
X4089003Y-181769D01*
X4089003Y-335756D01*
X4069556Y-355203D01*
X3833019Y-355203D01*
X3784600Y-306784D01*
X3173809Y-306784D01*
X3120628Y-359966D01*
X3074194Y-359966D01*
X3031728Y-317500D01*
X2993628Y-317500D01*
X2966244Y-290116D01*
X2061766Y-290116D01*
X1997075Y-354806D01*
X1955403Y-354806D01*
X1915319Y-314722D01*
X1821656Y-314722D01*
X1801416Y-334962D01*
X1801416Y-335756D01*
X1777603Y-359569D01*
X1691603Y-359569D01*
X1666817Y-334783D01*
G54D10*
X2171303Y-236141D02*
X2171303Y-151088D01*
X2166482Y-146267D01*
X2166482Y-142817D01*
X2016522Y7144D01*
X2016522Y43656D01*
X2016919Y44053D01*
G54D10*
X1904545Y-335180D02*
X1906408Y-335180D01*
X1933972Y-362744D01*
X2012156Y-362744D01*
X2038747Y-336153D01*
X2170906Y-336153D01*
X2173288Y-336153D01*
X2209403Y-300038D01*
X2933700Y-300038D01*
X2969419Y-335756D01*
X3021531Y-335756D01*
X3021748Y-335974D01*
X3021748Y-340461D01*
X3050778Y-369491D01*
X3124994Y-369491D01*
X3176984Y-317500D01*
X3778250Y-317500D01*
X3825081Y-364331D01*
X4222750Y-364331D01*
X4251722Y-335359D01*
X4380072Y-335359D01*
X4381839Y-333592D01*
G54D10*
X4143317Y-333592D02*
X4091167Y-333592D01*
X4089003Y-335756D01*
G54D10*
X2929334Y-146046D02*
X2929334Y-169069D01*
G54D10*
X2678510Y-44847D02*
X2750874Y-44847D01*
X2750925Y-44898D01*
G54D10*
X2644062Y43502D02*
X2644062Y-40401D01*
X2641600Y-42862D01*
G54D10*
X2834775Y43558D02*
X2834775Y-43553D01*
X2835672Y-44450D01*
G54D10*
X2453349Y43447D02*
X2453349Y-41936D01*
X2453481Y-42069D01*
G54D10*
X2282428Y-44053D02*
X2179797Y-44053D01*
X2178786Y-45064D01*
G54D10*
X2262636Y43392D02*
X2209536Y43392D01*
X2209403Y43259D01*
X2207022Y43259D01*
X2183606Y19844D01*
X2095415Y19844D01*
X2071923Y43336D01*
X2067642Y43336D01*
X1948656Y162322D01*
X1926034Y162322D01*
X1894284Y194072D01*
X1894284Y242491D01*
X1884362Y252412D01*
X1735138Y252412D01*
X1722040Y265509D01*
X1695847Y265509D01*
X1610519Y180181D01*
X1610519Y130572D01*
X1553766Y73819D01*
X1410494Y73819D01*
X1395016Y58341D01*
X1395016Y53181D01*
X1486297Y-38100D01*
X1486297Y-145256D01*
X1450181Y-181372D01*
X970360Y-180975D01*
X853281Y-44847D01*
X740966Y-44847D01*
X720328Y-65484D01*
X645319Y-65484D01*
X620712Y-40878D01*
X555625Y-40878D01*
X531416Y-65088D01*
X489744Y-65088D01*
X476250Y-51594D01*
X476250Y28264D01*
X496123Y48137D01*
G54D10*
X1356761Y-144292D02*
X1356761Y-181218D01*
X1356916Y-181372D01*
G54D10*
X1228725Y-168672D02*
X1303734Y-168672D01*
X1347788Y-124619D01*
X1366838Y-124619D01*
X1410494Y-168275D01*
X1441847Y-168275D01*
X1471612Y-138509D01*
X1471612Y-43656D01*
X1369616Y58341D01*
G54D10*
X1228725Y-168672D02*
X972344Y-168275D01*
X801688Y23019D01*
X712010Y23019D01*
X686836Y48193D01*
G54D10*
X801688Y23019D02*
X801688Y141684D01*
X758825Y184547D01*
X716756Y184547D01*
X644525Y256778D01*
X627856Y256778D01*
X615553Y244475D01*
X615553Y228997D01*
X573881Y187325D01*
X502840Y187325D01*
X448866Y133350D01*
X448866Y65484D01*
X407590Y24209D01*
X329154Y24209D01*
X305226Y48137D01*
G54D10*
X1114028Y-41672D02*
X1176879Y-41672D01*
X1178351Y-43144D01*
X1369010Y-43144D01*
X1369065Y-43089D01*
G54D10*
X1166019Y-167878D02*
X1166019Y-144376D01*
X1166048Y-144347D01*
G54D10*
X1114028Y-41672D02*
X988926Y-41672D01*
X987454Y-43144D01*
X905784Y-43144D01*
X905272Y-43656D01*
G54D10*
X975151Y-144347D02*
X975151Y-141714D01*
X875903Y-42466D01*
X875903Y71438D01*
X811212Y136128D01*
X811212Y160734D01*
X769144Y202803D01*
X721138Y202803D01*
X686439Y237502D01*
X686026Y237502D01*
X659210Y264319D01*
X617140Y264319D01*
X606028Y253206D01*
X606028Y231775D01*
X576660Y202406D01*
X149101Y202406D01*
X114116Y237391D01*
G54D10*
X304829Y237447D02*
X306272Y237447D01*
X329406Y214312D01*
X577056Y214312D01*
X596503Y233759D01*
X596503Y256381D01*
X612775Y272653D01*
X685800Y272653D01*
X743347Y215106D01*
X870347Y215106D01*
X888603Y196850D01*
X898526Y196850D01*
X899120Y197445D01*
X899120Y149423D01*
X947738Y100806D01*
X1070769Y100806D01*
X1090612Y80962D01*
X1090612Y55166D01*
X1105297Y40481D01*
X1161019Y40481D01*
X1165564Y45026D01*
X1167427Y45026D01*
X1192610Y19844D01*
X1283494Y19844D01*
X1363266Y99616D01*
X1535112Y99616D01*
X1570831Y135334D01*
X1570831Y178594D01*
X1683940Y291703D01*
X1739503Y291703D01*
X1753790Y277416D01*
X1893094Y277416D01*
X1928812Y241697D01*
X1928812Y235106D01*
X1927138Y233431D01*
X1929141Y233431D01*
X1952625Y209947D01*
X2016125Y209947D01*
X2028031Y221853D01*
X2028031Y250428D01*
X2088753Y311150D01*
X2147094Y311150D01*
X2172890Y336947D01*
X2202656Y336947D01*
X2244328Y295275D01*
X2263775Y295275D01*
X2286000Y317500D01*
X2286000Y345678D01*
X2364581Y424259D01*
X2404426Y424259D01*
X2404606Y424439D01*
G54D10*
X2320867Y334745D02*
X2320867Y336889D01*
X2366962Y382984D01*
X2469356Y382984D01*
X2524522Y438150D01*
X2524522Y505222D01*
X2503090Y526653D01*
X2417922Y526653D01*
X2416910Y525642D01*
G54D10*
X2503090Y526653D02*
X2607866Y631428D01*
X2607866Y792163D01*
X2585244Y814784D01*
X2558653Y814784D01*
X2530475Y786606D01*
X2429668Y786606D01*
X2403078Y813197D01*
X2320688Y813197D01*
X2318090Y810598D01*
G54D10*
X2429668Y786606D02*
X2429668Y733425D01*
X2434828Y728266D01*
G54D10*
X2347912Y211534D02*
X2399506Y211534D01*
X2432844Y262731D01*
X2470143Y262731D01*
X2499277Y233598D01*
G54D10*
X2499277Y233598D02*
X2499277Y232811D01*
X2520950Y211138D01*
X2582862Y211138D01*
X2628503Y256778D01*
X2666864Y256778D01*
X2689990Y233653D01*
X2692110Y233653D01*
X2716212Y209550D01*
X2772172Y209550D01*
X2819003Y256381D01*
X2858030Y256381D01*
X2880703Y233708D01*
X2880703Y233576D01*
X2903934Y210344D01*
X2963862Y210344D01*
X3009106Y255588D01*
X3049592Y255588D01*
X3071416Y233764D01*
X3071416Y232569D01*
X3093244Y210741D01*
X3151584Y210741D01*
X3198019Y257175D01*
X3237711Y257175D01*
X3259534Y235351D01*
X3260324Y235351D01*
X3284538Y211138D01*
X3341688Y211138D01*
X3388916Y258366D01*
X3427289Y258366D01*
X3450248Y235407D01*
X3450248Y235134D01*
X3473847Y211534D01*
X3532584Y211534D01*
X3579019Y257969D01*
X3618454Y257969D01*
X3640960Y235462D01*
X3640960Y234127D01*
X3664347Y210741D01*
X3721100Y210741D01*
X3768725Y258366D01*
X3808826Y258366D01*
X3831674Y235518D01*
X3831674Y235501D01*
X3855640Y211534D01*
X3925490Y211534D01*
X3946525Y257969D01*
X3999991Y257969D01*
X4022387Y235573D01*
G54D10*
X4022387Y235573D02*
X4022387Y233304D01*
X4044950Y210741D01*
X4106466Y210741D01*
X4144169Y248444D01*
X4296854Y248444D01*
X4309725Y235573D01*
G54D10*
X4414440Y345281D02*
X4330533Y345281D01*
X4322028Y336776D01*
G54D10*
X3780631Y235744D02*
X3780631Y234156D01*
X3788172Y226616D01*
X3788172Y156448D01*
X3798049Y146570D01*
G54D10*
X3781028Y335756D02*
X3843013Y335756D01*
X3843978Y336721D01*
X3843978Y430383D01*
X3939624Y526030D01*
X3940742Y526030D01*
X4036616Y621903D01*
X4036616Y792560D01*
X4014788Y814388D01*
X3943422Y814388D01*
X3940021Y810986D01*
X3938814Y810986D01*
X3884612Y865188D01*
X2669381Y865188D01*
X2663825Y859631D01*
X2299494Y859631D01*
X2251075Y811212D01*
X2251075Y638175D01*
X2224088Y611188D01*
X2029619Y611188D01*
X2004616Y636191D01*
X2004616Y675084D01*
X1949450Y730250D01*
X1865710Y730250D01*
X1844675Y709216D01*
X1747440Y709216D01*
X1724422Y686197D01*
X1724422Y678962D01*
X1723128Y677668D01*
X1723128Y670616D01*
X1661716Y609203D01*
X1593851Y609203D01*
X1478756Y533400D01*
X1471018Y525660D01*
G54D10*
X114242Y-237946D02*
X114518Y-237946D01*
X136922Y-260350D01*
X271462Y-260350D01*
X271462Y-298725D01*
X305536Y-332799D01*
X305536Y-334111D01*
X357188Y-385762D01*
X2210197Y-385762D01*
X2259806Y-336153D01*
G54D10*
X2222103Y-335756D02*
X2219325Y-335756D01*
X2176066Y-379016D01*
X1465262Y-379016D01*
X1433910Y-347662D01*
G54D10*
X1392238Y-384572D02*
X1392238Y-330994D01*
X1510506Y-212725D01*
X1510506Y-6350D01*
X1445816Y58341D01*
G54D10*
X1420416Y58341D02*
X1420416Y52784D01*
X1497806Y-24606D01*
X1497806Y-147638D01*
X1434306Y-211138D01*
X1434306Y-247650D01*
G54D10*
X1434306Y-211138D02*
X987028Y-211534D01*
X906462Y-120253D01*
G54D10*
X906462Y-120253D02*
X835025Y-120253D01*
X790178Y-165100D01*
X708835Y-165100D01*
X686836Y-143101D01*
X683986Y-143101D01*
X663178Y-163909D01*
X500460Y-163909D01*
X488553Y-175816D01*
X337885Y-175816D01*
X305226Y-143156D01*
G54D10*
X556816Y-165497D02*
X556816Y-298725D01*
X591683Y-333592D01*
G54D10*
X317839Y-231596D02*
X459005Y-231596D01*
X584597Y-357188D01*
X681434Y-357188D01*
X894556Y-144066D01*
X904478Y-144066D01*
X904875Y-143669D01*
G54D10*
X603986Y-232389D02*
X685620Y-232389D01*
X745728Y-292497D01*
G54D10*
X271462Y-260350D02*
X271462Y-141288D01*
X291306Y-121444D01*
X322262Y-121444D01*
X366712Y-165894D01*
X473386Y-165894D01*
X496123Y-143156D01*
G54D10*
X637381Y-30956D02*
X508000Y-30956D01*
X501253Y-37703D01*
G54D10*
X637381Y-30956D02*
X688198Y-30956D01*
X699140Y-41898D01*
G54D10*
X637381Y-30956D02*
X637381Y150019D01*
X698516Y150019D01*
X699140Y149396D01*
G54D10*
X637381Y150019D02*
X509104Y150019D01*
X508426Y149340D01*
X636588Y237728D02*
G54D13*
D03*
X636984Y337741D02*
G54D13*
D03*
G54D10*
X637381Y150019D02*
X637381Y236934D01*
X636588Y237728D01*
G54D10*
X126545Y-136742D02*
X126545Y-136186D01*
X167084Y-95647D01*
X167084Y-33338D01*
X166290Y-32544D01*
X308120Y-32544D01*
X317530Y-41953D01*
G54D10*
X166290Y-32544D02*
X165894Y-32544D01*
X79772Y53578D01*
X79772Y291947D01*
X126419Y338594D01*
G54D10*
X126816Y149285D02*
X80229Y149285D01*
X80169Y149225D01*
G54D10*
X126816Y149285D02*
X317474Y149285D01*
X317530Y149340D01*
G54D10*
X114513Y48082D02*
X116224Y48082D01*
X152400Y11906D01*
X475456Y11906D01*
G54D10*
X244872Y341709D02*
X314073Y341709D01*
X317132Y338650D01*
G54D10*
X244872Y341709D02*
X129534Y341709D01*
X126419Y338594D01*
G54D10*
X244872Y341709D02*
X244872Y531019D01*
X313676Y531019D01*
X317530Y527165D01*
G54D10*
X244872Y531019D02*
X130725Y531019D01*
X126816Y527110D01*
G54D10*
X114513Y425907D02*
X114513Y426824D01*
X79772Y461566D01*
X79772Y530622D01*
X109934Y560784D01*
X746125Y560784D01*
X796528Y504031D01*
X796528Y425450D01*
X773510Y402431D01*
X710422Y402431D01*
X686836Y426018D01*
G54D10*
X508426Y527165D02*
X699084Y527165D01*
X699140Y527221D01*
G54D10*
X631825Y526256D02*
X631825Y342900D01*
X636984Y337741D01*
X697778Y337741D01*
X698742Y338705D01*
X698742Y340761D01*
X706438Y348456D01*
X824310Y348456D01*
X899120Y273645D01*
G54D10*
X631825Y348456D02*
X517836Y348456D01*
X508030Y338650D01*
G54D10*
X899120Y248245D02*
X895946Y248245D01*
X806053Y338138D01*
X744934Y338138D01*
X721519Y314722D01*
X623888Y314722D01*
X597694Y340916D01*
X554831Y340916D01*
X529034Y315119D01*
X485775Y315119D01*
X460772Y340122D01*
X318604Y340122D01*
X317132Y338650D01*
G54D10*
X305226Y425962D02*
X307066Y425962D01*
X329406Y403622D01*
X416719Y403622D01*
X440531Y427434D01*
X494651Y427434D01*
X496123Y425962D01*
G54D10*
X440531Y427434D02*
X440531Y502444D01*
X489347Y551259D01*
X713978Y551259D01*
X725090Y540147D01*
X725090Y514747D01*
X713978Y503634D01*
X665162Y503634D01*
X649288Y487759D01*
X649288Y433388D01*
X691356Y391319D01*
X806847Y391319D01*
X899120Y299045D01*
X904677Y299045D01*
X921940Y281781D01*
X921940Y153194D01*
X960040Y115094D01*
X1110456Y115094D01*
X1163240Y167878D01*
X1281906Y167878D01*
X1341438Y108347D01*
X1529953Y108347D01*
X1560910Y139303D01*
X1560910Y230981D01*
X1588690Y258762D01*
X1588690Y376634D01*
X1633140Y421084D01*
X1638621Y421084D01*
X1641754Y424217D01*
X1643502Y424217D01*
X1704578Y363141D01*
X1787525Y363141D01*
X1844675Y305991D01*
X1891903Y305991D01*
X1913334Y327422D01*
X1913334Y396081D01*
X1942306Y425053D01*
X1942306Y465138D01*
X2025650Y548481D01*
X2087562Y548481D01*
X2129631Y506412D01*
X2129631Y423069D01*
X2104628Y398066D01*
X2049442Y398066D01*
X2023180Y424328D01*
G54D10*
X2069703Y332978D02*
X2128442Y332978D01*
X2130154Y334690D01*
X2130154Y397001D01*
X2157412Y424259D01*
G54D10*
X2157412Y424259D02*
X2157412Y456802D01*
X2226197Y525586D01*
G54D10*
X2213894Y424383D02*
X2213894Y424135D01*
X2236788Y401241D01*
X2303462Y401241D01*
X2327275Y425053D01*
X2327275Y547688D01*
X2509440Y547688D01*
X2598340Y636588D01*
X2598340Y677466D01*
X2586038Y689769D01*
X2559050Y689769D01*
X2517378Y731441D01*
X2487216Y731441D01*
X2441972Y686197D01*
X2328984Y686197D01*
X2305786Y709395D01*
G54D10*
X2496499Y709451D02*
X2527859Y709451D01*
X2566194Y671116D01*
X2572147Y671116D01*
X2574131Y669131D01*
X2574131Y652066D01*
X2479278Y557212D01*
X2211388Y557212D01*
X2187972Y533797D01*
X2187972Y511572D01*
X2173288Y496888D01*
X2150666Y496888D01*
X2090340Y557212D01*
X2023269Y557212D01*
X1976834Y510778D01*
X1952625Y510778D01*
X1935956Y527447D01*
X1889522Y527447D01*
X1863328Y501253D01*
X1822847Y501253D01*
X1803003Y481409D01*
X1803003Y426641D01*
X1897856Y342900D01*
G54D10*
X1897856Y342900D02*
X1897856Y326231D01*
X1887140Y315516D01*
X1846660Y315516D01*
X1787525Y374650D01*
X1724819Y374650D01*
X1651794Y447675D01*
X1629966Y447675D01*
X1578769Y396478D01*
X1578769Y262731D01*
X1551384Y235347D01*
X1551384Y143669D01*
X1524000Y116284D01*
X1345406Y116284D01*
X1286669Y175022D01*
X1158081Y175022D01*
X1106090Y123031D01*
X964010Y123031D01*
X929084Y157956D01*
X929084Y294481D01*
X899120Y324445D01*
X897533Y324445D01*
X796528Y425450D01*
G54D10*
X899120Y222845D02*
X902296Y222845D01*
X915590Y209550D01*
X915590Y148034D01*
X955675Y107950D01*
X1096566Y107950D01*
X1115219Y89297D01*
X1115219Y59134D01*
X1114425Y58341D01*
G54D10*
X1115219Y89297D02*
X1115616Y89297D01*
X1169988Y143669D01*
X1175306Y143669D01*
X1177867Y146230D01*
G54D10*
X875903Y71438D02*
X1040210Y71438D01*
X1052116Y83344D01*
X1052116Y79375D01*
X1130697Y794D01*
X1281906Y794D01*
X1373188Y92075D01*
X1543844Y92075D01*
X1581150Y129381D01*
X1581150Y175419D01*
X1689497Y283766D01*
X1732360Y283766D01*
X1746250Y269875D01*
X1891506Y269875D01*
X1911350Y250031D01*
X1911350Y209947D01*
X1937544Y183753D01*
X1951831Y183753D01*
X2014538Y121047D01*
X2023666Y121047D01*
X2043510Y140891D01*
X2043510Y238125D01*
X2060178Y254794D01*
X2072878Y254794D01*
X2118122Y209550D01*
X2195512Y209550D01*
X2213372Y227409D01*
X2213372Y258763D01*
X2236390Y281781D01*
X2266156Y281781D01*
X2295525Y311150D01*
X2337990Y311150D01*
X2362994Y336153D01*
X2404269Y336153D01*
X2428875Y311547D01*
X2528490Y311547D01*
X2553494Y336550D01*
X2593578Y336550D01*
X2618978Y311150D01*
X2718197Y311150D01*
X2744390Y337344D01*
X2784078Y337344D01*
X2810272Y311150D01*
X2908300Y311150D01*
X2934097Y336947D01*
X2972197Y336947D01*
X2997200Y311944D01*
X3097212Y311944D01*
X3123803Y338534D01*
X3157934Y338534D01*
X3183731Y312738D01*
X3286522Y312738D01*
X3311128Y337344D01*
X3353991Y337344D01*
X3378597Y312738D01*
X3481388Y312738D01*
X3505994Y337344D01*
X3542506Y337344D01*
X3567112Y312738D01*
X3667919Y312738D01*
X3693319Y338138D01*
X3736975Y338138D01*
X3762375Y312738D01*
X3865562Y312738D01*
X3890566Y337741D01*
X3929460Y337741D01*
X3954860Y312341D01*
X4046934Y312341D01*
X4119166Y400844D01*
G54D10*
X4119166Y400844D02*
X4119166Y423751D01*
X4118034Y424882D01*
G54D10*
X4119166Y400844D02*
X4332915Y400844D01*
X4356954Y424883D01*
G54D10*
X3927321Y424827D02*
X3927321Y339879D01*
X3929460Y337741D01*
G54D10*
X4034691Y336776D02*
X3974136Y336776D01*
X3972322Y334962D01*
G54D10*
X4034691Y336776D02*
X4034691Y430438D01*
X4130338Y526086D01*
X4128068Y526086D01*
X4071938Y582216D01*
X4071938Y791766D01*
X4119960Y839788D01*
X4386384Y839788D01*
X4415176Y810995D01*
G54D10*
X4071938Y791766D02*
X3987403Y876300D01*
X2665412Y876300D01*
X2656681Y867569D01*
X2294731Y867569D01*
X2240756Y813594D01*
X2240756Y642144D01*
X2219325Y620712D01*
X2031206Y620712D01*
X2012156Y639762D01*
X2012156Y678259D01*
X1951434Y738981D01*
X1863328Y738981D01*
X1841897Y717550D01*
X1737610Y717550D01*
X1697728Y677668D01*
X1697728Y665456D01*
X1648619Y616347D01*
X1591072Y616347D01*
X1488281Y548878D01*
X1468835Y548878D01*
X1445618Y525660D01*
G54D10*
X1369616Y58341D02*
X1369616Y59134D01*
X1393428Y82947D01*
X1549003Y82947D01*
X1591072Y125016D01*
X1591072Y172641D01*
X1693466Y275034D01*
X1727597Y275034D01*
X1741488Y261144D01*
X1887934Y261144D01*
X1903016Y246062D01*
X1903016Y202009D01*
X1931194Y173831D01*
X1948656Y173831D01*
X2014140Y108347D01*
X2037953Y108347D01*
X2047081Y117475D01*
X2095500Y117475D01*
X2126456Y148431D01*
X2157810Y148431D01*
X2187972Y118269D01*
X2214166Y118269D01*
X2230438Y134541D01*
X2230438Y235347D01*
X2246710Y251619D01*
X2269728Y251619D01*
X2289969Y231378D01*
X2289969Y219869D01*
X2298303Y211534D01*
X2347912Y211534D01*
G54D10*
X2308564Y233542D02*
X2300902Y233542D01*
X2272903Y261541D01*
X2237184Y261541D01*
X2221706Y246062D01*
X2221706Y224234D01*
X2210594Y213122D01*
X2210594Y144066D01*
X2209800Y143272D01*
G54D10*
X2259409Y321072D02*
X2259409Y336947D01*
X2349103Y426641D01*
X2349103Y492125D01*
X2346722Y494506D01*
G54D10*
X2130028Y484584D02*
X2172097Y484584D01*
X2197497Y509984D01*
X2197497Y531019D01*
X2214562Y548084D01*
X2326878Y548084D01*
X2327275Y547688D01*
G54D10*
X2347119Y594519D02*
X2344340Y594519D01*
X2336006Y586184D01*
X2019300Y586184D01*
X1983184Y622300D01*
X1983184Y665956D01*
X1939131Y710009D01*
X1882469Y710009D01*
X1850128Y677668D01*
G54D10*
X2069306Y232966D02*
X2069306Y230981D01*
X2075656Y224631D01*
X2075656Y153109D01*
X2084226Y144539D01*
G54D10*
X2016125Y209947D02*
X2016125Y145256D01*
X2017316Y144066D01*
G54D10*
X2117851Y233486D02*
X2117851Y235221D01*
X2065338Y287734D01*
G54D10*
X1939441Y334634D02*
X1942772Y334634D01*
X1978422Y370284D01*
X1978422Y436166D01*
X1978422Y475456D01*
X2024856Y521891D01*
X2031842Y521891D01*
X2035483Y525531D01*
G54D10*
X1978818Y536178D02*
X1978818Y566341D01*
X1968897Y576262D01*
X1968897Y660003D01*
X1935956Y692944D01*
X1916203Y692944D01*
X1900928Y677668D01*
X1900928Y674187D01*
X1782762Y556022D01*
X1641078Y556022D01*
X1550194Y491331D01*
X1550194Y287338D01*
X1522412Y259556D01*
X1477962Y259556D01*
X1448594Y230188D01*
X1448594Y223042D01*
X1446412Y220860D01*
X1446808Y220860D01*
X1460897Y206772D01*
X1476375Y206772D01*
X1485900Y197247D01*
X1509712Y197247D01*
X1530747Y176212D01*
X1530747Y150019D01*
X1513284Y132556D01*
X1354138Y132556D01*
X1297781Y188912D01*
X1146572Y188912D01*
X1094581Y136922D01*
X973138Y136922D01*
X942975Y167084D01*
X942578Y364331D01*
X751284Y576659D01*
X226616Y576659D01*
X149225Y654050D01*
X149225Y710712D01*
X157456Y718943D01*
G54D10*
X1809295Y-145077D02*
X1809295Y-148092D01*
X1804194Y-153194D01*
X1804194Y-232569D01*
X1801812Y-234950D01*
G54D10*
X1809295Y-145077D02*
X1807189Y-145077D01*
X1768078Y-105966D01*
X1768078Y31750D01*
X1675606Y124222D01*
X1616869Y124222D01*
X1610519Y130572D01*
G54D10*
X1691423Y139880D02*
X1691264Y139880D01*
X1675606Y124222D01*
G54D10*
X136922Y652859D02*
X136922Y714077D01*
X132056Y718943D01*
G54D10*
X136922Y652859D02*
X138510Y652859D01*
X221853Y569516D01*
X748110Y569119D01*
X935831Y361553D01*
X935831Y164306D01*
X969962Y130175D01*
X1100931Y130175D01*
X1152922Y182166D01*
X1292622Y182166D01*
X1349772Y125016D01*
X1518840Y125016D01*
X1543050Y149225D01*
X1543050Y179388D01*
X1515666Y206772D01*
X1485900Y206772D01*
X1471812Y220860D01*
G54D10*
X208256Y718943D02*
X208256Y680745D01*
X208756Y680244D01*
G54D10*
X233656Y718943D02*
X233656Y717843D01*
X227410Y711597D01*
X227410Y644525D01*
X285750Y586184D01*
X753666Y585391D01*
X950119Y367506D01*
X950119Y172641D01*
X977900Y144859D01*
X1089422Y144859D01*
X1141412Y196850D01*
X1302940Y196850D01*
X1358106Y141684D01*
X1506538Y141684D01*
X1519634Y154781D01*
X1519634Y169069D01*
X1500188Y188516D01*
X1483519Y188516D01*
X1474390Y197644D01*
X1458516Y197644D01*
X1450578Y205581D01*
X1436290Y205581D01*
X1421012Y220860D01*
G54D10*
X2448719Y332978D02*
X2509758Y332978D01*
X2511580Y334801D01*
X2514835Y334801D01*
X2540000Y359966D01*
X2540000Y465534D01*
X2594372Y519906D01*
X2598896Y519906D01*
X2604632Y525642D01*
X2604632Y525800D01*
X2620962Y542131D01*
X2620962Y638572D01*
X2626916Y644525D01*
X2623740Y644525D01*
X2620962Y647303D01*
X2620962Y797719D01*
X2595166Y823516D01*
X2521664Y823516D01*
X2508802Y810654D01*
G54D10*
X2593578Y336550D02*
X2593578Y423190D01*
X2592328Y424439D01*
G54D10*
X2640409Y334566D02*
X2702002Y334566D01*
X2702293Y334856D01*
X2702293Y432646D01*
X2795345Y525698D01*
X2795345Y526896D01*
X2697956Y624284D01*
X2672953Y624284D01*
X2632472Y664766D01*
X2632472Y788194D01*
X2679303Y835025D01*
X2865968Y835025D01*
X2890229Y810764D01*
G54D10*
X2687212Y709506D02*
X2687212Y679818D01*
X2676525Y669131D01*
G54D10*
X2687212Y679818D02*
X3167488Y679818D01*
X3182144Y665162D01*
G54D10*
X3068240Y681434D02*
X3068240Y709219D01*
X3068638Y709617D01*
G54D10*
X2878931Y680641D02*
X2878931Y708555D01*
X2877925Y709561D01*
G54D10*
X2641203Y798512D02*
X2640806Y798512D01*
X2603103Y836216D01*
X2493169Y836216D01*
X2462610Y805656D01*
X2427288Y805656D01*
X2397125Y835819D01*
X2310210Y835819D01*
X2275681Y801291D01*
X2275681Y698103D01*
X2295922Y677862D01*
X2527300Y677862D01*
X2546747Y658416D01*
X2546747Y638969D01*
X2473325Y565547D01*
X2208212Y565547D01*
X2177653Y534988D01*
X2177653Y515937D01*
X2167731Y506016D01*
X2153047Y506016D01*
X2093516Y565547D01*
X1979612Y565547D01*
X1978818Y566341D01*
G54D10*
X2524522Y644525D02*
X2511028Y644525D01*
X2439988Y573484D01*
X2204244Y573484D01*
X2160984Y530225D01*
X2160984Y527447D01*
X2157809Y524272D01*
X2157412Y524272D01*
X2107406Y574278D01*
X2019300Y574278D01*
X1975644Y617934D01*
X1975644Y662781D01*
X1936353Y702072D01*
X1895872Y702072D01*
X1876822Y683022D01*
X1876822Y678963D01*
X1875528Y677668D01*
X1875528Y672599D01*
X1766490Y563562D01*
X1638300Y563562D01*
X1539081Y494109D01*
X1539081Y294878D01*
X1514872Y270669D01*
X1465660Y270669D01*
X1424781Y229791D01*
X1424781Y224630D01*
X1421012Y220860D01*
G54D10*
X2784078Y337344D02*
X2784078Y423458D01*
X2783042Y424494D01*
G54D10*
X2893006Y334911D02*
X2832049Y334911D01*
X2830909Y333772D01*
G54D10*
X2893006Y334911D02*
X2893006Y432702D01*
X2986058Y525753D01*
G54D10*
X2973754Y424550D02*
X2973754Y416749D01*
X2975769Y414734D01*
X2975769Y340519D01*
X2972197Y336947D01*
G54D10*
X3021012Y333772D02*
X3082524Y333772D01*
X3083719Y334967D01*
X3083719Y432756D01*
X3176772Y525808D01*
G54D10*
X3176772Y525808D02*
X3176772Y527234D01*
X3206353Y556816D01*
X3206353Y765175D01*
X3155553Y815975D01*
X3086098Y815975D01*
X3080942Y810820D01*
X3080142Y810820D01*
X3046016Y844947D01*
X2309416Y844947D01*
X2267347Y802878D01*
X2267347Y629047D01*
X2232819Y594519D01*
X2022872Y594519D01*
X1990725Y626666D01*
X1990725Y668338D01*
X1942306Y716756D01*
X1874838Y716756D01*
X1851819Y693738D01*
X1782762Y693738D01*
X1776016Y686991D01*
X1776016Y679756D01*
X1773928Y677668D01*
G54D10*
X2435225Y828278D02*
X2435225Y844947D01*
G54D10*
X2699516Y810709D02*
X2691896Y810709D01*
X2644378Y763191D01*
X2644378Y671910D01*
X2679700Y636588D01*
X2875223Y636588D01*
X2986058Y525753D01*
G54D10*
X3164468Y424605D02*
X3164468Y345068D01*
X3157934Y338534D01*
G54D10*
X3271838Y336554D02*
X3271838Y430217D01*
X3367484Y525864D01*
G54D10*
X3271838Y336554D02*
X3210723Y336554D01*
X3209131Y334962D01*
G54D10*
X3355181Y424661D02*
X3355181Y338534D01*
X3353991Y337344D01*
G54D10*
X3367480Y525864D02*
X3231753Y661591D01*
X3231753Y753666D01*
X3126978Y858441D01*
X2676922Y858441D01*
X2670572Y852091D01*
X2304256Y852091D01*
X2259410Y807244D01*
X2259410Y633810D01*
X2228850Y603250D01*
X2025253Y603250D01*
X1997869Y630634D01*
X1997869Y671909D01*
X1946672Y723106D01*
X1869281Y723106D01*
X1847850Y701675D01*
X1766888Y701675D01*
X1750219Y685006D01*
X1750219Y679359D01*
X1748528Y677668D01*
X1748528Y670616D01*
X1680766Y602853D01*
X1607344Y602853D01*
X1598216Y593725D01*
G54D10*
X3398837Y335359D02*
X3461300Y335359D01*
X3462551Y336610D01*
X3462551Y430273D01*
X3558198Y525919D01*
X3558198Y526043D01*
X3459162Y625078D01*
X3283347Y625078D01*
X3244850Y663575D01*
X3244850Y737790D01*
X3348434Y841375D01*
X3528095Y841375D01*
X3558594Y810876D01*
G54D10*
X3231753Y753666D02*
X3335734Y857647D01*
X3702592Y857647D01*
X3749308Y810931D01*
G54D10*
X3367882Y810820D02*
X3362330Y810820D01*
X3257947Y706438D01*
X3257947Y665956D01*
X3286522Y637381D01*
X3637504Y637381D01*
X3748910Y525975D01*
X3747806Y525975D01*
X3654028Y432197D01*
X3654028Y337430D01*
X3653264Y336665D01*
X3590246Y336665D01*
X3590131Y336550D01*
G54D10*
X3736607Y424772D02*
X3736607Y338505D01*
X3736975Y338138D01*
G54D10*
X3545894Y424716D02*
X3545894Y340732D01*
X3542506Y337344D01*
G54D10*
X3398440Y235347D02*
X3398440Y232966D01*
X3405188Y226219D01*
X3405188Y157895D01*
X3416623Y146460D01*
G54D10*
X4118430Y709839D02*
X4118430Y704511D01*
X4115990Y702072D01*
X4115990Y668337D01*
X4112022Y664369D01*
G54D10*
X4116388Y679450D02*
X4372531Y679450D01*
X4402873Y709792D01*
G54D10*
X4009628Y664369D02*
X4009628Y666353D01*
X3996134Y679847D01*
X3299222Y679847D01*
X3284538Y665162D01*
G54D10*
X3355578Y709617D02*
X3355578Y680244D01*
G54D10*
X3546291Y709672D02*
X3546291Y680428D01*
X3546475Y680244D01*
G54D10*
X3737004Y709728D02*
X3737004Y680670D01*
X3736975Y680641D01*
G54D10*
X3927717Y709783D02*
X3927717Y680486D01*
X3927475Y680244D01*
G54D10*
X1034992Y525642D02*
X1040786Y525642D01*
X1043384Y528241D01*
X1188244Y528241D01*
X1190625Y525859D01*
G54D10*
X1900928Y830068D02*
X1900928Y823412D01*
X1829197Y751681D01*
X1724819Y751681D01*
X1695450Y722312D01*
X1252140Y722312D01*
X1212056Y682228D01*
X1141810Y682228D01*
X1135460Y688578D01*
X1123553Y688578D01*
X1112440Y699691D01*
X947340Y699691D01*
X933847Y713184D01*
X869553Y713184D01*
X862012Y720725D01*
X862012Y725885D01*
X860028Y727869D01*
G54D10*
X1875528Y830068D02*
X1875528Y826587D01*
X1808162Y759222D01*
X1720453Y759222D01*
X1691481Y730250D01*
X1249760Y730250D01*
X1208088Y688578D01*
X1146175Y688578D01*
X1139428Y695325D01*
X1127125Y695325D01*
X1114822Y707628D01*
X955675Y707628D01*
X935831Y727472D01*
G54D10*
X961628Y727472D02*
X975916Y713184D01*
X1119188Y713184D01*
X1129903Y702469D01*
X1142603Y702469D01*
X1149350Y695722D01*
X1205310Y695722D01*
X1248172Y738584D01*
X1687512Y738584D01*
X1717278Y768350D01*
X1795066Y768350D01*
X1847850Y821134D01*
X1847850Y827790D01*
X1850128Y830068D01*
G54D10*
X1824728Y830068D02*
X1824728Y824999D01*
X1776016Y776288D01*
X1713310Y776288D01*
X1683147Y746125D01*
X1244997Y746125D01*
X1200944Y702072D01*
X1154112Y702072D01*
X1147366Y708819D01*
X1133475Y708819D01*
X1118394Y723900D01*
X1041003Y723900D01*
X1037431Y727472D01*
G54D10*
X1036137Y754662D02*
X1036137Y760119D01*
X1024334Y771922D01*
X960834Y771922D01*
X941388Y791369D01*
X804862Y791369D01*
X764778Y751284D01*
X697011Y751284D01*
X680140Y768156D01*
X680140Y768851D01*
X652066Y796925D01*
X455216Y796925D01*
X438944Y780653D01*
G54D10*
X1799328Y830068D02*
X1799328Y825396D01*
X1758950Y785019D01*
X1711325Y785019D01*
X1680369Y754062D01*
X1191419Y754062D01*
X1164828Y780653D01*
X1164828Y817166D01*
X1164828Y815975D01*
X1162050Y813197D01*
X1129903Y813197D01*
X1071562Y871538D01*
X1051322Y871538D01*
X1036638Y856853D01*
X1036638Y831363D01*
X1036137Y830862D01*
G54D10*
X1036638Y856853D02*
X960834Y856853D01*
X960438Y856456D01*
G54D10*
X934537Y830862D02*
X934537Y831954D01*
X930275Y836216D01*
X930275Y902097D01*
X934640Y906463D01*
X948531Y906463D01*
X966390Y888603D01*
X1105297Y888603D01*
X1114028Y879872D01*
G54D10*
X1114028Y879872D02*
X1114028Y878284D01*
X1149350Y842962D01*
X1175544Y842962D01*
X1189434Y829072D01*
X1189434Y779462D01*
X1199356Y769541D01*
X1670050Y769541D01*
X1702594Y802084D01*
X1726010Y802084D01*
X1747044Y823119D01*
X1747044Y828584D01*
X1748528Y830068D01*
G54D10*
X1773928Y830068D02*
X1773928Y825396D01*
X1741884Y793353D01*
X1706960Y793353D01*
X1675606Y762000D01*
X1195388Y762000D01*
X1181894Y775494D01*
X1181894Y824309D01*
X1172369Y833834D01*
X1141016Y833834D01*
X1138238Y831056D01*
X1135460Y831056D01*
X1085850Y880666D01*
X947340Y880666D01*
X946944Y881063D01*
X946944Y876697D01*
X942181Y871934D01*
X942181Y851297D01*
X955278Y838200D01*
X955278Y835521D01*
X959937Y830862D01*
G54D17*
X1061640Y857647D02*
X1061640Y830966D01*
X1061537Y830862D01*
G54D10*
X1010737Y830862D02*
X1010737Y828779D01*
X1025922Y813594D01*
X1119981Y813594D01*
X1164431Y769144D01*
X1164431Y742951D01*
X1166019Y741363D01*
X1166415Y741363D01*
X1188640Y719138D01*
X1188640Y715962D01*
X1190228Y714375D01*
G54D10*
X985337Y830862D02*
X985337Y829175D01*
X1008460Y806053D01*
X1114425Y806053D01*
X1137840Y782638D01*
X1137840Y754458D01*
X1138237Y754062D01*
G54D10*
X909137Y830862D02*
X909137Y830763D01*
X931862Y808038D01*
X963216Y808038D01*
X972740Y798512D01*
X1097756Y798512D01*
X1112044Y784225D01*
X1112044Y781447D01*
X1114822Y778669D01*
G54D10*
X883738Y830862D02*
X883738Y829572D01*
X914797Y798512D01*
X956469Y798512D01*
X963216Y791766D01*
X1076325Y791766D01*
X1089422Y778669D01*
G54D10*
X1089422Y778669D02*
X1093390Y775494D01*
X1114028Y740172D01*
G54D10*
X1114822Y778669D02*
X1116806Y763985D01*
X1137841Y727472D01*
G54D10*
X1138237Y754062D02*
X1146174Y743347D01*
X1165225Y714772D01*
G54D10*
X832938Y830862D02*
X832938Y832144D01*
X850106Y849312D01*
X850106Y867172D01*
X912019Y929084D01*
X964010Y929084D01*
X976710Y916384D01*
X1071960Y916384D01*
X1081088Y925512D01*
X1220390Y925512D01*
X1348184Y797719D01*
X1596628Y797719D01*
X1620838Y821928D01*
X1620838Y829378D01*
X1621528Y830068D01*
G54D10*
X1596128Y830068D02*
X1596128Y826984D01*
X1574403Y805259D01*
X1454150Y805259D01*
X1442640Y816769D01*
X1442640Y828981D01*
X1443728Y830068D01*
G54D10*
X1419622Y817166D02*
X1419622Y833041D01*
X1431925Y845344D01*
X1452562Y845344D01*
X1456531Y841375D01*
X1456531Y816769D01*
X1460103Y813197D01*
X1561306Y813197D01*
X1570434Y822325D01*
X1570434Y829775D01*
X1570728Y830068D01*
G54D10*
X1502371Y866973D02*
X1510706Y849213D01*
X1519928Y830068D01*
G54D10*
X1621528Y830068D02*
X1622628Y830068D01*
X1638300Y845741D01*
X1658938Y845741D01*
X1673424Y860226D01*
G54D10*
X1293019Y796528D02*
X1299369Y796528D01*
X1312862Y783034D01*
X1655762Y783034D01*
X1695053Y822325D01*
X1695053Y827393D01*
X1697728Y830068D01*
G54D10*
X1318419Y802481D02*
X1322388Y802481D01*
X1334294Y790575D01*
X1612503Y790575D01*
X1643062Y821134D01*
X1643062Y826203D01*
X1646928Y830068D01*
G54D10*
X1844770Y525476D02*
X1844770Y596111D01*
X1926328Y677668D01*
G54D10*
X1844770Y525476D02*
X1790687Y525476D01*
X1768078Y548084D01*
X1644253Y548084D01*
X1560512Y488553D01*
G54D10*
X1560512Y488553D02*
X1560512Y275828D01*
X1534319Y249634D01*
X1495028Y249634D01*
X1473994Y228600D01*
X1473994Y223042D01*
X1471812Y220860D01*
G54D10*
X1497212Y220860D02*
X1520229Y220860D01*
X1570038Y270669D01*
X1570038Y465931D01*
X1597819Y493712D01*
X1639018Y525859D01*
X1654057Y525420D01*
G54D10*
X1654057Y525420D02*
X1728433Y525420D01*
X1776412Y477441D01*
X1776412Y409972D01*
X1852612Y333772D01*
G54D10*
X1878012Y333375D02*
X1876425Y333375D01*
X1794272Y415528D01*
X1794272Y525066D01*
G54D10*
X1832467Y424273D02*
X1832467Y424164D01*
X1856581Y400050D01*
X1909366Y400050D01*
X1913334Y396081D01*
G54D10*
X1395612Y220860D02*
X1395612Y222449D01*
X1457325Y284162D01*
X1508522Y284162D01*
X1529160Y304800D01*
X1529160Y498872D01*
X1636316Y571500D01*
X1750219Y571500D01*
X1848247Y669528D01*
X1848247Y675787D01*
X1850128Y677668D01*
G54D10*
X1496020Y525660D02*
X1523801Y525660D01*
X1629966Y596503D01*
X1699419Y596503D01*
X1770460Y667544D01*
X1770460Y674200D01*
X1773928Y677668D01*
G54D10*
X1672328Y677668D02*
X1672328Y668234D01*
X1626790Y622697D01*
X1587103Y622300D01*
X1487884Y556816D01*
X1451769Y556816D01*
X1429940Y534988D01*
X1429940Y390525D01*
X1397397Y357981D01*
X1331122Y357981D01*
X1305324Y332183D01*
X1305324Y290907D01*
X1316434Y279797D01*
X1346200Y279797D01*
X1370410Y255588D01*
X1370410Y221058D01*
X1370212Y220860D01*
G54D10*
X1646928Y677668D02*
X1644059Y667746D01*
X1488678Y565547D01*
X1448594Y565547D01*
X1422003Y538956D01*
X1422003Y397669D01*
X1393031Y368697D01*
X1303734Y368697D01*
X1235869Y300831D01*
X1232696Y300831D01*
X1230115Y298251D01*
X1225749Y298251D01*
X1208881Y315119D01*
X1208881Y332184D01*
X1237456Y360759D01*
X1237456Y433388D01*
X1218010Y452834D01*
X1190228Y452834D01*
X1021556Y255588D01*
X1013024Y248245D01*
G54D10*
X1621528Y677668D02*
X1621834Y660999D01*
X1490266Y574278D01*
X1444625Y574278D01*
X1414066Y543719D01*
X1414066Y406003D01*
X1389856Y381794D01*
X1287861Y381794D01*
X1229718Y323651D01*
G54D10*
X1189038Y463947D02*
X1223962Y463947D01*
X1251347Y436562D01*
X1251347Y421878D01*
X1291034Y382191D01*
G54D10*
X1308439Y424439D02*
X1303158Y424439D01*
X1251347Y476250D01*
X1182291Y476250D01*
X1013024Y299045D01*
G54D10*
X1013024Y273645D02*
X1021358Y276027D01*
X1189038Y463947D01*
G54D10*
X1013024Y222845D02*
X1023342Y230386D01*
X1190228Y425847D01*
G54D10*
X1217018Y424457D02*
X1217018Y424062D01*
X1196578Y403622D01*
X1196578Y292894D01*
X1227138Y262334D01*
X1301750Y262334D01*
X1366838Y197247D01*
X1417638Y197247D01*
X1426369Y188516D01*
X1436290Y188516D01*
X1445419Y179388D01*
X1455738Y179388D01*
X1470025Y165100D01*
X1470025Y159941D01*
X1471612Y158353D01*
G54D10*
X1370212Y220860D02*
X1370212Y220463D01*
X1383903Y206772D01*
X1422003Y206772D01*
X1431528Y197247D01*
X1445022Y197247D01*
X1454150Y188119D01*
X1470025Y188119D01*
X1494631Y163512D01*
X1494631Y160734D01*
X1497012Y158353D01*
G54D10*
X1446212Y158353D02*
X1446212Y161528D01*
X1426766Y180975D01*
X1418431Y180975D01*
X1409700Y189706D01*
X1360090Y189706D01*
X1323578Y226219D01*
X1118790Y226219D01*
X1065610Y173038D01*
X993378Y173038D01*
X976710Y189706D01*
X976710Y385366D01*
X942578Y419497D01*
X942578Y577056D01*
X971550Y606028D01*
X979884Y606028D01*
X1009650Y635794D01*
X1009650Y638175D01*
X1012032Y640556D01*
G54D10*
X1012032Y640556D02*
X1012032Y644922D01*
X991394Y665559D01*
X914003Y665559D01*
X903288Y676275D01*
X802084Y676275D01*
X783828Y658019D01*
X739379Y658019D01*
X731244Y666154D01*
G54D10*
X731244Y640754D02*
X778073Y640754D01*
X807640Y670322D01*
X897334Y670322D01*
X910828Y656828D01*
X946547Y656828D01*
X962818Y640557D01*
G54D17*
X910432Y640556D02*
X936625Y640557D01*
G54D17*
X987028Y640556D02*
X962818Y640557D01*
G54D10*
X925910Y638969D02*
X925910Y411956D01*
X963216Y374650D01*
X963216Y182166D01*
X986234Y159147D01*
X1077516Y159147D01*
X1129903Y211534D01*
X1313656Y211534D01*
X1350566Y174625D01*
X1383903Y174625D01*
X1393825Y164703D01*
X1393825Y159941D01*
X1395412Y158353D01*
G54D10*
X1370012Y158353D02*
X1354138Y158353D01*
X1308100Y204391D01*
X1135460Y204391D01*
X1083072Y152003D01*
X981472Y152003D01*
X956469Y177006D01*
X956469Y373459D01*
X918766Y411162D01*
X918766Y606822D01*
X885032Y640556D01*
G54D10*
X860425Y640557D02*
X860425Y642938D01*
X845740Y657622D01*
X826690Y657622D01*
X782240Y613172D01*
X556022Y613172D01*
X528043Y641151D01*
G54D10*
X553443Y641548D02*
X555030Y641548D01*
X576660Y619919D01*
X773112Y619919D01*
X817166Y663972D01*
X890190Y663972D01*
X908447Y645716D01*
X908447Y642541D01*
X910432Y640556D01*
G54D10*
X731244Y691554D02*
X734021Y691554D01*
X756444Y669131D01*
X780653Y669131D01*
X794940Y683419D01*
X908447Y683419D01*
X918766Y673100D01*
X995760Y673100D01*
X1012428Y656431D01*
X1049734Y656431D01*
X1068784Y675481D01*
X1105694Y675481D01*
X1112044Y669131D01*
X1124347Y669131D01*
X1131094Y662384D01*
X1171575Y662384D01*
X1187847Y646112D01*
X1187847Y643334D01*
X1190228Y640953D01*
G54D10*
X1052910Y644128D02*
X1052910Y653256D01*
X1049734Y656431D01*
G54D10*
X1052910Y644128D02*
X1052910Y610394D01*
X1039019Y596503D01*
X977106Y596503D01*
X949325Y568722D01*
X949325Y423862D01*
X983853Y389334D01*
X983853Y198041D01*
X1001316Y180578D01*
X1035447Y180578D01*
X1052116Y197247D01*
G54D10*
X962818Y640557D02*
X962818Y637381D01*
X934244Y608806D01*
X934244Y415925D01*
X970360Y379809D01*
X970360Y186531D01*
X990600Y166291D01*
X1072356Y166291D01*
X1125538Y219472D01*
X1317625Y219472D01*
X1355328Y181769D01*
X1403747Y181769D01*
X1420416Y165100D01*
X1420416Y158750D01*
X1420812Y158353D01*
G54D10*
X1013024Y197445D02*
X1010642Y197445D01*
X990997Y217091D01*
X990997Y393303D01*
X958056Y426244D01*
X958056Y561181D01*
X985044Y588169D01*
X1041400Y588169D01*
X1061640Y608409D01*
X1061640Y657225D01*
X1073547Y669131D01*
X1101328Y669131D01*
X1107678Y662781D01*
X1121569Y662781D01*
X1128316Y656034D01*
X1150540Y656034D01*
X1165225Y641350D01*
X1165225Y638969D01*
X1180703Y623491D01*
X1202928Y623491D01*
X1212850Y633412D01*
X1212850Y637380D01*
X1216224Y640754D01*
G54D10*
X1013024Y299045D02*
X1012230Y299045D01*
X998538Y312738D01*
X998538Y396478D01*
X965200Y429816D01*
X965200Y553244D01*
X991394Y579438D01*
X1045766Y579438D01*
X1067990Y601662D01*
X1067990Y653256D01*
X1077516Y662781D01*
X1096962Y662781D01*
X1103312Y656431D01*
X1119188Y656431D01*
X1131888Y643731D01*
X1134666Y643731D01*
X1137841Y640556D01*
X1164034Y614362D01*
X1219200Y614362D01*
X1242219Y637381D01*
X1242219Y663971D01*
X1242418Y664170D01*
G54D10*
X1267818Y687982D02*
X1267818Y682824D01*
X1264444Y679450D01*
X1264444Y645319D01*
X1220788Y601662D01*
X1152128Y601662D01*
X1113631Y640159D01*
X1110456Y640159D01*
X1094581Y656034D01*
X1081484Y656034D01*
X1074340Y648891D01*
X1074340Y596106D01*
X1048147Y569912D01*
X995760Y569912D01*
X971947Y546100D01*
X971947Y475181D01*
X1022689Y424439D01*
X1022689Y418364D01*
X1023938Y417116D01*
X1023938Y335359D01*
X1013024Y324445D01*
G54D10*
X1318022Y702469D02*
X1317625Y702469D01*
X1305322Y714772D01*
X1255316Y714772D01*
X1216025Y675481D01*
X1138634Y675481D01*
X1131888Y682228D01*
X1120378Y682228D01*
X1110853Y691753D01*
X928290Y691753D01*
X922734Y697309D01*
X779462Y697309D01*
X769938Y706834D01*
X718740Y706834D01*
X638969Y627062D01*
X582612Y627062D01*
X558006Y658416D01*
X332978Y658416D01*
X311150Y680244D01*
G54D10*
X756841Y693738D02*
X758825Y693738D01*
X761603Y690959D01*
X913606Y690959D01*
X920353Y684212D01*
X1108075Y684212D01*
X1116410Y675878D01*
X1127125Y675878D01*
X1133872Y669131D01*
X1220390Y669131D01*
X1258490Y707231D01*
X1275953Y707231D01*
X1285081Y698103D01*
X1291034Y698103D01*
X1292622Y696516D01*
G54D10*
X858338Y754662D02*
X858338Y760913D01*
X848519Y770731D01*
X816372Y770731D01*
X776684Y731044D01*
X642540Y731044D01*
X622300Y710803D01*
X587474Y710406D01*
X546100Y761206D01*
X553140Y768156D01*
G54D10*
X553140Y768156D02*
X553140Y766262D01*
X535781Y748903D01*
X521890Y748903D01*
X490934Y712391D01*
X450056Y712391D01*
X424260Y738188D01*
X300831Y738188D01*
X287338Y724694D01*
X287338Y721825D01*
X284456Y718943D01*
G54D10*
X527740Y768156D02*
X522184Y762294D01*
X489744Y722709D01*
X454025Y722709D01*
X431006Y745728D01*
X278606Y745728D01*
X263128Y761206D01*
X212328Y761206D01*
X109934Y863600D01*
X109934Y866477D01*
X105466Y870946D01*
G54D10*
X578540Y768156D02*
X578540Y742450D01*
X578247Y742156D01*
X578247Y740569D01*
X596503Y722312D01*
X615950Y722312D01*
X631825Y738188D01*
X771922Y738188D01*
X811610Y777875D01*
X916384Y777875D01*
X931862Y762397D01*
X931862Y757336D01*
X934537Y754662D01*
G54D10*
X959937Y754662D02*
X959937Y758532D01*
X933847Y784622D01*
X808038Y784622D01*
X768350Y744934D01*
X606028Y744934D01*
X603250Y742156D01*
G54D10*
X654740Y768156D02*
X654740Y745435D01*
X654844Y745331D01*
G54D10*
X603940Y768156D02*
X603940Y771629D01*
X591740Y783828D01*
X485775Y783828D01*
X456803Y754856D01*
X286147Y754856D01*
X270272Y770731D01*
X227806Y770731D01*
X135731Y862806D01*
X135731Y866081D01*
X130866Y870946D01*
G54D10*
X156266Y870946D02*
X156266Y868466D01*
X247650Y777081D01*
X276622Y777081D01*
X291306Y762397D01*
X449262Y762397D01*
X477838Y790972D01*
X609997Y790972D01*
X625078Y775891D01*
X625078Y772418D01*
X629340Y768156D01*
G54D10*
X705540Y768156D02*
X705540Y770438D01*
X672703Y803275D01*
X246062Y803275D01*
X186531Y862806D01*
X186531Y866080D01*
X181665Y870946D01*
G54D10*
X207065Y870946D02*
X207065Y867672D01*
X263922Y810816D01*
X676672Y810816D01*
X702469Y836612D01*
X702469Y841284D01*
X705540Y844356D01*
G54D10*
X629340Y844356D02*
X629340Y839684D01*
X606425Y816769D01*
X282575Y816769D01*
X237331Y862012D01*
X237331Y866080D01*
X232465Y870946D01*
G54D10*
X257865Y870946D02*
X257865Y865291D01*
X298847Y824309D01*
X588566Y824309D01*
X600869Y836612D01*
X600869Y841284D01*
X603940Y844356D01*
G54D17*
X475854Y844947D02*
X501749Y844947D01*
X502340Y844356D01*
G54D10*
X527740Y844356D02*
X527740Y841272D01*
X516731Y830262D01*
X319484Y830262D01*
X286940Y862806D01*
X286940Y867271D01*
X283265Y870946D01*
G54D10*
X360656Y718943D02*
X360656Y714082D01*
X381397Y693341D01*
X438547Y693341D01*
X438944Y693738D01*
G54D10*
X335256Y718943D02*
X335256Y716066D01*
X375840Y675481D01*
X583010Y675481D01*
X603250Y655241D01*
G54D10*
X578247Y655241D02*
X578247Y657622D01*
X568722Y667147D01*
X357584Y667147D01*
X314722Y710009D01*
X314722Y714077D01*
X309856Y718943D01*
G54D19*
X386056Y718943D02*
X410960Y718943D01*
X412354Y717550D01*
G54D19*
X730940Y768156D02*
X755844Y768156D01*
X756841Y767159D01*
G54D17*
X860425Y640557D02*
X885032Y640556D01*
G54D17*
X1012032Y640556D02*
X1035050Y640557D01*
G54D17*
X1217018Y790376D02*
X1242418Y790376D01*
X1267818Y790376D01*
G54D17*
X1953220Y651073D02*
X1928614Y651073D01*
G54D10*
X496490Y215106D02*
X496490Y236682D01*
X495726Y237447D01*
G54D10*
X2656365Y144706D02*
X2652866Y144706D01*
X2647156Y150416D01*
X2647156Y227409D01*
X2640012Y234553D01*
G54D10*
X2847078Y144761D02*
X2838945Y144761D01*
X2835275Y148431D01*
X2835275Y228997D01*
X2830512Y233759D01*
G54D10*
X3035197Y146349D02*
X3033414Y146349D01*
X3026966Y152797D01*
X3026966Y227409D01*
X3020616Y233759D01*
G54D10*
X3225910Y146404D02*
X3221874Y146404D01*
X3215878Y152400D01*
X3215878Y227806D01*
X3208734Y234950D01*
G54D10*
X2549525Y-168672D02*
X2549525Y-147773D01*
X2547908Y-146156D01*
M02*
