%FSLAX34Y34*%
%MOMM*%
%LNSILK_TOP*%
G71*
G01*
%ADD10C,0.381*%
%LPD*%
G54D10*
X3181480Y-355712D02*
X3179880Y-353046D01*
X3176680Y-351712D01*
X3173480Y-351712D01*
X3170280Y-353046D01*
X3168680Y-355712D01*
X3168680Y-362379D01*
X3168680Y-363712D01*
X3173480Y-361046D01*
X3176680Y-361046D01*
X3179880Y-362379D01*
X3181480Y-365046D01*
X3181480Y-369046D01*
X3179880Y-371712D01*
X3176680Y-373046D01*
X3173480Y-373046D01*
X3170280Y-371712D01*
X3168680Y-369046D01*
X3168680Y-362379D01*
G54D10*
X3201748Y-355712D02*
X3201748Y-369046D01*
X3200148Y-371712D01*
X3196948Y-373046D01*
X3193748Y-373046D01*
X3190548Y-371712D01*
X3188948Y-369046D01*
X3188948Y-355712D01*
X3190548Y-353046D01*
X3193748Y-351712D01*
X3196948Y-351712D01*
X3200148Y-353046D01*
X3201748Y-355712D01*
G54D10*
X3209214Y-359712D02*
X3217214Y-351712D01*
X3217214Y-373046D01*
G54D10*
X3224682Y-363712D02*
X3237482Y-363712D01*
G54D10*
X3244948Y-359712D02*
X3252948Y-351712D01*
X3252948Y-373046D01*
G54D10*
X3270016Y-373046D02*
X3270016Y-351712D01*
X3260416Y-365046D01*
X3260416Y-367712D01*
X3273216Y-367712D01*
G54D10*
X3280682Y-355712D02*
X3282282Y-353046D01*
X3285482Y-351712D01*
X3288682Y-351712D01*
X3291882Y-353046D01*
X3293482Y-355712D01*
X3293482Y-358379D01*
X3291882Y-361046D01*
X3288682Y-362379D01*
X3291882Y-363712D01*
X3293482Y-366379D01*
X3293482Y-369046D01*
X3291882Y-371712D01*
X3288682Y-373046D01*
X3285482Y-373046D01*
X3282282Y-371712D01*
X3280682Y-369046D01*
G54D10*
X3313750Y-351712D02*
X3300950Y-351712D01*
X3300950Y-361046D01*
X3302550Y-361046D01*
X3305750Y-359712D01*
X3308950Y-359712D01*
X3312150Y-361046D01*
X3313750Y-363712D01*
X3313750Y-369046D01*
X3312150Y-371712D01*
X3308950Y-373046D01*
X3305750Y-373046D01*
X3302550Y-371712D01*
X3300950Y-369046D01*
G54D10*
X3423127Y-361585D02*
X3427927Y-364252D01*
X3429527Y-366918D01*
X3429527Y-372252D01*
G54D10*
X3416727Y-372252D02*
X3416727Y-350918D01*
X3424727Y-350918D01*
X3427927Y-352252D01*
X3429527Y-354918D01*
X3429527Y-357585D01*
X3427927Y-360252D01*
X3424727Y-361585D01*
X3416727Y-361585D01*
G54D10*
X3446594Y-370918D02*
X3444034Y-372252D01*
X3440834Y-372252D01*
X3437634Y-370918D01*
X3436994Y-368252D01*
X3436994Y-363718D01*
X3438594Y-361052D01*
X3441794Y-360252D01*
X3444994Y-361052D01*
X3446594Y-362918D01*
X3446594Y-365585D01*
X3436994Y-365585D01*
G54D10*
X3454061Y-360252D02*
X3460461Y-372252D01*
X3466861Y-360252D01*
G54D10*
X3474328Y-372252D02*
X3474328Y-372252D01*
G54D10*
X3474328Y-360252D02*
X3474328Y-360252D01*
G54D10*
X3502382Y-354918D02*
X3502382Y-368252D01*
X3500782Y-370918D01*
X3497582Y-372252D01*
X3494382Y-372252D01*
X3491182Y-370918D01*
X3489582Y-368252D01*
X3489582Y-354918D01*
X3491182Y-352252D01*
X3494382Y-350918D01*
X3497582Y-350918D01*
X3500782Y-352252D01*
X3502382Y-354918D01*
G54D10*
X3522649Y-372252D02*
X3509849Y-372252D01*
X3509849Y-370918D01*
X3511449Y-368252D01*
X3521049Y-360252D01*
X3522649Y-357585D01*
X3522649Y-354918D01*
X3521049Y-352252D01*
X3517849Y-350918D01*
X3514649Y-350918D01*
X3511449Y-352252D01*
X3509849Y-354918D01*
M02*
