; Drill file
; Format: 2.4 (00.0000)
M48
INCH
T01C0.0118
T02C0.0394
T03C0.0472
T04C0.0591
T05C0.0669
T06C0.1181
T07C0.1575
T08C0.2362
%
G05
G90
T01
X035620Y-005660
X035640Y-001720
X041420Y003280
X043880Y002300
X043860Y-001640
X041420Y007770
X039880Y007770
X039880Y008770
X039880Y009770
X039880Y010770
X039880Y011770
X039880Y012770
X035400Y012770
X035400Y011770
X035400Y010770
X035400Y009770
X035400Y008770
X035400Y007770
X025060Y009360
X025080Y013300
X023750Y025800
X022770Y025800
X022770Y029220
X023750Y029220
X018780Y029270
X017280Y030730
X016230Y028250
X017280Y027310
X018780Y025230
X012250Y026780
X010730Y025800
X008220Y026780
X006700Y025800
X016230Y034230
X018730Y033270
X018730Y036690
X029750Y036670
X030840Y035160
X031890Y035670
X032370Y034670
X032910Y033700
X031810Y032690
X030840Y031730
X029800Y030200
X031800Y028750
X032840Y028640
X033860Y028660
X034840Y028640
X035840Y028640
X036840Y028640
X037860Y028640
X038860Y028640
X039840Y028640
X040840Y028640
X042840Y029140
X043860Y029140
X044800Y028640
X044810Y029690
X045910Y029190
X045880Y028140
X046860Y028120
X046860Y025230
X045880Y025250
X044800Y025220
X043840Y025200
X042830Y025200
X040750Y025220
X039840Y025220
X038860Y025220
X037910Y025220
X036880Y025220
X035840Y025220
X034840Y025220
X033880Y025220
X032840Y025220
X029800Y027310
X029750Y033250
X036800Y035690
X037280Y034690
X037810Y033720
X041800Y033770
X042840Y035690
X041800Y036660
X043860Y034640
X045860Y034140
X044810Y032720
X045860Y032170
X043890Y030660
X042890Y030660
X045860Y037030
X050910Y031360
X051910Y031590
X053880Y032170
X054890Y032170
X055890Y032170
X055140Y033390
X055140Y036280
X054890Y027690
X055890Y027690
X053880Y027690
X051890Y027660
X050890Y027420
X046880Y020700
X046860Y016770
X038870Y020680
X035450Y020680
X053940Y006230
X054940Y006230
X055940Y006230
X056940Y006230
X057940Y006230
X058940Y006230
X058920Y002300
X057920Y002300
X056920Y002300
X055920Y002300
X054920Y002300
X053920Y002300
X056470Y-009750
X056450Y-013690
X070920Y-013190
X070940Y-009250
X079410Y001730
X079420Y005670
X081470Y009170
X081480Y013110
X084940Y016700
X084950Y020640
X086680Y026130
X086450Y027600
X083930Y029130
X080430Y027620
X080660Y026150
X076900Y025630
X075930Y025630
X077910Y021110
X077890Y017170
X073940Y013120
X072940Y013140
X072920Y009200
X073920Y009190
X087000Y005640
X088940Y008700
X088950Y012640
X096410Y013110
X096390Y009170
X103940Y009230
X103950Y013170
X111450Y013140
X111440Y009200
X118920Y009200
X118940Y013140
X126340Y013190
X126330Y009250
X133800Y009270
X133810Y013200
X141340Y013250
X141330Y009310
X148840Y009280
X148860Y013220
X156390Y013190
X156370Y009250
X170080Y005700
X170060Y001770
X161890Y026160
X157860Y026160
X129310Y026190
X125280Y026190
X105370Y026340
X103420Y025380
X101340Y026340
X099390Y025380
X095860Y028670
X095880Y032610
X097340Y035480
X093380Y035570
X091980Y035570
X087870Y035620
X079100Y035630
X079100Y034630
X076900Y031660
X074360Y033690
X072840Y033690
X072840Y036580
X074360Y036580
X069370Y034900
X065350Y034900
X064100Y033660
X064120Y036570
X070800Y025630
X062920Y023370
X062910Y019440
X092390Y019470
X092410Y023410
X086980Y001700
X087500Y-009280
X088980Y-009300
X085480Y-009300
X085470Y-013230
X087480Y-013220
X088970Y-013230
X105440Y-005700
X105450Y-001770
X127860Y-001720
X127840Y-005660
X135340Y-005670
X135360Y-001730
T02
X004710Y026820
X005200Y028300
X004200Y028300
X006200Y028300
X007200Y028300
X008200Y028300
X009200Y028300
X010200Y028300
X011200Y028300
X012200Y028300
X013200Y028300
X014200Y028300
X015200Y028300
X019780Y030240
X020780Y030240
X021780Y030240
X022780Y030240
X023780Y030240
X024780Y030240
X025780Y030240
X026780Y030240
X027780Y030240
X028780Y030240
X028780Y033240
X027780Y033240
X026780Y033240
X025780Y033240
X024780Y033240
X023780Y033240
X022780Y033240
X021780Y033240
X020780Y033240
X019780Y033240
X020770Y028760
X021770Y028770
X024760Y027230
X024760Y026230
X024760Y025230
X021790Y025260
X020790Y025240
X028790Y025230
X028790Y026230
X028790Y027230
X032790Y029710
X033790Y029710
X034790Y029710
X035790Y029710
X036790Y029710
X037790Y029710
X038790Y029710
X039790Y029710
X040790Y029710
X041790Y029710
X041790Y032710
X040790Y032710
X039790Y032710
X038790Y032710
X037790Y032710
X036790Y032710
X035790Y032710
X034790Y032710
X033790Y032710
X032790Y032710
X047910Y031120
X048910Y031120
X049910Y031120
X052860Y033630
X053870Y033160
X053870Y034160
X053870Y035160
X053870Y036160
X052860Y035650
X056840Y035160
X057840Y035160
X059150Y035180
X059150Y034130
X058840Y032680
X057840Y032680
X056840Y032680
X059840Y032680
X060840Y032680
X061840Y032680
X062840Y032680
X063840Y032680
X064840Y032680
X065840Y032680
X066840Y032680
X067840Y032680
X068840Y032680
X069840Y032680
X070840Y032680
X071840Y032680
X072840Y032680
X073840Y032680
X074840Y032680
X075840Y032680
X077890Y032090
X078890Y032090
X077150Y034620
X077120Y035620
X069910Y033870
X065880Y033870
X063180Y034130
X063180Y035180
X062840Y026680
X063840Y026680
X064840Y026680
X065840Y026680
X066840Y026680
X067840Y026680
X068840Y026680
X069840Y026680
X070840Y026680
X071840Y026680
X072840Y026680
X073840Y026680
X074840Y026680
X075840Y026680
X080930Y029130
X081930Y029130
X082930Y029130
X084930Y029130
X085930Y029130
X061840Y026680
X060840Y026680
X059840Y026680
X058840Y026680
X057840Y026680
X056840Y026680
X055870Y026660
X055900Y025400
X057850Y025660
X061880Y025660
X058900Y020700
X057910Y020700
X056910Y020700
X056910Y016660
X057910Y016660
X058900Y016660
X058950Y012730
X057950Y012730
X056950Y012730
X055950Y012730
X054950Y012730
X053950Y012730
X052450Y012740
X052460Y011740
X053950Y008700
X054950Y008700
X055950Y008700
X056950Y008700
X057950Y008700
X058950Y008700
X048430Y011740
X048410Y012740
X047910Y016710
X047910Y020740
X047880Y025230
X048910Y026150
X049910Y027090
X051870Y025400
X053870Y026660
X015150Y034290
X014150Y034290
X013150Y034290
X012150Y034290
X011150Y034290
X010150Y034290
X009150Y034290
X008150Y034290
X007150Y034290
X006150Y034290
X005150Y034290
X004150Y034290
X006710Y026820
X161800Y005760
X161790Y001760
X165040Y001740
X166040Y001740
T03
X004500Y-009370
X007500Y-009370
X012020Y-005640
X015020Y-005640
X019530Y-005640
X022530Y-005640
X027040Y-005630
X030040Y-005630
X030040Y001900
X027040Y001900
X022530Y001900
X019530Y001900
X015020Y001900
X012020Y001900
X007510Y001890
X004510Y001890
X004490Y009350
X007490Y009350
X012000Y009350
X015000Y009350
X019520Y009350
X022520Y009350
X027030Y009350
X030030Y009350
X030040Y016770
X027040Y016770
X022530Y016770
X019530Y016770
X015020Y016770
X012020Y016770
X007510Y016770
X004510Y016770
X012030Y-013100
X015030Y-013100
X023290Y-013130
X026290Y-013130
X038390Y-005680
X041390Y-005680
X045910Y-005680
X048910Y-005680
X053420Y-005680
X056420Y-005680
X048890Y001770
X045890Y001770
X043260Y016710
X040260Y016710
X051510Y016710
X054510Y016710
X064640Y016700
X067640Y016700
X072140Y016700
X075140Y016700
X079650Y016710
X082650Y016710
X087160Y016710
X090160Y016710
X094670Y016710
X097670Y016710
X102060Y016710
X105060Y016710
X109570Y016710
X112570Y016710
X117080Y016710
X120080Y016710
X124590Y016720
X127590Y016720
X132090Y016720
X135090Y016720
X139600Y016720
X142600Y016720
X147110Y016720
X150110Y016720
X154620Y016730
X157620Y016730
X162130Y016730
X165130Y016730
X171530Y016730
X174530Y016730
X172670Y009270
X169670Y009270
X172440Y001790
X175440Y001790
X169870Y-005630
X166870Y-005630
X166120Y-013130
X163120Y-013130
X172510Y-013130
X175510Y-013130
X155770Y-005680
X152770Y-005680
X148260Y-005680
X145260Y-005680
X140750Y-005680
X137750Y-005680
X133240Y-005690
X130240Y-005690
X125730Y-005690
X122730Y-005690
X118330Y-005750
X115330Y-005750
X110820Y-005750
X107820Y-005750
X103310Y-005750
X100310Y-005750
X095800Y-005760
X092800Y-005760
X088290Y-005760
X085290Y-005760
X084570Y001710
X081570Y001710
X089080Y001710
X092080Y001710
X096590Y001710
X099590Y001710
X104100Y001710
X107100Y001710
X111610Y001710
X114610Y001710
X119010Y001780
X122010Y001780
X126520Y001780
X129520Y001780
X134030Y001780
X137030Y001780
X141540Y001780
X144540Y001780
X149050Y001790
X152050Y001790
X156550Y001790
X159550Y001790
X158360Y009270
X161360Y009270
X153850Y009270
X150850Y009270
X146340Y009270
X143340Y009270
X138840Y009270
X135840Y009270
X131330Y009270
X128330Y009270
X123920Y009200
X120920Y009200
X116410Y009200
X113410Y009200
X108910Y009200
X105910Y009200
X101400Y009200
X098400Y009200
X093890Y009190
X090890Y009190
X086380Y009190
X083380Y009190
X078870Y009190
X075870Y009190
X069590Y005510
X066590Y005510
X071230Y-005710
X074230Y-005710
X074980Y-013200
X077980Y-013200
X068620Y-013180
X065620Y-013180
X090780Y027930
X093780Y027930
X098290Y027930
X101290Y027930
X105800Y027930
X108800Y027930
X113300Y027940
X116300Y027940
X120810Y027940
X123810Y027940
X132110Y027940
X135110Y027940
X139620Y027940
X142620Y027940
X147130Y027940
X150130Y027940
X154630Y027940
X157630Y027940
X162140Y027950
X165140Y027950
X173340Y027940
X176340Y027940
X121970Y-013230
X118970Y-013230
T04
X004980Y-005380
X007500Y-006370
X012510Y-009120
X015030Y-010100
X015020Y-002640
X012500Y-001650
X015020Y004900
X012500Y005880
X007510Y004890
X004990Y005880
X007490Y012350
X004980Y013330
X007510Y019770
X004990Y020750
X012500Y020750
X015020Y019770
X020020Y020750
X022530Y019770
X027530Y020760
X030040Y019770
X027510Y013330
X030030Y012350
X027530Y005880
X030040Y004900
X027530Y-001650
X030040Y-002630
X022530Y-002640
X020020Y-001650
X022530Y004900
X020020Y005880
X022520Y012350
X020000Y013330
X015000Y012350
X012490Y013330
X023780Y-009150
X026290Y-010130
X038880Y-001700
X041390Y-002680
X046390Y-001700
X048910Y-002680
X053900Y-001700
X056420Y-002680
X048890Y004770
X046370Y005760
X043260Y019710
X040750Y020690
X052000Y020690
X054510Y019710
X065120Y020690
X067640Y019700
X072630Y020690
X075140Y019700
X080140Y020690
X082650Y019710
X087650Y020690
X090160Y019710
X095150Y020690
X097670Y019710
X102540Y020690
X105060Y019710
X110050Y020700
X112570Y019710
X117560Y020700
X120080Y019710
X125070Y020700
X127590Y019720
X132580Y020700
X135090Y019720
X140090Y020710
X142600Y019720
X147590Y020710
X150110Y019720
X155100Y020710
X157620Y019730
X162610Y020710
X165130Y019730
X172020Y020710
X174530Y019730
X172670Y012270
X170160Y013260
X172920Y005770
X175440Y004790
X167050Y004790
X164530Y005770
X159550Y004790
X157030Y005770
X152050Y004790
X149530Y005770
X144540Y004780
X142020Y005770
X137030Y004780
X134510Y005770
X129520Y004780
X127000Y005760
X122010Y004780
X119500Y005760
X114610Y004710
X112090Y005700
X107100Y004710
X104580Y005700
X099590Y004710
X097070Y005690
X092080Y004710
X089560Y005690
X084570Y004710
X082060Y005690
X077040Y004740
X074530Y005730
X069590Y008510
X067080Y009490
X076360Y013170
X078870Y012190
X083860Y013180
X086380Y012190
X091370Y013180
X093890Y012190
X098880Y013180
X101400Y012200
X106390Y013180
X108910Y012200
X113900Y013190
X116410Y012200
X121410Y013190
X123920Y012200
X128810Y013250
X131330Y012270
X136320Y013250
X138840Y012270
X143830Y013250
X146340Y012270
X151340Y013260
X153850Y012270
X158850Y013260
X161360Y012270
X167360Y-001650
X169870Y-002630
X173000Y-009150
X175510Y-010130
X166120Y-010130
X163610Y-009150
X155770Y-002680
X153250Y-001690
X148260Y-002680
X145740Y-001700
X140750Y-002680
X138240Y-001700
X133240Y-002690
X130730Y-001700
X125730Y-002690
X123220Y-001700
X118330Y-002750
X115810Y-001770
X110820Y-002750
X108300Y-001770
X103310Y-002750
X100800Y-001770
X095800Y-002760
X093290Y-001770
X088290Y-002760
X085780Y-001770
X077980Y-010200
X075470Y-009210
X074230Y-002710
X071720Y-001730
X068620Y-010180
X066110Y-009200
X091260Y031910
X093780Y030930
X098770Y031920
X101290Y030930
X106280Y031920
X108800Y030930
X113790Y031920
X116300Y030940
X121300Y031920
X123810Y030940
X132590Y031920
X135110Y030940
X140100Y031920
X142620Y030940
X147610Y031930
X150130Y030940
X155120Y031930
X157630Y030940
X162630Y031930
X165140Y030950
X173830Y031930
X176340Y030940
X121970Y-010230
X119450Y-009240
X101830Y036850
X099830Y036850
T05
X004000Y-007390
X008000Y-007390
X011520Y-003660
X015520Y-003660
X019040Y-003660
X023040Y-003660
X026550Y-003660
X030550Y-003660
X037900Y-003710
X041900Y-003710
X045410Y-003710
X049410Y-003710
X052920Y-003700
X056920Y-003700
X049390Y003750
X045390Y003750
X030550Y003870
X026550Y003870
X023040Y003870
X019040Y003870
X015520Y003870
X011520Y003870
X008010Y003870
X004010Y003870
X004000Y011320
X008000Y011320
X011510Y011330
X015510Y011330
X019020Y011330
X023020Y011330
X026530Y011330
X030530Y011330
X030550Y018750
X026550Y018750
X023040Y018750
X019040Y018750
X015520Y018750
X011520Y018750
X008010Y018750
X004010Y018750
X011530Y-011120
X015530Y-011120
X022800Y-011160
X026800Y-011160
X039770Y018690
X043770Y018690
X051020Y018690
X055020Y018690
X064140Y018680
X068140Y018680
X071650Y018680
X075650Y018680
X079160Y018680
X083160Y018680
X086670Y018690
X090670Y018690
X094170Y018690
X098170Y018690
X101570Y018690
X105570Y018690
X109070Y018690
X113070Y018690
X116580Y018690
X120580Y018690
X124090Y018690
X128090Y018690
X131600Y018700
X135600Y018700
X139110Y018700
X143110Y018700
X146620Y018700
X150620Y018700
X154120Y018700
X158120Y018700
X161630Y018710
X165630Y018710
X171040Y018710
X175040Y018710
X173180Y011250
X169180Y011250
X161870Y011250
X157870Y011250
X154360Y011250
X150360Y011250
X146850Y011250
X142850Y011250
X139340Y011250
X135340Y011250
X131830Y011240
X127830Y011240
X124430Y011180
X120430Y011180
X116920Y011180
X112920Y011180
X109410Y011180
X105410Y011180
X101900Y011170
X097900Y011170
X094390Y011170
X090390Y011170
X086880Y011170
X082880Y011170
X079380Y011170
X075380Y011170
X070100Y007480
X066100Y007480
X073550Y003720
X077550Y003720
X081080Y003680
X085080Y003680
X088580Y003690
X092580Y003690
X096090Y003690
X100090Y003690
X103600Y003690
X107600Y003690
X111110Y003690
X115110Y003690
X118520Y003750
X122520Y003750
X126020Y003760
X130020Y003760
X133530Y003760
X137530Y003760
X141040Y003760
X145040Y003760
X148550Y003760
X152550Y003760
X156050Y003760
X160050Y003760
X163550Y003760
X167550Y003760
X171940Y003760
X175940Y003760
X170380Y-003660
X166380Y-003660
X166630Y-011160
X162630Y-011160
X172020Y-011160
X176020Y-011160
X156270Y-003700
X152270Y-003700
X148760Y-003700
X144760Y-003700
X141260Y-003710
X137260Y-003710
X133750Y-003710
X129750Y-003710
X126240Y-003710
X122240Y-003710
X118830Y-003770
X114830Y-003770
X111320Y-003770
X107320Y-003770
X103820Y-003780
X099820Y-003780
X096310Y-003780
X092310Y-003780
X088800Y-003780
X084800Y-003780
X078490Y-011220
X074490Y-011220
X069130Y-011200
X065130Y-011200
X070740Y-003730
X074740Y-003730
X090280Y029910
X094280Y029910
X097790Y029910
X101790Y029910
X105300Y029910
X109300Y029910
X112810Y029910
X116810Y029910
X120320Y029920
X124320Y029920
X131610Y029920
X135610Y029920
X139120Y029920
X143120Y029920
X146630Y029920
X150630Y029920
X154140Y029920
X158140Y029920
X161650Y029920
X165650Y029920
X172850Y029920
X176850Y029920
X122470Y-011250
X118470Y-011250
T06
X003270Y-012060
X003250Y-002720
X020140Y-013890
X029550Y-013910
X068050Y-000970
X070770Y002810
X077390Y-001000
X070770Y012120
X094280Y-013980
X146800Y-013910
X163670Y-000910
X173080Y-000920
X175800Y013980
X166470Y013950
T07
X009250Y-012080
X013530Y-011120
X020140Y-007890
X021040Y-003660
X028550Y-003660
X029520Y-007950
X024800Y-011160
X013520Y-003660
X009270Y-002720
X006000Y-007390
X006010Y003870
X006000Y011320
X006010Y018750
X013520Y018750
X013510Y011330
X013520Y003870
X021040Y003870
X021020Y011330
X021040Y018750
X028550Y018750
X028530Y011330
X028550Y003870
X039900Y-003710
X047410Y-003710
X047390Y003750
X054920Y-003700
X064800Y002810
X068100Y007480
X064780Y012120
X066140Y018680
X073650Y018680
X081160Y018680
X088670Y018690
X096170Y018690
X103570Y018690
X111070Y018690
X118580Y018690
X126090Y018690
X133600Y018700
X141110Y018700
X148620Y018700
X156120Y018700
X163630Y018710
X159870Y011250
X166440Y007980
X165550Y003760
X158050Y003760
X150550Y003760
X143040Y003760
X135530Y003760
X128020Y003760
X120520Y003750
X113110Y003690
X105600Y003690
X098090Y003690
X090590Y003690
X083080Y003680
X075550Y003720
X077380Y011170
X084880Y011170
X092390Y011170
X099900Y011170
X107410Y011180
X114920Y011180
X122430Y011180
X129830Y011240
X137340Y011250
X144850Y011250
X152360Y011250
X154270Y-003700
X146760Y-003700
X146770Y-007940
X139260Y-003710
X131750Y-003710
X124240Y-003710
X116830Y-003770
X109320Y-003770
X101820Y-003780
X094310Y-003780
X094310Y-008000
X086800Y-003780
X077420Y-006970
X076490Y-011220
X072740Y-003730
X068060Y-006950
X067130Y-011200
X053020Y018690
X041770Y018690
X092280Y029910
X099790Y029910
X107300Y029910
X114810Y029910
X122320Y029920
X133610Y029920
X141120Y029920
X148630Y029920
X156140Y029920
X163650Y029920
X174850Y029920
X173040Y018710
X171180Y011250
X175810Y008000
X173940Y003760
X168380Y-003660
X173080Y-006880
X174020Y-011160
X169310Y-014890
X164630Y-011160
X163690Y-006920
X120470Y-011250
T08
X047370Y-011390
X157160Y-011360
M30
